<svg width="890" height="365" viewBox="0 0 890 365" fill="none" xmlns="http://www.w3.org/2000/svg">
<path d="M59 77H135.381" stroke="#F8BF87" stroke-width="2.08052" stroke-linecap="round"/>
<rect x="67.9133" y="147.913" width="58.1733" height="58.1733" rx="4.86588" fill="#D9E5F2" stroke="#99B2CC" stroke-width="1.82668"/>
<circle cx="97" cy="277" r="28.9655" fill="#DFECDF" stroke="#AFCFAF" stroke-width="2.06897"/>
<g clip-path="url(#clip0_45_468)">
<rect x="241" y="70" width="146" height="216" rx="6.7619" fill="white"/>
<mask id="path-6-inside-1_45_468" fill="white">
<path d="M241 70H387V90.2857H241V70Z"/>
</mask>
<path d="M241 70H387V90.2857H241V70Z" fill="#EDEDED"/>
<path d="M387 90.2857V88.9333H241V90.2857V91.6381H387V90.2857Z" fill="#E6E6E6" mask="url(#path-6-inside-1_45_468)"/>
<path d="M302.304 78.2581V77.1213H307.66V78.2581H305.663V83.6428H304.3V78.2581H302.304ZM309.246 83.7352C308.934 83.7352 308.656 83.681 308.411 83.5728C308.167 83.4624 307.974 83.3 307.832 83.0856C307.692 82.869 307.622 82.5994 307.622 82.2767C307.622 82.005 307.672 81.7768 307.771 81.5921C307.871 81.4074 308.007 81.2588 308.179 81.1463C308.351 81.0338 308.546 80.9489 308.765 80.8915C308.986 80.8342 309.217 80.7939 309.459 80.7705C309.744 80.7408 309.973 80.7132 310.147 80.6877C310.321 80.6601 310.447 80.6198 310.526 80.5667C310.604 80.5137 310.644 80.4351 310.644 80.3311V80.312C310.644 80.1103 310.58 79.9543 310.453 79.8439C310.327 79.7335 310.149 79.6783 309.918 79.6783C309.674 79.6783 309.479 79.7324 309.335 79.8407C309.191 79.9468 309.095 80.0806 309.048 80.2419L307.794 80.14C307.857 79.8428 307.983 79.586 308.169 79.3694C308.356 79.1508 308.597 78.9831 308.892 78.8663C309.19 78.7474 309.533 78.688 309.924 78.688C310.196 78.688 310.456 78.7198 310.704 78.7835C310.955 78.8472 311.177 78.9459 311.37 79.0796C311.565 79.2134 311.719 79.3853 311.831 79.5955C311.944 79.8036 312 80.053 312 80.3438V83.6428H310.714V82.9646H310.676C310.597 83.1174 310.492 83.2522 310.36 83.369C310.229 83.4836 310.071 83.5738 309.886 83.6396C309.701 83.7033 309.488 83.7352 309.246 83.7352ZM309.634 82.799C309.834 82.799 310.01 82.7597 310.163 82.6811C310.316 82.6005 310.436 82.4922 310.523 82.3563C310.61 82.2205 310.653 82.0666 310.653 81.8946V81.3756C310.611 81.4032 310.552 81.4286 310.478 81.452C310.406 81.4732 310.324 81.4934 310.233 81.5125C310.142 81.5295 310.05 81.5454 309.959 81.5603C309.868 81.573 309.785 81.5847 309.711 81.5953C309.551 81.6186 309.412 81.6558 309.294 81.7067C309.175 81.7577 309.082 81.8267 309.016 81.9137C308.951 81.9986 308.918 82.1048 308.918 82.2322C308.918 82.4168 308.985 82.558 309.118 82.6557C309.254 82.7512 309.426 82.799 309.634 82.799ZM313.078 83.6428V77.1213H314.435V79.5732H314.476C314.536 79.4416 314.621 79.3079 314.734 79.172C314.849 79.034 314.997 78.9194 315.18 78.8281C315.364 78.7347 315.594 78.688 315.868 78.688C316.224 78.688 316.553 78.7814 316.855 78.9682C317.156 79.1529 317.397 79.432 317.578 79.8057C317.758 80.1772 317.848 80.6432 317.848 81.2036C317.848 81.7492 317.76 82.2099 317.584 82.5856C317.41 82.9592 317.172 83.2427 316.871 83.4358C316.571 83.6269 316.236 83.7224 315.864 83.7224C315.601 83.7224 315.377 83.6789 315.193 83.5919C315.01 83.5048 314.86 83.3955 314.744 83.2639C314.627 83.1301 314.538 82.9953 314.476 82.8595H314.416V83.6428H313.078ZM314.406 81.1972C314.406 81.4881 314.446 81.7418 314.527 81.9583C314.608 82.1748 314.724 82.3436 314.877 82.4646C315.03 82.5835 315.216 82.6429 315.435 82.6429C315.655 82.6429 315.842 82.5824 315.995 82.4614C316.148 82.3383 316.264 82.1685 316.342 81.9519C316.423 81.7333 316.463 81.4817 316.463 81.1972C316.463 80.9149 316.424 80.6665 316.345 80.4521C316.267 80.2377 316.151 80.07 315.998 79.949C315.845 79.828 315.657 79.7675 315.435 79.7675C315.214 79.7675 315.027 79.8258 314.874 79.9426C314.723 80.0594 314.608 80.2249 314.527 80.4394C314.446 80.6538 314.406 80.9064 314.406 81.1972ZM320.11 77.1213V83.6428H318.753V77.1213H320.11ZM323.426 83.7384C322.923 83.7384 322.489 83.6365 322.126 83.4327C321.766 83.2267 321.487 82.9359 321.292 82.5601C321.097 82.1823 320.999 81.7354 320.999 81.2195C320.999 80.7164 321.097 80.2748 321.292 79.8948C321.487 79.5148 321.762 79.2187 322.117 79.0064C322.474 78.7941 322.892 78.688 323.372 78.688C323.694 78.688 323.995 78.74 324.273 78.844C324.553 78.9459 324.797 79.0998 325.005 79.3057C325.215 79.5117 325.379 79.7706 325.496 80.0827C325.612 80.3927 325.671 80.7557 325.671 81.1718V81.5443H321.541V80.7037H324.394C324.394 80.5084 324.351 80.3353 324.266 80.1846C324.181 80.0339 324.064 79.9161 323.913 79.8312C323.764 79.7441 323.591 79.7006 323.394 79.7006C323.188 79.7006 323.005 79.7484 322.846 79.8439C322.689 79.9373 322.566 80.0636 322.477 80.2228C322.388 80.3799 322.342 80.5551 322.34 80.7482V81.5475C322.34 81.7895 322.384 81.9986 322.474 82.1748C322.565 82.351 322.693 82.4869 322.859 82.5824C323.024 82.678 323.221 82.7257 323.448 82.7257C323.599 82.7257 323.737 82.7045 323.862 82.662C323.987 82.6196 324.094 82.5559 324.184 82.471C324.273 82.3861 324.341 82.282 324.387 82.1589L325.642 82.2417C325.578 82.5432 325.448 82.8064 325.25 83.0314C325.055 83.2543 324.802 83.4284 324.492 83.5537C324.185 83.6768 323.829 83.7384 323.426 83.7384Z" fill="#999999"/>
<g clip-path="url(#clip1_45_468)">
<mask id="path-9-inside-2_45_468" fill="white">
<path d="M241 90.2856H289.667V286H241V90.2856Z"/>
</mask>
<mask id="path-11-outside-3_45_468" maskUnits="userSpaceOnUse" x="241" y="90.2856" width="49" height="20" fill="black">
<rect fill="white" x="241" y="90.2856" width="49" height="20"/>
<path d="M241 90.2856H289.667V109.286H241V90.2856Z"/>
</mask>
<path d="M241 90.2856H289.667V109.286H241V90.2856Z" fill="#F7F7F7"/>
<path d="M289.667 109.286V108.286H241V109.286V110.286H289.667V109.286Z" fill="#E6E6E6" mask="url(#path-11-outside-3_45_468)"/>
<path d="M257.155 104.378C256.843 104.378 256.565 104.324 256.321 104.216C256.077 104.105 255.883 103.943 255.741 103.728C255.601 103.512 255.531 103.242 255.531 102.92C255.531 102.648 255.581 102.42 255.681 102.235C255.78 102.05 255.916 101.902 256.088 101.789C256.26 101.677 256.456 101.592 256.674 101.534C256.895 101.477 257.126 101.437 257.368 101.413C257.653 101.384 257.882 101.356 258.056 101.331C258.23 101.303 258.357 101.263 258.435 101.21C258.514 101.156 258.553 101.078 258.553 100.974V100.955C258.553 100.753 258.489 100.597 258.362 100.487C258.237 100.376 258.058 100.321 257.827 100.321C257.583 100.321 257.389 100.375 257.244 100.484C257.1 100.59 257.004 100.723 256.958 100.885L255.703 100.783C255.767 100.486 255.892 100.229 256.079 100.012C256.266 99.7936 256.506 99.6259 256.802 99.5091C257.099 99.3902 257.443 99.3308 257.833 99.3308C258.105 99.3308 258.365 99.3626 258.613 99.4263C258.864 99.49 259.086 99.5887 259.279 99.7225C259.474 99.8562 259.628 100.028 259.741 100.238C259.853 100.446 259.91 100.696 259.91 100.987V104.286H258.623V103.607H258.585C258.506 103.76 258.401 103.895 258.27 104.012C258.138 104.126 257.98 104.217 257.795 104.282C257.61 104.346 257.397 104.378 257.155 104.378ZM257.544 103.442C257.743 103.442 257.919 103.403 258.072 103.324C258.225 103.243 258.345 103.135 258.432 102.999C258.519 102.863 258.563 102.709 258.563 102.537V102.018C258.52 102.046 258.462 102.071 258.387 102.095C258.315 102.116 258.233 102.136 258.142 102.155C258.051 102.172 257.96 102.188 257.868 102.203C257.777 102.216 257.694 102.227 257.62 102.238C257.461 102.261 257.322 102.299 257.203 102.35C257.084 102.401 256.992 102.47 256.926 102.557C256.86 102.641 256.827 102.748 256.827 102.875C256.827 103.06 256.894 103.201 257.028 103.298C257.164 103.394 257.335 103.442 257.544 103.442ZM263.564 99.3945V100.413H260.618V99.3945H263.564ZM261.287 98.2226H262.643V102.783C262.643 102.908 262.662 103.006 262.701 103.076C262.739 103.144 262.792 103.191 262.86 103.219C262.93 103.246 263.011 103.26 263.102 103.26C263.166 103.26 263.229 103.255 263.293 103.244C263.357 103.232 263.405 103.222 263.439 103.216L263.653 104.225C263.585 104.246 263.489 104.271 263.366 104.298C263.243 104.328 263.093 104.346 262.917 104.353C262.59 104.365 262.304 104.322 262.057 104.222C261.813 104.122 261.623 103.967 261.487 103.757C261.351 103.547 261.285 103.282 261.287 102.961V98.2226ZM267.049 99.3945V100.413H264.103V99.3945H267.049ZM264.772 98.2226H266.129V102.783C266.129 102.908 266.148 103.006 266.186 103.076C266.224 103.144 266.277 103.191 266.345 103.219C266.415 103.246 266.496 103.26 266.587 103.26C266.651 103.26 266.714 103.255 266.778 103.244C266.842 103.232 266.891 103.222 266.925 103.216L267.138 104.225C267.07 104.246 266.975 104.271 266.851 104.298C266.728 104.328 266.579 104.346 266.402 104.353C266.075 104.365 265.789 104.322 265.543 104.222C265.298 104.122 265.108 103.967 264.973 103.757C264.837 103.547 264.77 103.282 264.772 102.961V98.2226ZM267.932 104.286V99.3945H269.248V100.248H269.299C269.388 99.9443 269.537 99.715 269.748 99.5601C269.958 99.403 270.2 99.3244 270.474 99.3244C270.542 99.3244 270.615 99.3287 270.693 99.3372C270.772 99.3457 270.841 99.3573 270.9 99.3722V100.576C270.837 100.557 270.749 100.54 270.636 100.525C270.523 100.51 270.421 100.503 270.327 100.503C270.128 100.503 269.949 100.546 269.792 100.633C269.637 100.718 269.514 100.837 269.423 100.99C269.334 101.143 269.289 101.319 269.289 101.518V104.286H267.932ZM274.426 97.7641V104.286H273.047V99.0729H273.009L271.516 100.009V98.7863L273.13 97.7641H274.426Z" fill="black"/>
<path d="M256.633 134.286L255.073 129.443H255.835L257.117 133.497H257.153L258.4 129.443H259.144L257.62 134.286H256.633ZM263.759 130.833C263.759 130.313 263.382 129.99 262.763 129.99C262.189 129.99 261.759 130.268 261.705 130.681H260.97C261.006 129.91 261.759 129.354 262.763 129.354C263.812 129.354 264.512 129.946 264.512 130.842V132.555C264.512 133.308 264.566 133.864 264.691 134.286H263.974C263.902 134.088 263.848 133.828 263.812 133.514H263.776C263.498 134.061 262.987 134.375 262.333 134.375C261.427 134.375 260.79 133.775 260.79 132.905C260.79 132.017 261.454 131.533 262.817 131.407L263.265 131.362C263.606 131.326 263.759 131.165 263.759 130.833ZM263.759 131.73C263.651 131.811 263.507 131.856 263.328 131.882L262.898 131.927C261.956 132.044 261.544 132.331 261.544 132.887C261.544 133.416 261.911 133.757 262.467 133.757C263.185 133.757 263.759 133.174 263.759 132.403V131.73ZM268.221 132.663C268.221 133.389 268.535 133.739 269.18 133.739C269.449 133.739 269.718 133.676 269.987 133.541V134.169C269.736 134.304 269.413 134.375 269.055 134.375C268.014 134.375 267.467 133.783 267.467 132.663V128.322H266.024V127.65H268.221V132.663ZM271.49 134.286V133.604H273.122V128.834L271.49 129.883V129.103L273.185 128.009H273.902V133.604H275.49V134.286H271.49Z" fill="#666666"/>
<path d="M256.633 162.286L255.073 157.443H255.835L257.117 161.497H257.153L258.4 157.443H259.144L257.62 162.286H256.633ZM263.759 158.833C263.759 158.313 263.382 157.99 262.763 157.99C262.189 157.99 261.759 158.268 261.705 158.681H260.97C261.006 157.91 261.759 157.354 262.763 157.354C263.812 157.354 264.512 157.946 264.512 158.842V160.555C264.512 161.308 264.566 161.864 264.691 162.286H263.974C263.902 162.088 263.848 161.828 263.812 161.514H263.776C263.498 162.061 262.987 162.375 262.333 162.375C261.427 162.375 260.79 161.775 260.79 160.905C260.79 160.017 261.454 159.533 262.817 159.407L263.265 159.362C263.606 159.326 263.759 159.165 263.759 158.833ZM263.759 159.73C263.651 159.811 263.507 159.856 263.328 159.882L262.898 159.927C261.956 160.044 261.544 160.331 261.544 160.887C261.544 161.416 261.911 161.757 262.467 161.757C263.185 161.757 263.759 161.174 263.759 160.403V159.73ZM268.221 160.663C268.221 161.389 268.535 161.739 269.18 161.739C269.449 161.739 269.718 161.676 269.987 161.541V162.169C269.736 162.304 269.413 162.375 269.055 162.375C268.014 162.375 267.467 161.783 267.467 160.663V156.322H266.024V155.65H268.221V160.663ZM271.49 162.286V161.604H273.122V156.834L271.49 157.883V157.103L273.185 156.009H273.902V161.604H275.49V162.286H271.49Z" fill="#666666"/>
<path d="M256.633 190.286L255.073 185.443H255.835L257.117 189.497H257.153L258.4 185.443H259.144L257.62 190.286H256.633ZM263.759 186.833C263.759 186.313 263.382 185.99 262.763 185.99C262.189 185.99 261.759 186.268 261.705 186.681H260.97C261.006 185.91 261.759 185.354 262.763 185.354C263.812 185.354 264.512 185.946 264.512 186.842V188.555C264.512 189.308 264.566 189.864 264.691 190.286H263.974C263.902 190.088 263.848 189.828 263.812 189.514H263.776C263.498 190.061 262.987 190.375 262.333 190.375C261.427 190.375 260.79 189.775 260.79 188.905C260.79 188.017 261.454 187.533 262.817 187.407L263.265 187.362C263.606 187.326 263.759 187.165 263.759 186.833ZM263.759 187.73C263.651 187.811 263.507 187.856 263.328 187.882L262.898 187.927C261.956 188.044 261.544 188.331 261.544 188.887C261.544 189.416 261.911 189.757 262.467 189.757C263.185 189.757 263.759 189.174 263.759 188.403V187.73ZM268.221 188.663C268.221 189.389 268.535 189.739 269.18 189.739C269.449 189.739 269.718 189.676 269.987 189.541V190.169C269.736 190.304 269.413 190.375 269.055 190.375C268.014 190.375 267.467 189.783 267.467 188.663V184.322H266.024V183.65H268.221V188.663ZM271.463 190.286V189.981C271.463 189.272 271.912 188.6 273.077 187.569C274.037 186.717 274.413 186.197 274.413 185.641C274.413 185.022 273.956 184.609 273.293 184.609C272.665 184.609 272.172 184.986 272.118 185.515H271.365C271.392 184.609 272.225 183.919 273.319 183.919C274.413 183.919 275.194 184.618 275.194 185.614C275.194 186.385 274.727 187.075 273.606 188.062C272.871 188.707 272.486 189.165 272.342 189.604H275.463V190.286H271.463Z" fill="#666666"/>
<path d="M256.633 218.286L255.073 213.443H255.835L257.117 217.497H257.153L258.4 213.443H259.144L257.62 218.286H256.633ZM263.759 214.833C263.759 214.313 263.382 213.99 262.763 213.99C262.189 213.99 261.759 214.268 261.705 214.681H260.97C261.006 213.91 261.759 213.354 262.763 213.354C263.812 213.354 264.512 213.946 264.512 214.842V216.555C264.512 217.308 264.566 217.864 264.691 218.286H263.974C263.902 218.088 263.848 217.828 263.812 217.514H263.776C263.498 218.061 262.987 218.375 262.333 218.375C261.427 218.375 260.79 217.775 260.79 216.905C260.79 216.017 261.454 215.533 262.817 215.407L263.265 215.362C263.606 215.326 263.759 215.165 263.759 214.833ZM263.759 215.73C263.651 215.811 263.507 215.856 263.328 215.882L262.898 215.927C261.956 216.044 261.544 216.331 261.544 216.887C261.544 217.416 261.911 217.757 262.467 217.757C263.185 217.757 263.759 217.174 263.759 216.403V215.73ZM268.221 216.663C268.221 217.389 268.535 217.739 269.18 217.739C269.449 217.739 269.718 217.676 269.987 217.541V218.169C269.736 218.304 269.413 218.375 269.055 218.375C268.014 218.375 267.467 217.783 267.467 216.663V212.322H266.024V211.65H268.221V216.663ZM272.225 213.515H271.481C271.481 212.592 272.261 211.919 273.328 211.919C274.422 211.919 275.212 212.618 275.212 213.578C275.212 214.215 274.871 214.681 274.297 214.905V214.941C275.014 215.174 275.445 215.739 275.445 216.501C275.445 217.586 274.575 218.375 273.364 218.375C272.199 218.375 271.329 217.649 271.329 216.689H272.082C272.1 217.263 272.647 217.694 273.364 217.694C274.144 217.694 274.691 217.192 274.691 216.492C274.691 215.811 274.171 215.326 273.427 215.326H272.871V214.618H273.391C274.028 214.618 274.476 214.215 274.476 213.641C274.476 213.04 273.992 212.6 273.337 212.6C272.719 212.6 272.243 212.986 272.225 213.515Z" fill="#666666"/>
<path d="M256.633 246.286L255.073 241.443H255.835L257.117 245.497H257.153L258.4 241.443H259.144L257.62 246.286H256.633ZM263.759 242.833C263.759 242.313 263.382 241.99 262.763 241.99C262.189 241.99 261.759 242.268 261.705 242.681H260.97C261.006 241.91 261.759 241.354 262.763 241.354C263.812 241.354 264.512 241.946 264.512 242.842V244.555C264.512 245.308 264.566 245.864 264.691 246.286H263.974C263.902 246.088 263.848 245.828 263.812 245.514H263.776C263.498 246.061 262.987 246.375 262.333 246.375C261.427 246.375 260.79 245.775 260.79 244.905C260.79 244.017 261.454 243.533 262.817 243.407L263.265 243.362C263.606 243.326 263.759 243.165 263.759 242.833ZM263.759 243.73C263.651 243.811 263.507 243.856 263.328 243.882L262.898 243.927C261.956 244.044 261.544 244.331 261.544 244.887C261.544 245.416 261.911 245.757 262.467 245.757C263.185 245.757 263.759 245.174 263.759 244.403V243.73ZM268.221 244.663C268.221 245.389 268.535 245.739 269.18 245.739C269.449 245.739 269.718 245.676 269.987 245.541V246.169C269.736 246.304 269.413 246.375 269.055 246.375C268.014 246.375 267.467 245.783 267.467 244.663V240.322H266.024V239.65H268.221V244.663ZM272.225 241.515H271.481C271.481 240.592 272.261 239.919 273.328 239.919C274.422 239.919 275.212 240.618 275.212 241.578C275.212 242.215 274.871 242.681 274.297 242.905V242.941C275.014 243.174 275.445 243.739 275.445 244.501C275.445 245.586 274.575 246.375 273.364 246.375C272.199 246.375 271.329 245.649 271.329 244.689H272.082C272.1 245.263 272.647 245.694 273.364 245.694C274.144 245.694 274.691 245.192 274.691 244.492C274.691 243.811 274.171 243.326 273.427 243.326H272.871V242.618H273.391C274.028 242.618 274.476 242.215 274.476 241.641C274.476 241.04 273.992 240.6 273.337 240.6C272.719 240.6 272.243 240.986 272.225 241.515Z" fill="#666666"/>
</g>
<path d="M289.667 90.2856H288.667V286H289.667H290.667V90.2856H289.667Z" fill="#E6E6E6" mask="url(#path-9-inside-2_45_468)"/>
<g opacity="0.5">
<g clip-path="url(#clip2_45_468)">
<mask id="path-24-inside-4_45_468" fill="white">
<path d="M289.667 90.2856H338.333V286H289.667V90.2856Z"/>
</mask>
<mask id="path-26-outside-5_45_468" maskUnits="userSpaceOnUse" x="289.667" y="90.2856" width="49" height="20" fill="black">
<rect fill="white" x="289.667" y="90.2856" width="49" height="20"/>
<path d="M289.667 90.2856H338.333V109.286H289.667V90.2856Z"/>
</mask>
<path d="M289.667 90.2856H338.333V109.286H289.667V90.2856Z" fill="#F7F7F7"/>
<path d="M338.333 109.286V108.286H289.667V109.286V110.286H338.333V109.286Z" fill="#E6E6E6" mask="url(#path-26-outside-5_45_468)"/>
<path d="M305.191 104.378C304.879 104.378 304.601 104.324 304.357 104.216C304.113 104.105 303.92 103.943 303.777 103.728C303.637 103.512 303.567 103.242 303.567 102.92C303.567 102.648 303.617 102.42 303.717 102.235C303.817 102.05 303.953 101.902 304.125 101.789C304.296 101.677 304.492 101.592 304.71 101.534C304.931 101.477 305.163 101.437 305.405 101.413C305.689 101.384 305.918 101.356 306.092 101.331C306.267 101.303 306.393 101.263 306.471 101.21C306.55 101.156 306.589 101.078 306.589 100.974V100.955C306.589 100.753 306.526 100.597 306.398 100.487C306.273 100.376 306.095 100.321 305.863 100.321C305.619 100.321 305.425 100.375 305.28 100.484C305.136 100.59 305.041 100.723 304.994 100.885L303.739 100.783C303.803 100.486 303.928 100.229 304.115 100.012C304.302 99.7936 304.543 99.6259 304.838 99.5091C305.135 99.3902 305.479 99.3308 305.87 99.3308C306.141 99.3308 306.401 99.3626 306.65 99.4263C306.9 99.49 307.122 99.5887 307.315 99.7225C307.511 99.8562 307.664 100.028 307.777 100.238C307.889 100.446 307.946 100.696 307.946 100.987V104.286H306.659V103.607H306.621C306.543 103.76 306.437 103.895 306.306 104.012C306.174 104.126 306.016 104.217 305.831 104.282C305.647 104.346 305.433 104.378 305.191 104.378ZM305.58 103.442C305.779 103.442 305.956 103.403 306.108 103.324C306.261 103.243 306.381 103.135 306.468 102.999C306.555 102.863 306.599 102.709 306.599 102.537V102.018C306.556 102.046 306.498 102.071 306.424 102.095C306.351 102.116 306.27 102.136 306.178 102.155C306.087 102.172 305.996 102.188 305.905 102.203C305.813 102.216 305.731 102.227 305.656 102.238C305.497 102.261 305.358 102.299 305.239 102.35C305.12 102.401 305.028 102.47 304.962 102.557C304.896 102.641 304.863 102.748 304.863 102.875C304.863 103.06 304.93 103.201 305.064 103.298C305.2 103.394 305.372 103.442 305.58 103.442ZM311.6 99.3945V100.413H308.654V99.3945H311.6ZM309.323 98.2226H310.68V102.783C310.68 102.908 310.699 103.006 310.737 103.076C310.775 103.144 310.828 103.191 310.896 103.219C310.966 103.246 311.047 103.26 311.138 103.26C311.202 103.26 311.265 103.255 311.329 103.244C311.393 103.232 311.442 103.222 311.476 103.216L311.689 104.225C311.621 104.246 311.525 104.271 311.402 104.298C311.279 104.328 311.13 104.346 310.953 104.353C310.626 104.365 310.34 104.322 310.094 104.222C309.849 104.122 309.659 103.967 309.524 103.757C309.388 103.547 309.321 103.282 309.323 102.961V98.2226ZM315.085 99.3945V100.413H312.14V99.3945H315.085ZM312.808 98.2226H314.165V102.783C314.165 102.908 314.184 103.006 314.222 103.076C314.26 103.144 314.313 103.191 314.381 103.219C314.451 103.246 314.532 103.26 314.623 103.26C314.687 103.26 314.751 103.255 314.814 103.244C314.878 103.232 314.927 103.222 314.961 103.216L315.174 104.225C315.106 104.246 315.011 104.271 314.888 104.298C314.765 104.328 314.615 104.346 314.439 104.353C314.112 104.365 313.825 104.322 313.579 104.222C313.335 104.122 313.145 103.967 313.009 103.757C312.873 103.547 312.806 103.282 312.808 102.961V98.2226ZM315.969 104.286V99.3945H317.284V100.248H317.335C317.424 99.9443 317.574 99.715 317.784 99.5601C317.994 99.403 318.236 99.3244 318.51 99.3244C318.578 99.3244 318.651 99.3287 318.73 99.3372C318.808 99.3457 318.877 99.3573 318.937 99.3722V100.576C318.873 100.557 318.785 100.54 318.672 100.525C318.56 100.51 318.457 100.503 318.363 100.503C318.164 100.503 317.985 100.546 317.828 100.633C317.673 100.718 317.55 100.837 317.459 100.99C317.37 101.143 317.325 101.319 317.325 101.518V104.286H315.969ZM319.625 104.286V103.292L321.947 101.143C322.144 100.952 322.31 100.78 322.443 100.627C322.579 100.474 322.682 100.324 322.752 100.178C322.822 100.029 322.857 99.8689 322.857 99.697C322.857 99.5059 322.814 99.3414 322.727 99.2034C322.64 99.0633 322.521 98.9561 322.37 98.8818C322.219 98.8054 322.048 98.7672 321.857 98.7672C321.658 98.7672 321.484 98.8075 321.335 98.8882C321.187 98.9688 321.072 99.0845 320.991 99.2353C320.911 99.386 320.87 99.5654 320.87 99.7734H319.561C319.561 99.3467 319.658 98.9763 319.851 98.6621C320.044 98.3479 320.315 98.1048 320.663 97.9329C321.011 97.7609 321.413 97.6749 321.867 97.6749C322.334 97.6749 322.741 97.7577 323.087 97.9233C323.435 98.0868 323.705 98.3139 323.899 98.6048C324.092 98.8956 324.188 99.2289 324.188 99.6046C324.188 99.8509 324.14 100.094 324.042 100.334C323.946 100.574 323.775 100.84 323.529 101.133C323.283 101.424 322.936 101.773 322.488 102.181L321.536 103.114V103.158H324.274V104.286H319.625Z" fill="black"/>
<path d="M305.3 134.286L303.74 129.443H304.502L305.784 133.497H305.82L307.066 129.443H307.811L306.286 134.286H305.3ZM312.425 130.833C312.425 130.313 312.049 129.99 311.43 129.99C310.856 129.99 310.426 130.268 310.372 130.681H309.637C309.672 129.91 310.426 129.354 311.43 129.354C312.479 129.354 313.179 129.946 313.179 130.842V132.555C313.179 133.308 313.232 133.864 313.358 134.286H312.64C312.569 134.088 312.515 133.828 312.479 133.514H312.443C312.165 134.061 311.654 134.375 311 134.375C310.094 134.375 309.457 133.775 309.457 132.905C309.457 132.017 310.121 131.533 311.484 131.407L311.932 131.362C312.273 131.326 312.425 131.165 312.425 130.833ZM312.425 131.73C312.318 131.811 312.174 131.856 311.995 131.882L311.564 131.927C310.623 132.044 310.21 132.331 310.21 132.887C310.21 133.416 310.578 133.757 311.134 133.757C311.851 133.757 312.425 133.174 312.425 132.403V131.73ZM316.887 132.663C316.887 133.389 317.201 133.739 317.847 133.739C318.116 133.739 318.385 133.676 318.654 133.541V134.169C318.403 134.304 318.08 134.375 317.721 134.375C316.681 134.375 316.134 133.783 316.134 132.663V128.322H314.69V127.65H316.887V132.663ZM320.812 132.689C320.883 133.281 321.394 133.694 322.04 133.694C322.811 133.694 323.358 133.12 323.358 132.322C323.358 131.524 322.82 130.959 322.058 130.959C321.574 130.959 321.17 131.183 320.955 131.56L320.273 131.434L320.641 128.009H323.824V128.69H321.305L321.081 130.708L321.116 130.717C321.403 130.448 321.798 130.304 322.246 130.304C323.34 130.304 324.138 131.156 324.138 132.313C324.138 133.514 323.269 134.375 322.058 134.375C320.973 134.375 320.148 133.676 320.067 132.689H320.812Z" fill="#CCCCCC"/>
<path d="M305.3 162.286L303.74 157.443H304.502L305.784 161.497H305.82L307.066 157.443H307.811L306.286 162.286H305.3ZM312.425 158.833C312.425 158.313 312.049 157.99 311.43 157.99C310.856 157.99 310.426 158.268 310.372 158.681H309.637C309.672 157.91 310.426 157.354 311.43 157.354C312.479 157.354 313.179 157.946 313.179 158.842V160.555C313.179 161.308 313.232 161.864 313.358 162.286H312.64C312.569 162.088 312.515 161.828 312.479 161.514H312.443C312.165 162.061 311.654 162.375 311 162.375C310.094 162.375 309.457 161.775 309.457 160.905C309.457 160.017 310.121 159.533 311.484 159.407L311.932 159.362C312.273 159.326 312.425 159.165 312.425 158.833ZM312.425 159.73C312.318 159.811 312.174 159.856 311.995 159.882L311.564 159.927C310.623 160.044 310.21 160.331 310.21 160.887C310.21 161.416 310.578 161.757 311.134 161.757C311.851 161.757 312.425 161.174 312.425 160.403V159.73ZM316.887 160.663C316.887 161.389 317.201 161.739 317.847 161.739C318.116 161.739 318.385 161.676 318.654 161.541V162.169C318.403 162.304 318.08 162.375 317.721 162.375C316.681 162.375 316.134 161.783 316.134 160.663V156.322H314.69V155.65H316.887V160.663ZM320.812 160.689C320.883 161.281 321.394 161.694 322.04 161.694C322.811 161.694 323.358 161.12 323.358 160.322C323.358 159.524 322.82 158.959 322.058 158.959C321.574 158.959 321.17 159.183 320.955 159.56L320.273 159.434L320.641 156.009H323.824V156.69H321.305L321.081 158.708L321.116 158.717C321.403 158.448 321.798 158.304 322.246 158.304C323.34 158.304 324.138 159.156 324.138 160.313C324.138 161.514 323.269 162.375 322.058 162.375C320.973 162.375 320.148 161.676 320.067 160.689H320.812Z" fill="#CCCCCC"/>
<path d="M305.3 190.286L303.74 185.443H304.502L305.784 189.497H305.82L307.066 185.443H307.811L306.286 190.286H305.3ZM312.425 186.833C312.425 186.313 312.049 185.99 311.43 185.99C310.856 185.99 310.426 186.268 310.372 186.681H309.637C309.672 185.91 310.426 185.354 311.43 185.354C312.479 185.354 313.179 185.946 313.179 186.842V188.555C313.179 189.308 313.232 189.864 313.358 190.286H312.64C312.569 190.088 312.515 189.828 312.479 189.514H312.443C312.165 190.061 311.654 190.375 311 190.375C310.094 190.375 309.457 189.775 309.457 188.905C309.457 188.017 310.121 187.533 311.484 187.407L311.932 187.362C312.273 187.326 312.425 187.165 312.425 186.833ZM312.425 187.73C312.318 187.811 312.174 187.856 311.995 187.882L311.564 187.927C310.623 188.044 310.21 188.331 310.21 188.887C310.21 189.416 310.578 189.757 311.134 189.757C311.851 189.757 312.425 189.174 312.425 188.403V187.73ZM316.887 188.663C316.887 189.389 317.201 189.739 317.847 189.739C318.116 189.739 318.385 189.676 318.654 189.541V190.169C318.403 190.304 318.08 190.375 317.721 190.375C316.681 190.375 316.134 189.783 316.134 188.663V184.322H314.69V183.65H316.887V188.663ZM322.228 184.6C321.269 184.6 320.668 185.605 320.659 187.21H320.704C321.027 186.627 321.601 186.286 322.309 186.286C323.412 186.286 324.219 187.129 324.219 188.304C324.219 189.514 323.349 190.375 322.166 190.375C320.776 190.375 319.906 189.174 319.906 187.228C319.906 185.237 320.803 183.919 322.228 183.919C323.242 183.919 324.004 184.583 324.102 185.515H323.394C323.26 184.95 322.802 184.6 322.228 184.6ZM320.892 188.349C320.892 189.111 321.439 189.694 322.175 189.694C322.919 189.694 323.466 189.111 323.466 188.313C323.466 187.524 322.937 186.95 322.21 186.95C321.466 186.95 320.892 187.56 320.892 188.349Z" fill="#CCCCCC"/>
<path d="M305.3 218.286L303.74 213.443H304.502L305.784 217.497H305.82L307.066 213.443H307.811L306.286 218.286H305.3ZM312.425 214.833C312.425 214.313 312.049 213.99 311.43 213.99C310.856 213.99 310.426 214.268 310.372 214.681H309.637C309.672 213.91 310.426 213.354 311.43 213.354C312.479 213.354 313.179 213.946 313.179 214.842V216.555C313.179 217.308 313.232 217.864 313.358 218.286H312.64C312.569 218.088 312.515 217.828 312.479 217.514H312.443C312.165 218.061 311.654 218.375 311 218.375C310.094 218.375 309.457 217.775 309.457 216.905C309.457 216.017 310.121 215.533 311.484 215.407L311.932 215.362C312.273 215.326 312.425 215.165 312.425 214.833ZM312.425 215.73C312.318 215.811 312.174 215.856 311.995 215.882L311.564 215.927C310.623 216.044 310.21 216.331 310.21 216.887C310.21 217.416 310.578 217.757 311.134 217.757C311.851 217.757 312.425 217.174 312.425 216.403V215.73ZM316.887 216.663C316.887 217.389 317.201 217.739 317.847 217.739C318.116 217.739 318.385 217.676 318.654 217.541V218.169C318.403 218.304 318.08 218.375 317.721 218.375C316.681 218.375 316.134 217.783 316.134 216.663V212.322H314.69V211.65H316.887V216.663ZM321.287 218.286C321.287 216.178 321.923 214.376 323.26 212.708H319.924V212.009H324.076V212.654C322.695 214.43 322.094 216.107 322.067 218.286H321.287Z" fill="#CCCCCC"/>
<path d="M305.3 246.286L303.74 241.443H304.502L305.784 245.497H305.82L307.066 241.443H307.811L306.286 246.286H305.3ZM312.425 242.833C312.425 242.313 312.049 241.99 311.43 241.99C310.856 241.99 310.426 242.268 310.372 242.681H309.637C309.672 241.91 310.426 241.354 311.43 241.354C312.479 241.354 313.179 241.946 313.179 242.842V244.555C313.179 245.308 313.232 245.864 313.358 246.286H312.64C312.569 246.088 312.515 245.828 312.479 245.514H312.443C312.165 246.061 311.654 246.375 311 246.375C310.094 246.375 309.457 245.775 309.457 244.905C309.457 244.017 310.121 243.533 311.484 243.407L311.932 243.362C312.273 243.326 312.425 243.165 312.425 242.833ZM312.425 243.73C312.318 243.811 312.174 243.856 311.995 243.882L311.564 243.927C310.623 244.044 310.21 244.331 310.21 244.887C310.21 245.416 310.578 245.757 311.134 245.757C311.851 245.757 312.425 245.174 312.425 244.403V243.73ZM316.887 244.663C316.887 245.389 317.201 245.739 317.847 245.739C318.116 245.739 318.385 245.676 318.654 245.541V246.169C318.403 246.304 318.08 246.375 317.721 246.375C316.681 246.375 316.134 245.783 316.134 244.663V240.322H314.69V239.65H316.887V244.663ZM321.287 246.286C321.287 244.178 321.923 242.376 323.26 240.708H319.924V240.009H324.076V240.654C322.695 242.43 322.094 244.107 322.067 246.286H321.287Z" fill="#CCCCCC"/>
</g>
<path d="M338.333 90.2856H337.333V286H338.333H339.333V90.2856H338.333Z" fill="#E6E6E6" mask="url(#path-24-inside-4_45_468)"/>
</g>
<g opacity="0.5" clip-path="url(#clip3_45_468)">
<mask id="path-34-outside-6_45_468" maskUnits="userSpaceOnUse" x="338.333" y="90.2856" width="49" height="20" fill="black">
<rect fill="white" x="338.333" y="90.2856" width="49" height="20"/>
<path d="M338.333 90.2856H387V109.286H338.333V90.2856Z"/>
</mask>
<path d="M338.333 90.2856H387V109.286H338.333V90.2856Z" fill="#F7F7F7"/>
<path d="M387 109.286V108.286H338.333V109.286V110.286H387V109.286Z" fill="#E6E6E6" mask="url(#path-34-outside-6_45_468)"/>
<path d="M353.726 104.378C353.414 104.378 353.136 104.324 352.892 104.216C352.648 104.105 352.455 103.943 352.313 103.728C352.172 103.512 352.102 103.242 352.102 102.92C352.102 102.648 352.152 102.42 352.252 102.235C352.352 102.05 352.488 101.902 352.66 101.789C352.832 101.677 353.027 101.592 353.246 101.534C353.466 101.477 353.698 101.437 353.94 101.413C354.224 101.384 354.454 101.356 354.628 101.331C354.802 101.303 354.928 101.263 355.007 101.21C355.085 101.156 355.124 101.078 355.124 100.974V100.955C355.124 100.753 355.061 100.597 354.933 100.487C354.808 100.376 354.63 100.321 354.398 100.321C354.154 100.321 353.96 100.375 353.816 100.484C353.671 100.59 353.576 100.723 353.529 100.885L352.274 100.783C352.338 100.486 352.463 100.229 352.65 100.012C352.837 99.7936 353.078 99.6259 353.373 99.5091C353.67 99.3902 354.014 99.3308 354.405 99.3308C354.676 99.3308 354.936 99.3626 355.185 99.4263C355.435 99.49 355.657 99.5887 355.85 99.7225C356.046 99.8562 356.2 100.028 356.312 100.238C356.425 100.446 356.481 100.696 356.481 100.987V104.286H355.194V103.607H355.156C355.078 103.76 354.973 103.895 354.841 104.012C354.709 104.126 354.551 104.217 354.366 104.282C354.182 104.346 353.968 104.378 353.726 104.378ZM354.115 103.442C354.314 103.442 354.491 103.403 354.644 103.324C354.796 103.243 354.916 103.135 355.003 102.999C355.09 102.863 355.134 102.709 355.134 102.537V102.018C355.091 102.046 355.033 102.071 354.959 102.095C354.887 102.116 354.805 102.136 354.714 102.155C354.622 102.172 354.531 102.188 354.44 102.203C354.348 102.216 354.266 102.227 354.191 102.238C354.032 102.261 353.893 102.299 353.774 102.35C353.655 102.401 353.563 102.47 353.497 102.557C353.431 102.641 353.398 102.748 353.398 102.875C353.398 103.06 353.465 103.201 353.599 103.298C353.735 103.394 353.907 103.442 354.115 103.442ZM360.135 99.3945V100.413H357.189V99.3945H360.135ZM357.858 98.2226H359.215V102.783C359.215 102.908 359.234 103.006 359.272 103.076C359.31 103.144 359.363 103.191 359.431 103.219C359.501 103.246 359.582 103.26 359.673 103.26C359.737 103.26 359.801 103.255 359.864 103.244C359.928 103.232 359.977 103.222 360.011 103.216L360.224 104.225C360.156 104.246 360.061 104.271 359.938 104.298C359.814 104.328 359.665 104.346 359.489 104.353C359.162 104.365 358.875 104.322 358.629 104.222C358.385 104.122 358.195 103.967 358.059 103.757C357.923 103.547 357.856 103.282 357.858 102.961V98.2226ZM363.62 99.3945V100.413H360.675V99.3945H363.62ZM361.343 98.2226H362.7V102.783C362.7 102.908 362.719 103.006 362.757 103.076C362.795 103.144 362.849 103.191 362.916 103.219C362.987 103.246 363.067 103.26 363.158 103.26C363.222 103.26 363.286 103.255 363.35 103.244C363.413 103.232 363.462 103.222 363.496 103.216L363.709 104.225C363.641 104.246 363.546 104.271 363.423 104.298C363.3 104.328 363.15 104.346 362.974 104.353C362.647 104.365 362.36 104.322 362.114 104.222C361.87 104.122 361.68 103.967 361.544 103.757C361.408 103.547 361.341 103.282 361.343 102.961V98.2226ZM364.504 104.286V99.3945H365.819V100.248H365.87C365.959 99.9443 366.109 99.715 366.319 99.5601C366.529 99.403 366.771 99.3244 367.045 99.3244C367.113 99.3244 367.186 99.3287 367.265 99.3372C367.343 99.3457 367.412 99.3573 367.472 99.3722V100.576C367.408 100.557 367.32 100.54 367.207 100.525C367.095 100.51 366.992 100.503 366.899 100.503C366.699 100.503 366.521 100.546 366.364 100.633C366.209 100.718 366.085 100.837 365.994 100.99C365.905 101.143 365.86 101.319 365.86 101.518V104.286H364.504ZM370.571 104.375C370.095 104.375 369.672 104.293 369.3 104.13C368.931 103.964 368.639 103.737 368.425 103.448C368.212 103.157 368.103 102.822 368.097 102.442H369.485C369.493 102.601 369.546 102.741 369.641 102.862C369.739 102.981 369.868 103.073 370.03 103.139C370.191 103.205 370.372 103.238 370.574 103.238C370.784 103.238 370.97 103.201 371.131 103.127C371.293 103.052 371.419 102.949 371.51 102.818C371.602 102.686 371.647 102.534 371.647 102.362C371.647 102.188 371.598 102.034 371.501 101.901C371.405 101.765 371.267 101.659 371.087 101.582C370.908 101.506 370.696 101.467 370.45 101.467H369.842V100.455H370.45C370.658 100.455 370.842 100.419 371.001 100.347C371.162 100.274 371.287 100.175 371.377 100.047C371.466 99.9178 371.51 99.767 371.51 99.5951C371.51 99.4316 371.471 99.2883 371.392 99.1652C371.316 99.04 371.208 98.9423 371.068 98.8722C370.93 98.8022 370.768 98.7672 370.584 98.7672C370.397 98.7672 370.226 98.8011 370.071 98.8691C369.916 98.9349 369.792 99.0293 369.698 99.1525C369.605 99.2756 369.555 99.42 369.549 99.5855H368.227C368.234 99.2098 368.341 98.8786 368.549 98.592C368.757 98.3054 369.037 98.0815 369.389 97.9201C369.744 97.7567 370.144 97.6749 370.59 97.6749C371.04 97.6749 371.434 97.7567 371.771 97.9201C372.109 98.0836 372.371 98.3044 372.558 98.5825C372.747 98.8584 372.84 99.1684 372.838 99.5123C372.84 99.8774 372.727 100.182 372.497 100.426C372.27 100.67 371.974 100.825 371.609 100.891V100.942C372.089 101.004 372.454 101.17 372.704 101.442C372.957 101.712 373.082 102.049 373.08 102.455C373.082 102.826 372.975 103.156 372.759 103.445C372.544 103.734 372.248 103.961 371.87 104.126C371.492 104.292 371.059 104.375 370.571 104.375Z" fill="black"/>
<path d="M353.966 134.286L352.406 129.443H353.168L354.451 133.497H354.487L355.733 129.443H356.477L354.953 134.286H353.966ZM361.092 130.833C361.092 130.313 360.715 129.99 360.096 129.99C359.523 129.99 359.092 130.268 359.038 130.681H358.303C358.339 129.91 359.092 129.354 360.096 129.354C361.146 129.354 361.845 129.946 361.845 130.842V132.555C361.845 133.308 361.899 133.864 362.024 134.286H361.307C361.235 134.088 361.181 133.828 361.146 133.514H361.11C360.832 134.061 360.321 134.375 359.666 134.375C358.76 134.375 358.124 133.775 358.124 132.905C358.124 132.017 358.787 131.533 360.15 131.407L360.599 131.362C360.939 131.326 361.092 131.165 361.092 130.833ZM361.092 131.73C360.984 131.811 360.841 131.856 360.661 131.882L360.231 131.927C359.289 132.044 358.877 132.331 358.877 132.887C358.877 133.416 359.245 133.757 359.801 133.757C360.518 133.757 361.092 133.174 361.092 132.403V131.73ZM365.554 132.663C365.554 133.389 365.868 133.739 366.513 133.739C366.782 133.739 367.051 133.676 367.32 133.541V134.169C367.069 134.304 366.747 134.375 366.388 134.375C365.348 134.375 364.801 133.783 364.801 132.663V128.322H363.357V127.65H365.554V132.663ZM370.733 134.375C369.559 134.375 368.653 133.577 368.653 132.555C368.653 131.829 369.119 131.228 369.819 130.968V130.932C369.254 130.681 368.877 130.179 368.877 129.56C368.877 128.627 369.684 127.919 370.733 127.919C371.783 127.919 372.59 128.627 372.59 129.56C372.59 130.179 372.222 130.681 371.657 130.932V130.968C372.356 131.237 372.814 131.829 372.814 132.555C372.814 133.577 371.908 134.375 370.733 134.375ZM370.733 128.592C370.115 128.592 369.648 129.031 369.648 129.614C369.648 130.197 370.115 130.636 370.733 130.636C371.352 130.636 371.818 130.197 371.818 129.614C371.818 129.031 371.352 128.592 370.733 128.592ZM370.733 131.326C369.989 131.326 369.442 131.82 369.442 132.501C369.442 133.183 369.998 133.694 370.733 133.694C371.469 133.694 372.025 133.183 372.025 132.501C372.025 131.82 371.478 131.326 370.733 131.326Z" fill="#CCCCCC"/>
<path d="M353.966 162.286L352.406 157.443H353.168L354.451 161.497H354.487L355.733 157.443H356.477L354.953 162.286H353.966ZM361.092 158.833C361.092 158.313 360.715 157.99 360.096 157.99C359.523 157.99 359.092 158.268 359.038 158.681H358.303C358.339 157.91 359.092 157.354 360.096 157.354C361.146 157.354 361.845 157.946 361.845 158.842V160.555C361.845 161.308 361.899 161.864 362.024 162.286H361.307C361.235 162.088 361.181 161.828 361.146 161.514H361.11C360.832 162.061 360.321 162.375 359.666 162.375C358.76 162.375 358.124 161.775 358.124 160.905C358.124 160.017 358.787 159.533 360.15 159.407L360.599 159.362C360.939 159.326 361.092 159.165 361.092 158.833ZM361.092 159.73C360.984 159.811 360.841 159.856 360.661 159.882L360.231 159.927C359.289 160.044 358.877 160.331 358.877 160.887C358.877 161.416 359.245 161.757 359.801 161.757C360.518 161.757 361.092 161.174 361.092 160.403V159.73ZM365.554 160.663C365.554 161.389 365.868 161.739 366.513 161.739C366.782 161.739 367.051 161.676 367.32 161.541V162.169C367.069 162.304 366.747 162.375 366.388 162.375C365.348 162.375 364.801 161.783 364.801 160.663V156.322H363.357V155.65H365.554V160.663ZM370.733 162.375C369.559 162.375 368.653 161.577 368.653 160.555C368.653 159.829 369.119 159.228 369.819 158.968V158.932C369.254 158.681 368.877 158.179 368.877 157.56C368.877 156.627 369.684 155.919 370.733 155.919C371.783 155.919 372.59 156.627 372.59 157.56C372.59 158.179 372.222 158.681 371.657 158.932V158.968C372.356 159.237 372.814 159.829 372.814 160.555C372.814 161.577 371.908 162.375 370.733 162.375ZM370.733 156.592C370.115 156.592 369.648 157.031 369.648 157.614C369.648 158.197 370.115 158.636 370.733 158.636C371.352 158.636 371.818 158.197 371.818 157.614C371.818 157.031 371.352 156.592 370.733 156.592ZM370.733 159.326C369.989 159.326 369.442 159.82 369.442 160.501C369.442 161.183 369.998 161.694 370.733 161.694C371.469 161.694 372.025 161.183 372.025 160.501C372.025 159.82 371.478 159.326 370.733 159.326Z" fill="#CCCCCC"/>
<path d="M353.966 190.286L352.406 185.443H353.168L354.451 189.497H354.487L355.733 185.443H356.477L354.953 190.286H353.966ZM361.092 186.833C361.092 186.313 360.715 185.99 360.096 185.99C359.523 185.99 359.092 186.268 359.038 186.681H358.303C358.339 185.91 359.092 185.354 360.096 185.354C361.146 185.354 361.845 185.946 361.845 186.842V188.555C361.845 189.308 361.899 189.864 362.024 190.286H361.307C361.235 190.088 361.181 189.828 361.146 189.514H361.11C360.832 190.061 360.321 190.375 359.666 190.375C358.76 190.375 358.124 189.775 358.124 188.905C358.124 188.017 358.787 187.533 360.15 187.407L360.599 187.362C360.939 187.326 361.092 187.165 361.092 186.833ZM361.092 187.73C360.984 187.811 360.841 187.856 360.661 187.882L360.231 187.927C359.289 188.044 358.877 188.331 358.877 188.887C358.877 189.416 359.245 189.757 359.801 189.757C360.518 189.757 361.092 189.174 361.092 188.403V187.73ZM365.554 188.663C365.554 189.389 365.868 189.739 366.513 189.739C366.782 189.739 367.051 189.676 367.32 189.541V190.169C367.069 190.304 366.747 190.375 366.388 190.375C365.348 190.375 364.801 189.783 364.801 188.663V184.322H363.357V183.65H365.554V188.663ZM370.733 190.375C369.559 190.375 368.653 189.577 368.653 188.555C368.653 187.829 369.119 187.228 369.819 186.968V186.932C369.254 186.681 368.877 186.179 368.877 185.56C368.877 184.627 369.684 183.919 370.733 183.919C371.783 183.919 372.59 184.627 372.59 185.56C372.59 186.179 372.222 186.681 371.657 186.932V186.968C372.356 187.237 372.814 187.829 372.814 188.555C372.814 189.577 371.908 190.375 370.733 190.375ZM370.733 184.592C370.115 184.592 369.648 185.031 369.648 185.614C369.648 186.197 370.115 186.636 370.733 186.636C371.352 186.636 371.818 186.197 371.818 185.614C371.818 185.031 371.352 184.592 370.733 184.592ZM370.733 187.326C369.989 187.326 369.442 187.82 369.442 188.501C369.442 189.183 369.998 189.694 370.733 189.694C371.469 189.694 372.025 189.183 372.025 188.501C372.025 187.82 371.478 187.326 370.733 187.326Z" fill="#CCCCCC"/>
<path d="M353.966 218.286L352.406 213.443H353.168L354.451 217.497H354.487L355.733 213.443H356.477L354.953 218.286H353.966ZM361.092 214.833C361.092 214.313 360.715 213.99 360.096 213.99C359.523 213.99 359.092 214.268 359.038 214.681H358.303C358.339 213.91 359.092 213.354 360.096 213.354C361.146 213.354 361.845 213.946 361.845 214.842V216.555C361.845 217.308 361.899 217.864 362.024 218.286H361.307C361.235 218.088 361.181 217.828 361.146 217.514H361.11C360.832 218.061 360.321 218.375 359.666 218.375C358.76 218.375 358.124 217.775 358.124 216.905C358.124 216.017 358.787 215.533 360.15 215.407L360.599 215.362C360.939 215.326 361.092 215.165 361.092 214.833ZM361.092 215.73C360.984 215.811 360.841 215.856 360.661 215.882L360.231 215.927C359.289 216.044 358.877 216.331 358.877 216.887C358.877 217.416 359.245 217.757 359.801 217.757C360.518 217.757 361.092 217.174 361.092 216.403V215.73ZM365.554 216.663C365.554 217.389 365.868 217.739 366.513 217.739C366.782 217.739 367.051 217.676 367.32 217.541V218.169C367.069 218.304 366.747 218.375 366.388 218.375C365.348 218.375 364.801 217.783 364.801 216.663V212.322H363.357V211.65H365.554V216.663ZM370.572 217.694C371.532 217.694 372.132 216.689 372.141 215.084H372.096C371.774 215.667 371.2 216.008 370.491 216.008C369.388 216.008 368.581 215.165 368.581 213.99C368.581 212.78 369.451 211.919 370.635 211.919C372.025 211.919 372.895 213.121 372.895 215.066C372.895 217.057 371.998 218.375 370.572 218.375C369.559 218.375 368.797 217.712 368.698 216.779H369.406C369.541 217.344 369.998 217.694 370.572 217.694ZM371.908 213.946C371.908 213.183 371.361 212.6 370.626 212.6C369.882 212.6 369.335 213.183 369.335 213.981C369.335 214.771 369.864 215.344 370.59 215.344C371.334 215.344 371.908 214.735 371.908 213.946Z" fill="#CCCCCC"/>
<path d="M353.966 246.286L352.406 241.443H353.168L354.451 245.497H354.487L355.733 241.443H356.477L354.953 246.286H353.966ZM361.092 242.833C361.092 242.313 360.715 241.99 360.096 241.99C359.523 241.99 359.092 242.268 359.038 242.681H358.303C358.339 241.91 359.092 241.354 360.096 241.354C361.146 241.354 361.845 241.946 361.845 242.842V244.555C361.845 245.308 361.899 245.864 362.024 246.286H361.307C361.235 246.088 361.181 245.828 361.146 245.514H361.11C360.832 246.061 360.321 246.375 359.666 246.375C358.76 246.375 358.124 245.775 358.124 244.905C358.124 244.017 358.787 243.533 360.15 243.407L360.599 243.362C360.939 243.326 361.092 243.165 361.092 242.833ZM361.092 243.73C360.984 243.811 360.841 243.856 360.661 243.882L360.231 243.927C359.289 244.044 358.877 244.331 358.877 244.887C358.877 245.416 359.245 245.757 359.801 245.757C360.518 245.757 361.092 245.174 361.092 244.403V243.73ZM365.554 244.663C365.554 245.389 365.868 245.739 366.513 245.739C366.782 245.739 367.051 245.676 367.32 245.541V246.169C367.069 246.304 366.747 246.375 366.388 246.375C365.348 246.375 364.801 245.783 364.801 244.663V240.322H363.357V239.65H365.554V244.663ZM370.572 245.694C371.532 245.694 372.132 244.689 372.141 243.084H372.096C371.774 243.667 371.2 244.008 370.491 244.008C369.388 244.008 368.581 243.165 368.581 241.99C368.581 240.78 369.451 239.919 370.635 239.919C372.025 239.919 372.895 241.121 372.895 243.066C372.895 245.057 371.998 246.375 370.572 246.375C369.559 246.375 368.797 245.712 368.698 244.779H369.406C369.541 245.344 369.998 245.694 370.572 245.694ZM371.908 241.946C371.908 241.183 371.361 240.6 370.626 240.6C369.882 240.6 369.335 241.183 369.335 241.981C369.335 242.771 369.864 243.344 370.59 243.344C371.334 243.344 371.908 242.735 371.908 241.946Z" fill="#CCCCCC"/>
</g>
</g>
<rect x="241.676" y="70.6762" width="144.648" height="214.648" rx="6.08571" stroke="#E6E6E6" stroke-width="1.35238"/>
<path d="M173 77L229 77" stroke="#C0C0C0" stroke-opacity="0.5" stroke-width="2" stroke-linecap="round" stroke-dasharray="6 6"/>
<path d="M399 76C398.448 76 398 76.4477 398 77C398 77.5523 398.448 78 399 78L399 77L399 76ZM465.707 77.7071C466.098 77.3166 466.098 76.6834 465.707 76.2929L459.343 69.9289C458.953 69.5384 458.319 69.5384 457.929 69.9289C457.538 70.3195 457.538 70.9526 457.929 71.3432L463.586 77L457.929 82.6569C457.538 83.0474 457.538 83.6805 457.929 84.0711C458.319 84.4616 458.953 84.4616 459.343 84.0711L465.707 77.7071ZM401.75 78L402.75 78L402.75 76L401.75 76L401.75 77L401.75 78ZM407.25 76L406.25 76L406.25 78L407.25 78L407.25 77L407.25 76ZM412.75 78L413.75 78L413.75 76L412.75 76L412.75 77L412.75 78ZM418.25 76L417.25 76L417.25 78L418.25 78L418.25 77L418.25 76ZM423.75 78L424.75 78L424.75 76L423.75 76L423.75 77L423.75 78ZM429.25 76L428.25 76L428.25 78L429.25 78L429.25 77L429.25 76ZM434.75 78L435.75 78L435.75 76L434.75 76L434.75 77L434.75 78ZM440.25 76L439.25 76L439.25 78L440.25 78L440.25 77L440.25 76ZM445.75 78L446.75 78L446.75 76L445.75 76L445.75 77L445.75 78ZM451.25 76L450.25 76L450.25 78L451.25 78L451.25 77L451.25 76ZM456.75 78L457.75 78L457.75 76L456.75 76L456.75 77L456.75 78ZM462.25 76L461.25 76L461.25 78L462.25 78L462.25 77L462.25 76ZM399 77L399 78L401.75 78L401.75 77L401.75 76L399 76L399 77ZM407.25 77L407.25 78L412.75 78L412.75 77L412.75 76L407.25 76L407.25 77ZM418.25 77L418.25 78L423.75 78L423.75 77L423.75 76L418.25 76L418.25 77ZM429.25 77L429.25 78L434.75 78L434.75 77L434.75 76L429.25 76L429.25 77ZM440.25 77L440.25 78L445.75 78L445.75 77L445.75 76L440.25 76L440.25 77ZM451.25 77L451.25 78L456.75 78L456.75 77L456.75 76L451.25 76L451.25 77ZM462.25 77L462.25 78L465 78L465 77L465 76L462.25 76L462.25 77Z" fill="#C0C0C0" fill-opacity="0.5"/>
<path d="M173 177L229 177" stroke="#C0C0C0" stroke-opacity="0.5" stroke-width="2" stroke-linecap="round" stroke-dasharray="6 6"/>
<path d="M399 176C398.448 176 398 176.448 398 177C398 177.552 398.448 178 399 178L399 177L399 176ZM465.707 177.707C466.098 177.317 466.098 176.683 465.707 176.293L459.343 169.929C458.953 169.538 458.319 169.538 457.929 169.929C457.538 170.319 457.538 170.953 457.929 171.343L463.586 177L457.929 182.657C457.538 183.047 457.538 183.681 457.929 184.071C458.319 184.462 458.953 184.462 459.343 184.071L465.707 177.707ZM401.75 178L402.75 178L402.75 176L401.75 176L401.75 177L401.75 178ZM407.25 176L406.25 176L406.25 178L407.25 178L407.25 177L407.25 176ZM412.75 178L413.75 178L413.75 176L412.75 176L412.75 177L412.75 178ZM418.25 176L417.25 176L417.25 178L418.25 178L418.25 177L418.25 176ZM423.75 178L424.75 178L424.75 176L423.75 176L423.75 177L423.75 178ZM429.25 176L428.25 176L428.25 178L429.25 178L429.25 177L429.25 176ZM434.75 178L435.75 178L435.75 176L434.75 176L434.75 177L434.75 178ZM440.25 176L439.25 176L439.25 178L440.25 178L440.25 177L440.25 176ZM445.75 178L446.75 178L446.75 176L445.75 176L445.75 177L445.75 178ZM451.25 176L450.25 176L450.25 178L451.25 178L451.25 177L451.25 176ZM456.75 178L457.75 178L457.75 176L456.75 176L456.75 177L456.75 178ZM462.25 176L461.25 176L461.25 178L462.25 178L462.25 177L462.25 176ZM399 177L399 178L401.75 178L401.75 177L401.75 176L399 176L399 177ZM407.25 177L407.25 178L412.75 178L412.75 177L412.75 176L407.25 176L407.25 177ZM418.25 177L418.25 178L423.75 178L423.75 177L423.75 176L418.25 176L418.25 177ZM429.25 177L429.25 178L434.75 178L434.75 177L434.75 176L429.25 176L429.25 177ZM440.25 177L440.25 178L445.75 178L445.75 177L445.75 176L440.25 176L440.25 177ZM451.25 177L451.25 178L456.75 178L456.75 177L456.75 176L451.25 176L451.25 177ZM462.25 177L462.25 178L465 178L465 177L465 176L462.25 176L462.25 177Z" fill="#C0C0C0" fill-opacity="0.5"/>
<path d="M173 277L229 277" stroke="#C0C0C0" stroke-opacity="0.5" stroke-width="2" stroke-linecap="round" stroke-dasharray="6 6"/>
<path d="M399 276C398.448 276 398 276.448 398 277C398 277.552 398.448 278 399 278L399 277L399 276ZM465.707 277.707C466.098 277.317 466.098 276.683 465.707 276.293L459.343 269.929C458.953 269.538 458.319 269.538 457.929 269.929C457.538 270.319 457.538 270.953 457.929 271.343L463.586 277L457.929 282.657C457.538 283.047 457.538 283.681 457.929 284.071C458.319 284.462 458.953 284.462 459.343 284.071L465.707 277.707ZM401.75 278L402.75 278L402.75 276L401.75 276L401.75 277L401.75 278ZM407.25 276L406.25 276L406.25 278L407.25 278L407.25 277L407.25 276ZM412.75 278L413.75 278L413.75 276L412.75 276L412.75 277L412.75 278ZM418.25 276L417.25 276L417.25 278L418.25 278L418.25 277L418.25 276ZM423.75 278L424.75 278L424.75 276L423.75 276L423.75 277L423.75 278ZM429.25 276L428.25 276L428.25 278L429.25 278L429.25 277L429.25 276ZM434.75 278L435.75 278L435.75 276L434.75 276L434.75 277L434.75 278ZM440.25 276L439.25 276L439.25 278L440.25 278L440.25 277L440.25 276ZM445.75 278L446.75 278L446.75 276L445.75 276L445.75 277L445.75 278ZM451.25 276L450.25 276L450.25 278L451.25 278L451.25 277L451.25 276ZM456.75 278L457.75 278L457.75 276L456.75 276L456.75 277L456.75 278ZM462.25 276L461.25 276L461.25 278L462.25 278L462.25 277L462.25 276ZM399 277L399 278L401.75 278L401.75 277L401.75 276L399 276L399 277ZM407.25 277L407.25 278L412.75 278L412.75 277L412.75 276L407.25 276L407.25 277ZM418.25 277L418.25 278L423.75 278L423.75 277L423.75 276L418.25 276L418.25 277ZM429.25 277L429.25 278L434.75 278L434.75 277L434.75 276L429.25 276L429.25 277ZM440.25 277L440.25 278L445.75 278L445.75 277L445.75 276L440.25 276L440.25 277ZM451.25 277L451.25 278L456.75 278L456.75 277L456.75 276L451.25 276L451.25 277ZM462.25 277L462.25 278L465 278L465 277L465 276L462.25 276L462.25 277Z" fill="#C0C0C0" fill-opacity="0.5"/>
<path d="M240.948 61C240.91 60.696 240.891 60.43 240.872 60.1545H240.824C240.539 60.7625 240.055 61.095 239.409 61.095C238.231 61.095 237.357 59.9645 237.357 58.435C237.357 56.915 238.24 55.775 239.418 55.775C240.026 55.775 240.492 56.079 240.786 56.63H240.834V53.97H241.974V59.29C241.974 59.7745 242.002 60.4015 242.04 61H240.948ZM239.675 60.05C240.349 60.05 240.853 59.3565 240.853 58.435C240.853 57.5135 240.349 56.82 239.675 56.82C239 56.82 238.497 57.5135 238.497 58.435C238.497 59.3565 239 60.05 239.675 60.05ZM244.582 58.7485C244.677 59.594 245.114 60.0975 245.798 60.0975C246.226 60.0975 246.568 59.898 246.682 59.575H247.765C247.594 60.487 246.805 61.095 245.798 61.095C244.421 61.095 243.442 59.974 243.442 58.4065C243.442 56.8675 244.383 55.775 245.694 55.775C246.976 55.775 247.86 56.8105 247.86 58.321V58.7485H244.582ZM245.694 56.744C245.143 56.744 244.744 57.162 244.611 57.8555H246.72C246.663 57.181 246.254 56.744 245.694 56.744ZM249.395 61V55.87H250.488V56.5445H250.526C250.792 56.0505 251.248 55.775 251.837 55.775C252.777 55.775 253.385 56.4685 253.385 57.5325V61H252.245V57.6275C252.245 57.067 251.97 56.725 251.514 56.725C250.944 56.725 250.535 57.257 250.535 58.0075V61H249.395ZM255.129 59.575H256.231C256.288 59.917 256.716 60.1735 257.219 60.1735C257.713 60.1735 258.036 59.9265 258.036 59.537C258.036 59.2045 257.808 59.043 257.267 58.986L257.01 58.9575C255.842 58.8245 255.281 58.3495 255.281 57.485C255.281 56.4685 256.041 55.775 257.172 55.775C258.255 55.775 259.081 56.421 259.119 57.295H258.055C258.017 56.953 257.666 56.725 257.191 56.725C256.706 56.725 256.402 56.9625 256.402 57.3425C256.402 57.656 256.611 57.827 257.086 57.884L257.343 57.9125C258.587 58.055 259.176 58.53 259.176 59.3945C259.176 60.4205 258.35 61.133 257.153 61.133C255.994 61.133 255.129 60.468 255.129 59.575ZM260.968 61V59.955H262.393V56.915H261.016V55.87H263.533V59.955H264.958V61H260.968ZM262.004 54.3405C262.004 53.856 262.393 53.476 262.868 53.476C263.353 53.476 263.733 53.856 263.733 54.3405C263.733 54.8155 263.353 55.205 262.868 55.205C262.393 55.205 262.004 54.8155 262.004 54.3405ZM267.51 61V56.915H266.18V55.87H267.51V55.8035C267.51 54.54 268.147 53.875 269.363 53.875C269.752 53.875 270.123 53.9415 270.408 54.0745V55.0245C270.132 54.901 269.847 54.844 269.581 54.844C268.954 54.844 268.65 55.1575 268.65 55.8035V55.87H270.313V56.915H268.65V61H267.51ZM271.81 61.874C272.019 61.931 272.218 61.9595 272.427 61.9595C273.035 61.9595 273.339 61.722 273.586 61.0285L273.605 60.9905L271.8 55.87H272.969L274.156 59.4135H274.194L275.363 55.87H276.503L274.622 61.304C274.223 62.463 273.634 62.9475 272.579 62.9475C272.323 62.9475 272.085 62.919 271.81 62.8525V61.874ZM280.47 62.615C279.226 61.437 278.513 59.7745 278.513 58.055C278.513 56.3355 279.226 54.673 280.47 53.495H281.819C280.432 54.7775 279.701 56.3545 279.701 58.055C279.701 59.7555 280.432 61.3325 281.819 62.615H280.47ZM282.87 61V55.87H283.867V56.459H283.905C284.048 56.0315 284.409 55.775 284.836 55.775C285.245 55.775 285.568 56.003 285.739 56.421H285.777C285.986 55.9935 286.347 55.775 286.812 55.775C287.534 55.775 287.99 56.2975 287.99 57.105V61H286.898V57.295C286.898 56.9435 286.736 56.725 286.48 56.725C286.185 56.725 285.976 57.0195 285.976 57.447V61H284.884V57.295C284.884 56.9435 284.732 56.725 284.475 56.725C284.171 56.725 283.962 57.0385 283.962 57.485V61H282.87ZM292.452 57.4375C292.452 57.0005 292.138 56.725 291.606 56.725C291.122 56.725 290.77 56.953 290.732 57.295H289.621C289.63 56.4115 290.466 55.775 291.625 55.775C292.803 55.775 293.592 56.44 293.592 57.428V59.1665C293.592 59.86 293.658 60.4775 293.782 61H292.68C292.623 60.81 292.575 60.582 292.537 60.335H292.49C292.214 60.8195 291.739 61.095 291.112 61.095C290.134 61.095 289.45 60.449 289.45 59.518C289.45 58.568 290.172 58.0455 291.682 57.9125L291.996 57.884C292.319 57.8555 292.452 57.7225 292.452 57.4375ZM291.35 60.1925C291.967 60.1925 292.452 59.6985 292.452 59.062V58.53C292.347 58.587 292.224 58.625 292.081 58.644L291.777 58.682C290.941 58.7865 290.59 59.0335 290.59 59.499C290.59 59.917 290.884 60.1925 291.35 60.1925ZM296.295 61H295.155V55.87H296.248V56.5635H296.286C296.59 56.079 297.055 55.8035 297.625 55.8035C298.461 55.8035 299.05 56.383 299.145 57.295H297.967C297.891 56.991 297.625 56.801 297.283 56.801C296.704 56.801 296.295 57.3425 296.295 58.131V61ZM300.519 61V53.97H301.659V58.093L303.588 55.87H304.994L303.151 57.941L305.127 61H303.816L302.391 58.7865L301.659 59.613V61H300.519ZM306.501 62.52L307.65 59.67H309.17L307.546 62.52H306.501ZM318.938 61V55.395H317.057V54.35H321.997V55.395H320.126V61H318.938ZM326.211 57.4375C326.211 57.0005 325.898 56.725 325.366 56.725C324.881 56.725 324.53 56.953 324.492 57.295H323.38C323.39 56.4115 324.226 55.775 325.385 55.775C326.563 55.775 327.351 56.44 327.351 57.428V59.1665C327.351 59.86 327.418 60.4775 327.541 61H326.439C326.382 60.81 326.335 60.582 326.297 60.335H326.249C325.974 60.8195 325.499 61.095 324.872 61.095C323.893 61.095 323.209 60.449 323.209 59.518C323.209 58.568 323.931 58.0455 325.442 57.9125L325.755 57.884C326.078 57.8555 326.211 57.7225 326.211 57.4375ZM325.109 60.1925C325.727 60.1925 326.211 59.6985 326.211 59.062V58.53C326.107 58.587 325.983 58.625 325.841 58.644L325.537 58.682C324.701 58.7865 324.349 59.0335 324.349 59.499C324.349 59.917 324.644 60.1925 325.109 60.1925ZM329.124 61V53.97H330.264V56.63H330.302C330.597 56.0695 331.062 55.775 331.68 55.775C332.886 55.775 333.741 56.8865 333.741 58.435C333.741 59.9835 332.886 61.095 331.68 61.095C331.024 61.095 330.54 60.7625 330.255 60.145H330.217V61H329.124ZM331.423 60.05C332.117 60.05 332.601 59.385 332.601 58.435C332.601 57.485 332.117 56.82 331.423 56.82C330.73 56.82 330.245 57.485 330.245 58.435C330.245 59.385 330.73 60.05 331.423 60.05ZM337.167 59.1665C337.167 59.8125 337.471 60.126 338.098 60.126C338.364 60.126 338.649 60.069 338.925 59.9455V60.8955C338.64 61.0285 338.269 61.095 337.88 61.095C336.664 61.095 336.027 60.43 336.027 59.1665V55.015H334.555V53.97H337.167V59.1665ZM341.419 58.7485C341.514 59.594 341.951 60.0975 342.635 60.0975C343.063 60.0975 343.405 59.898 343.519 59.575H344.602C344.431 60.487 343.642 61.095 342.635 61.095C341.258 61.095 340.279 59.974 340.279 58.4065C340.279 56.8675 341.22 55.775 342.531 55.775C343.813 55.775 344.697 56.8105 344.697 58.321V58.7485H341.419ZM342.531 56.744C341.98 56.744 341.581 57.162 341.448 57.8555H343.557C343.5 57.181 343.091 56.744 342.531 56.744ZM346.375 62.52L347.524 59.67H349.044L347.42 62.52H346.375ZM360.389 57.4375C360.389 57.0005 360.076 56.725 359.544 56.725C359.059 56.725 358.708 56.953 358.67 57.295H357.558C357.568 56.4115 358.404 55.775 359.563 55.775C360.741 55.775 361.529 56.44 361.529 57.428V59.1665C361.529 59.86 361.596 60.4775 361.719 61H360.617C360.56 60.81 360.513 60.582 360.475 60.335H360.427C360.152 60.8195 359.677 61.095 359.05 61.095C358.071 61.095 357.387 60.449 357.387 59.518C357.387 58.568 358.109 58.0455 359.62 57.9125L359.933 57.884C360.256 57.8555 360.389 57.7225 360.389 57.4375ZM359.287 60.1925C359.905 60.1925 360.389 59.6985 360.389 59.062V58.53C360.285 58.587 360.161 58.625 360.019 58.644L359.715 58.682C358.879 58.7865 358.527 59.0335 358.527 59.499C358.527 59.917 358.822 60.1925 359.287 60.1925ZM365.62 59.1665C365.62 59.8125 365.924 60.126 366.551 60.126C366.817 60.126 367.102 60.069 367.377 59.9455V60.8955C367.092 61.0285 366.722 61.095 366.332 61.095C365.116 61.095 364.48 60.43 364.48 59.1665V56.915H363.15V55.87H364.48V54.4545L365.62 54.255V55.87H367.282V56.915H365.62V59.1665ZM371.202 59.1665C371.202 59.8125 371.506 60.126 372.133 60.126C372.399 60.126 372.684 60.069 372.96 59.9455V60.8955C372.675 61.0285 372.304 61.095 371.915 61.095C370.699 61.095 370.062 60.43 370.062 59.1665V56.915H368.732V55.87H370.062V54.4545L371.202 54.255V55.87H372.865V56.915H371.202V59.1665ZM376.044 61H374.904V55.87H375.996V56.5635H376.034C376.338 56.079 376.804 55.8035 377.374 55.8035C378.21 55.8035 378.799 56.383 378.894 57.295H377.716C377.64 56.991 377.374 56.801 377.032 56.801C376.452 56.801 376.044 57.3425 376.044 58.131V61ZM380.22 61V59.955H381.882V55.5945L380.22 56.592V55.414L381.977 54.35H383.07V59.955H384.685V61H380.22ZM387.408 62.235H386.059C387.446 60.9525 388.177 59.3755 388.177 57.675C388.177 55.9745 387.446 54.3975 386.059 53.115H387.408C388.652 54.293 389.365 55.9555 389.365 57.675C389.365 59.3945 388.652 61.057 387.408 62.235Z" fill="#666666"/>
<path opacity="0.55" d="M671 316.281C691.59 316.281 708.282 299.59 708.282 279C708.282 258.41 691.59 241.718 671 241.718C650.41 241.718 633.719 258.41 633.719 279C633.719 299.59 650.41 316.281 671 316.281Z" fill="#D9E8D5"/>
<path d="M671 241.718L708.282 279L671 316.281L633.719 279L671 241.718Z" fill="#E4EFE0" stroke="#7BA873" stroke-width="1.16505"/>
<path d="M671 244.437C672.502 244.437 673.719 243.22 673.719 241.718C673.719 240.217 672.502 239 671 239C669.499 239 668.282 240.217 668.282 241.718C668.282 243.22 669.499 244.437 671 244.437Z" fill="#639A5B"/>
<path d="M708.282 281.718C709.783 281.718 711 280.501 711 279C711 277.499 709.783 276.281 708.282 276.281C706.78 276.281 705.563 277.499 705.563 279C705.563 280.501 706.78 281.718 708.282 281.718Z" fill="#639A5B"/>
<path d="M671 319C672.502 319 673.719 317.783 673.719 316.281C673.719 314.78 672.502 313.563 671 313.563C669.499 313.563 668.282 314.78 668.282 316.281C668.282 317.783 669.499 319 671 319Z" fill="#639A5B"/>
<path d="M633.718 281.718C635.22 281.718 636.437 280.501 636.437 279C636.437 277.499 635.22 276.281 633.718 276.281C632.217 276.281 631 277.499 631 279C631 280.501 632.217 281.718 633.718 281.718Z" fill="#639A5B"/>
<path d="M548.581 77H793.419" stroke="#F8BF87" stroke-width="3.50735" stroke-linecap="round"/>
<path d="M548.581 73.585C550.523 73.5852 552.077 75.1248 552.077 77C552.077 78.8752 550.523 80.4148 548.581 80.415C546.639 80.415 545.085 78.8754 545.085 77C545.085 75.1246 546.639 73.585 548.581 73.585Z" fill="#F8BF87" stroke="#F8BF87" stroke-width="1.16912"/>
<path d="M630.194 73.585C632.136 73.5852 633.69 75.1248 633.69 77C633.69 78.8752 632.136 80.4148 630.194 80.415C628.252 80.415 626.698 78.8754 626.698 77C626.698 75.1246 628.252 73.585 630.194 73.585Z" fill="#F8BF87" stroke="#F8BF87" stroke-width="1.16912"/>
<path d="M711.807 73.585C713.748 73.5852 715.303 75.1248 715.303 77C715.303 78.8752 713.748 80.4148 711.807 80.415C709.865 80.415 708.311 78.8754 708.311 77C708.311 75.1246 709.865 73.585 711.807 73.585Z" fill="#F8BF87" stroke="#F8BF87" stroke-width="1.16912"/>
<path d="M548.581 77H793.419" stroke="#F8BF87" stroke-width="3.50735" stroke-linecap="round"/>
<path d="M548.581 73.585C550.523 73.5852 552.077 75.1248 552.077 77C552.077 78.8752 550.523 80.4148 548.581 80.415C546.639 80.415 545.085 78.8754 545.085 77C545.085 75.1246 546.639 73.585 548.581 73.585Z" fill="#F28E2B" stroke="#F28E2B" stroke-width="1.16912"/>
<path d="M630.194 73.585C632.136 73.5852 633.69 75.1248 633.69 77C633.69 78.8752 632.136 80.4148 630.194 80.415C628.252 80.415 626.698 78.8754 626.698 77C626.698 75.1246 628.252 73.585 630.194 73.585Z" fill="#F28E2B" stroke="#F28E2B" stroke-width="1.16912"/>
<path d="M711.807 73.585C713.748 73.5852 715.303 75.1248 715.303 77C715.303 78.8752 713.748 80.4148 711.807 80.415C709.865 80.415 708.311 78.8754 708.311 77C708.311 75.1246 709.865 73.585 711.807 73.585Z" fill="#F28E2B" stroke="#F28E2B" stroke-width="1.16912"/>
<path d="M793.42 73.585C795.361 73.5852 796.916 75.1248 796.916 77C796.916 78.8752 795.361 80.4148 793.42 80.415C791.478 80.415 789.924 78.8754 789.924 77C789.924 75.1246 791.478 73.585 793.42 73.585Z" fill="#F28E2B" stroke="#F28E2B" stroke-width="1.16912"/>
<path d="M601.684 133.981H552.816C552.087 133.981 551.495 134.573 551.495 135.302V198.698C551.495 199.428 552.087 200.019 552.816 200.019H601.684C602.413 200.019 603.005 199.428 603.005 198.698V135.302C603.005 134.573 602.413 133.981 601.684 133.981Z" fill="#E3EDF9" stroke="#7E9CC9" stroke-width="0.990565"/>
<path d="M568.665 135.302V198.698" stroke="#AFC7E6" stroke-width="0.660377" stroke-dasharray="2.64 2.64"/>
<path d="M585.835 135.302V198.698" stroke="#AFC7E6" stroke-width="0.660377" stroke-dasharray="2.64 2.64"/>
<path d="M551.495 135.962C552.589 135.962 553.476 135.075 553.476 133.981C553.476 132.887 552.589 132 551.495 132C550.401 132 549.514 132.887 549.514 133.981C549.514 135.075 550.401 135.962 551.495 135.962Z" fill="#5B7FB5"/>
<path d="M568.665 135.962C569.759 135.962 570.646 135.075 570.646 133.981C570.646 132.887 569.759 132 568.665 132C567.571 132 566.684 132.887 566.684 133.981C566.684 135.075 567.571 135.962 568.665 135.962Z" fill="#5B7FB5"/>
<path d="M585.835 135.962C586.929 135.962 587.816 135.075 587.816 133.981C587.816 132.887 586.929 132 585.835 132C584.741 132 583.854 132.887 583.854 133.981C583.854 135.075 584.741 135.962 585.835 135.962Z" fill="#5B7FB5"/>
<path d="M603.005 135.962C604.099 135.962 604.986 135.075 604.986 133.981C604.986 132.887 604.099 132 603.005 132C601.91 132 601.023 132.887 601.023 133.981C601.023 135.075 601.91 135.962 603.005 135.962Z" fill="#5B7FB5"/>
<path d="M551.495 202C552.589 202 553.476 201.113 553.476 200.019C553.476 198.925 552.589 198.038 551.495 198.038C550.401 198.038 549.514 198.925 549.514 200.019C549.514 201.113 550.401 202 551.495 202Z" fill="#5B7FB5"/>
<path d="M568.665 202C569.759 202 570.646 201.113 570.646 200.019C570.646 198.925 569.759 198.038 568.665 198.038C567.571 198.038 566.684 198.925 566.684 200.019C566.684 201.113 567.571 202 568.665 202Z" fill="#5B7FB5"/>
<path d="M585.835 202C586.929 202 587.816 201.113 587.816 200.019C587.816 198.925 586.929 198.038 585.835 198.038C584.741 198.038 583.854 198.925 583.854 200.019C583.854 201.113 584.741 202 585.835 202Z" fill="#5B7FB5"/>
<path d="M603.005 202C604.099 202 604.986 201.113 604.986 200.019C604.986 198.925 604.099 198.038 603.005 198.038C601.91 198.038 601.023 198.925 601.023 200.019C601.023 201.113 601.91 202 603.005 202Z" fill="#5B7FB5"/>
<path d="M515.379 220.094C514.103 220.094 513.165 218.996 513.165 217.467C513.165 215.938 514.103 214.841 515.379 214.841C516.655 214.841 517.593 215.938 517.593 217.467C517.593 218.996 516.655 220.094 515.379 220.094ZM515.379 219.381C516.214 219.381 516.796 218.593 516.796 217.467C516.796 216.342 516.214 215.554 515.379 215.554C514.544 215.554 513.963 216.342 513.963 217.467C513.963 218.593 514.544 219.381 515.379 219.381ZM520.338 220H519.55V214.934H520.291V215.751H520.328C520.61 215.197 521.116 214.869 521.745 214.869C522.542 214.869 523.115 215.403 523.208 216.229H522.402C522.317 215.816 521.979 215.563 521.539 215.563C520.835 215.563 520.338 216.201 520.338 217.12V220ZM524.715 220V219.296H526.235V215.638H524.762V214.934H527.023V219.296H528.542V220H524.715ZM525.831 213.302C525.831 212.918 526.15 212.617 526.525 212.617C526.91 212.617 527.22 212.918 527.22 213.302C527.22 213.687 526.91 213.996 526.525 213.996C526.15 213.996 525.831 213.687 525.831 213.302ZM530.818 217.617C530.875 218.696 531.447 219.4 532.31 219.4C532.835 219.4 533.257 219.128 533.407 218.705H534.158C533.97 219.54 533.22 220.094 532.291 220.094C530.978 220.094 530.04 218.987 530.04 217.439C530.04 215.919 530.931 214.841 532.188 214.841C533.407 214.841 534.252 215.854 534.252 217.317V217.617H530.818ZM532.188 215.525C531.484 215.525 530.978 216.098 530.846 216.998H533.473C533.435 216.107 532.901 215.525 532.188 215.525ZM536.18 220V214.934H536.921V215.704H536.959C537.231 215.16 537.728 214.841 538.366 214.841C539.304 214.841 539.923 215.535 539.923 216.576V220H539.135V216.642C539.135 215.948 538.769 215.507 538.188 215.507C537.475 215.507 536.968 216.154 536.968 217.073V220H536.18ZM543.569 218.302C543.569 219.062 543.897 219.428 544.572 219.428C544.854 219.428 545.135 219.362 545.417 219.221V219.878C545.154 220.019 544.816 220.094 544.441 220.094C543.353 220.094 542.781 219.475 542.781 218.302V215.638H541.355V214.934H542.781V213.471L543.569 213.34V214.934H545.323V215.638H543.569V218.302ZM550.179 216.388C550.179 215.844 549.785 215.507 549.137 215.507C548.537 215.507 548.087 215.797 548.03 216.229H547.261C547.299 215.422 548.087 214.841 549.137 214.841C550.235 214.841 550.966 215.46 550.966 216.398V218.19C550.966 218.977 551.023 219.559 551.154 220H550.404C550.329 219.794 550.272 219.522 550.235 219.193H550.197C549.906 219.765 549.372 220.094 548.687 220.094C547.74 220.094 547.073 219.465 547.073 218.555C547.073 217.627 547.768 217.12 549.194 216.989L549.663 216.942C550.019 216.904 550.179 216.735 550.179 216.388ZM550.179 217.326C550.066 217.411 549.916 217.458 549.728 217.486L549.278 217.533C548.293 217.655 547.861 217.955 547.861 218.537C547.861 219.09 548.246 219.447 548.828 219.447C549.578 219.447 550.179 218.837 550.179 218.03V217.326ZM554.931 218.302C554.931 219.062 555.259 219.428 555.935 219.428C556.216 219.428 556.497 219.362 556.779 219.221V219.878C556.516 220.019 556.179 220.094 555.803 220.094C554.715 220.094 554.143 219.475 554.143 218.302V215.638H552.717V214.934H554.143V213.471L554.931 213.34V214.934H556.685V215.638H554.931V218.302ZM558.464 220V219.296H559.983V215.638H558.511V214.934H560.771V219.296H562.291V220H558.464ZM559.58 213.302C559.58 212.918 559.899 212.617 560.274 212.617C560.659 212.617 560.968 212.918 560.968 213.302C560.968 213.687 560.659 213.996 560.274 213.996C559.899 213.996 559.58 213.687 559.58 213.302ZM565.89 220.094C564.614 220.094 563.676 218.996 563.676 217.467C563.676 215.938 564.614 214.841 565.89 214.841C567.165 214.841 568.104 215.938 568.104 217.467C568.104 218.996 567.165 220.094 565.89 220.094ZM565.89 219.381C566.725 219.381 567.306 218.593 567.306 217.467C567.306 216.342 566.725 215.554 565.89 215.554C565.055 215.554 564.473 216.342 564.473 217.467C564.473 218.593 565.055 219.381 565.89 219.381ZM569.929 220V214.934H570.67V215.704H570.708C570.98 215.16 571.477 214.841 572.115 214.841C573.053 214.841 573.672 215.535 573.672 216.576V220H572.884V216.642C572.884 215.948 572.518 215.507 571.937 215.507C571.224 215.507 570.717 216.154 570.717 217.073V220H569.929ZM576.53 219.353C576.53 218.949 576.858 218.63 577.252 218.63C577.655 218.63 577.974 218.949 577.974 219.353C577.974 219.756 577.655 220.075 577.252 220.075C576.858 220.075 576.53 219.756 576.53 219.353ZM576.53 215.582C576.53 215.178 576.858 214.859 577.252 214.859C577.655 214.859 577.974 215.178 577.974 215.582C577.974 215.976 577.655 216.304 577.252 216.304C576.858 216.304 576.53 215.976 576.53 215.582ZM586.41 220V213.049H587.535V215.554H587.573C587.845 215.094 588.267 214.841 588.83 214.841C589.749 214.841 590.349 215.525 590.349 216.576V220H589.224V216.67C589.224 216.116 588.952 215.779 588.501 215.779C587.939 215.779 587.535 216.304 587.535 217.045V220H586.41ZM594.239 220.094C592.925 220.094 591.959 218.987 591.959 217.467C591.959 215.948 592.925 214.841 594.239 214.841C595.552 214.841 596.518 215.948 596.518 217.467C596.518 218.987 595.552 220.094 594.239 220.094ZM594.239 219.062C594.924 219.062 595.393 218.415 595.393 217.467C595.393 216.52 594.924 215.872 594.239 215.872C593.554 215.872 593.085 216.52 593.085 217.467C593.085 218.415 593.554 219.062 594.239 219.062ZM599.254 220H598.128V214.934H599.207V215.619H599.244C599.545 215.141 600.004 214.869 600.567 214.869C601.393 214.869 601.974 215.441 602.068 216.342H600.905C600.83 216.041 600.567 215.854 600.229 215.854C599.657 215.854 599.254 216.388 599.254 217.167V220ZM603.406 220V218.968H604.813V215.966H603.453V214.934H605.939V218.968H607.346V220H603.406ZM604.428 213.424C604.428 212.946 604.813 212.57 605.282 212.57C605.76 212.57 606.136 212.946 606.136 213.424C606.136 213.893 605.76 214.278 605.282 214.278C604.813 214.278 604.428 213.893 604.428 213.424ZM608.909 220V219.109L611.301 215.919H609.002V214.934H612.689V215.826L610.297 219.015H612.849V220H608.909ZM616.625 220.094C615.312 220.094 614.346 218.987 614.346 217.467C614.346 215.948 615.312 214.841 616.625 214.841C617.939 214.841 618.905 215.948 618.905 217.467C618.905 218.987 617.939 220.094 616.625 220.094ZM616.625 219.062C617.31 219.062 617.779 218.415 617.779 217.467C617.779 216.52 617.31 215.872 616.625 215.872C615.941 215.872 615.472 216.52 615.472 217.467C615.472 218.415 615.941 219.062 616.625 219.062ZM620.44 220V214.934H621.518V215.6H621.556C621.819 215.113 622.269 214.841 622.851 214.841C623.779 214.841 624.38 215.525 624.38 216.576V220H623.254V216.67C623.254 216.116 622.982 215.779 622.532 215.779C621.969 215.779 621.565 216.304 621.565 217.045V220H620.44ZM628.11 218.19C628.11 218.827 628.41 219.137 629.029 219.137C629.291 219.137 629.573 219.081 629.845 218.959V219.897C629.564 220.028 629.198 220.094 628.813 220.094C627.612 220.094 626.984 219.437 626.984 218.19V215.966H625.671V214.934H626.984V213.537L628.11 213.34V214.934H629.751V215.966H628.11V218.19ZM634.307 216.482C634.307 216.051 633.997 215.779 633.472 215.779C632.993 215.779 632.646 216.004 632.609 216.342H631.511C631.52 215.469 632.346 214.841 633.49 214.841C634.654 214.841 635.432 215.497 635.432 216.473V218.19C635.432 218.874 635.498 219.484 635.62 220H634.532C634.475 219.812 634.428 219.587 634.391 219.343H634.344C634.072 219.822 633.603 220.094 632.984 220.094C632.018 220.094 631.342 219.456 631.342 218.537C631.342 217.599 632.055 217.083 633.547 216.951L633.856 216.923C634.175 216.895 634.307 216.764 634.307 216.482ZM633.218 219.203C633.828 219.203 634.307 218.715 634.307 218.086V217.561C634.203 217.617 634.081 217.655 633.941 217.674L633.64 217.711C632.815 217.814 632.468 218.058 632.468 218.518C632.468 218.931 632.759 219.203 633.218 219.203ZM639.612 218.19C639.612 218.827 639.913 219.137 640.532 219.137C640.794 219.137 641.076 219.081 641.348 218.959V219.897C641.066 220.028 640.701 220.094 640.316 220.094C639.115 220.094 638.487 219.437 638.487 218.19V214.09H637.033V213.058H639.612V218.19Z" fill="black"/>
<path d="M789.184 133.981H740.316C739.586 133.981 738.995 134.573 738.995 135.302V198.698C738.995 199.428 739.586 200.019 740.316 200.019H789.184C789.913 200.019 790.505 199.428 790.505 198.698V135.302C790.505 134.573 789.913 133.981 789.184 133.981Z" fill="#E3EDF9" stroke="#7E9CC9" stroke-width="0.990565"/>
<path d="M740.316 155.773H789.184" stroke="#AFC7E6" stroke-width="0.660377" stroke-dasharray="2.64 2.64"/>
<path d="M740.316 178.226H789.184" stroke="#AFC7E6" stroke-width="0.660377" stroke-dasharray="2.64 2.64"/>
<path d="M738.995 135.962C740.089 135.962 740.976 135.075 740.976 133.981C740.976 132.887 740.089 132 738.995 132C737.901 132 737.014 132.887 737.014 133.981C737.014 135.075 737.901 135.962 738.995 135.962Z" fill="#5B7FB5"/>
<path d="M738.995 157.755C740.089 157.755 740.976 156.868 740.976 155.774C740.976 154.679 740.089 153.792 738.995 153.792C737.901 153.792 737.014 154.679 737.014 155.774C737.014 156.868 737.901 157.755 738.995 157.755Z" fill="#5B7FB5"/>
<path d="M738.995 180.208C740.089 180.208 740.976 179.321 740.976 178.226C740.976 177.132 740.089 176.245 738.995 176.245C737.901 176.245 737.014 177.132 737.014 178.226C737.014 179.321 737.901 180.208 738.995 180.208Z" fill="#5B7FB5"/>
<path d="M738.995 202C740.089 202 740.976 201.113 740.976 200.019C740.976 198.925 740.089 198.038 738.995 198.038C737.901 198.038 737.014 198.925 737.014 200.019C737.014 201.113 737.901 202 738.995 202Z" fill="#5B7FB5"/>
<path d="M790.505 135.962C791.599 135.962 792.486 135.075 792.486 133.981C792.486 132.887 791.599 132 790.505 132C789.41 132 788.523 132.887 788.523 133.981C788.523 135.075 789.41 135.962 790.505 135.962Z" fill="#5B7FB5"/>
<path d="M790.505 157.755C791.599 157.755 792.486 156.868 792.486 155.774C792.486 154.679 791.599 153.792 790.505 153.792C789.41 153.792 788.523 154.679 788.523 155.774C788.523 156.868 789.41 157.755 790.505 157.755Z" fill="#5B7FB5"/>
<path d="M790.505 180.208C791.599 180.208 792.486 179.321 792.486 178.226C792.486 177.132 791.599 176.245 790.505 176.245C789.41 176.245 788.523 177.132 788.523 178.226C788.523 179.321 789.41 180.208 790.505 180.208Z" fill="#5B7FB5"/>
<path d="M790.505 202C791.599 202 792.486 201.113 792.486 200.019C792.486 198.925 791.599 198.038 790.505 198.038C789.41 198.038 788.523 198.925 788.523 200.019C788.523 201.113 789.41 202 790.505 202Z" fill="#5B7FB5"/>
<path d="M708.504 220.094C707.228 220.094 706.29 218.996 706.29 217.467C706.29 215.938 707.228 214.841 708.504 214.841C709.78 214.841 710.718 215.938 710.718 217.467C710.718 218.996 709.78 220.094 708.504 220.094ZM708.504 219.381C709.339 219.381 709.92 218.593 709.92 217.467C709.92 216.342 709.339 215.554 708.504 215.554C707.669 215.554 707.087 216.342 707.087 217.467C707.087 218.593 707.669 219.381 708.504 219.381ZM713.463 220H712.675V214.934H713.416V215.751H713.453C713.735 215.197 714.241 214.869 714.87 214.869C715.667 214.869 716.239 215.403 716.333 216.229H715.526C715.442 215.816 715.104 215.563 714.663 215.563C713.96 215.563 713.463 216.201 713.463 217.12V220ZM717.84 220V219.296H719.359V215.638H717.887V214.934H720.147V219.296H721.667V220H717.84ZM718.956 213.302C718.956 212.918 719.275 212.617 719.65 212.617C720.035 212.617 720.344 212.918 720.344 213.302C720.344 213.687 720.035 213.996 719.65 213.996C719.275 213.996 718.956 213.687 718.956 213.302ZM723.943 217.617C723.999 218.696 724.572 219.4 725.435 219.4C725.96 219.4 726.382 219.128 726.532 218.705H727.283C727.095 219.54 726.344 220.094 725.416 220.094C724.102 220.094 723.164 218.987 723.164 217.439C723.164 215.919 724.056 214.841 725.313 214.841C726.532 214.841 727.376 215.854 727.376 217.317V217.617H723.943ZM725.313 215.525C724.609 215.525 724.102 216.098 723.971 216.998H726.598C726.56 216.107 726.026 215.525 725.313 215.525ZM729.305 220V214.934H730.046V215.704H730.084C730.356 215.16 730.853 214.841 731.491 214.841C732.429 214.841 733.048 215.535 733.048 216.576V220H732.26V216.642C732.26 215.948 731.894 215.507 731.313 215.507C730.6 215.507 730.093 216.154 730.093 217.073V220H729.305ZM736.694 218.302C736.694 219.062 737.022 219.428 737.697 219.428C737.979 219.428 738.26 219.362 738.542 219.221V219.878C738.279 220.019 737.941 220.094 737.566 220.094C736.478 220.094 735.906 219.475 735.906 218.302V215.638H734.48V214.934H735.906V213.471L736.694 213.34V214.934H738.448V215.638H736.694V218.302ZM743.303 216.388C743.303 215.844 742.909 215.507 742.262 215.507C741.662 215.507 741.211 215.797 741.155 216.229H740.386C740.423 215.422 741.211 214.841 742.262 214.841C743.36 214.841 744.091 215.46 744.091 216.398V218.19C744.091 218.977 744.148 219.559 744.279 220H743.528C743.453 219.794 743.397 219.522 743.36 219.193H743.322C743.031 219.765 742.497 220.094 741.812 220.094C740.864 220.094 740.198 219.465 740.198 218.555C740.198 217.627 740.892 217.12 742.318 216.989L742.787 216.942C743.144 216.904 743.303 216.735 743.303 216.388ZM743.303 217.326C743.191 217.411 743.041 217.458 742.853 217.486L742.403 217.533C741.418 217.655 740.986 217.955 740.986 218.537C740.986 219.09 741.371 219.447 741.952 219.447C742.703 219.447 743.303 218.837 743.303 218.03V217.326ZM748.056 218.302C748.056 219.062 748.384 219.428 749.059 219.428C749.341 219.428 749.622 219.362 749.904 219.221V219.878C749.641 220.019 749.303 220.094 748.928 220.094C747.84 220.094 747.268 219.475 747.268 218.302V215.638H745.842V214.934H747.268V213.471L748.056 213.34V214.934H749.81V215.638H748.056V218.302ZM751.589 220V219.296H753.108V215.638H751.635V214.934H753.896V219.296H755.416V220H751.589ZM752.705 213.302C752.705 212.918 753.024 212.617 753.399 212.617C753.784 212.617 754.093 212.918 754.093 213.302C754.093 213.687 753.784 213.996 753.399 213.996C753.024 213.996 752.705 213.687 752.705 213.302ZM759.014 220.094C757.739 220.094 756.801 218.996 756.801 217.467C756.801 215.938 757.739 214.841 759.014 214.841C760.29 214.841 761.228 215.938 761.228 217.467C761.228 218.996 760.29 220.094 759.014 220.094ZM759.014 219.381C759.849 219.381 760.431 218.593 760.431 217.467C760.431 216.342 759.849 215.554 759.014 215.554C758.18 215.554 757.598 216.342 757.598 217.467C757.598 218.593 758.18 219.381 759.014 219.381ZM763.054 220V214.934H763.795V215.704H763.833C764.105 215.16 764.602 214.841 765.24 214.841C766.178 214.841 766.797 215.535 766.797 216.576V220H766.009V216.642C766.009 215.948 765.643 215.507 765.061 215.507C764.348 215.507 763.842 216.154 763.842 217.073V220H763.054ZM769.654 219.353C769.654 218.949 769.983 218.63 770.377 218.63C770.78 218.63 771.099 218.949 771.099 219.353C771.099 219.756 770.78 220.075 770.377 220.075C769.983 220.075 769.654 219.756 769.654 219.353ZM769.654 215.582C769.654 215.178 769.983 214.859 770.377 214.859C770.78 214.859 771.099 215.178 771.099 215.582C771.099 215.976 770.78 216.304 770.377 216.304C769.983 216.304 769.654 215.976 769.654 215.582ZM780.707 220L779.206 214.934H780.332L781.448 218.827H781.486L782.602 214.934H783.709L782.208 220H780.707ZM786.313 217.777C786.407 218.612 786.838 219.109 787.514 219.109C787.936 219.109 788.274 218.912 788.386 218.593H789.455C789.287 219.493 788.508 220.094 787.514 220.094C786.153 220.094 785.187 218.987 785.187 217.439C785.187 215.919 786.116 214.841 787.41 214.841C788.677 214.841 789.549 215.863 789.549 217.355V217.777H786.313ZM787.41 215.797C786.866 215.797 786.472 216.21 786.341 216.895H788.424C788.367 216.229 787.964 215.797 787.41 215.797ZM792.379 220H791.253V214.934H792.332V215.619H792.369C792.669 215.141 793.129 214.869 793.692 214.869C794.517 214.869 795.099 215.441 795.193 216.342H794.03C793.955 216.041 793.692 215.854 793.354 215.854C792.782 215.854 792.379 216.388 792.379 217.167V220ZM798.735 218.19C798.735 218.827 799.035 219.137 799.654 219.137C799.917 219.137 800.199 219.081 800.471 218.959V219.897C800.189 220.028 799.823 220.094 799.439 220.094C798.238 220.094 797.609 219.437 797.609 218.19V215.966H796.296V214.934H797.609V213.537L798.735 213.34V214.934H800.377V215.966H798.735V218.19ZM802.155 220V218.968H803.563V215.966H802.202V214.934H804.688V218.968H806.095V220H802.155ZM803.178 213.424C803.178 212.946 803.563 212.57 804.032 212.57C804.51 212.57 804.885 212.946 804.885 213.424C804.885 213.893 804.51 214.278 804.032 214.278C803.563 214.278 803.178 213.893 803.178 213.424ZM810.679 218.593H811.823C811.636 219.484 810.81 220.094 809.816 220.094C808.465 220.094 807.471 218.959 807.471 217.439C807.471 215.929 808.446 214.841 809.797 214.841C810.81 214.841 811.617 215.45 811.758 216.342H810.632C810.51 216.051 810.2 215.872 809.797 215.872C809.056 215.872 808.596 216.482 808.596 217.43C808.596 218.415 809.084 219.062 809.863 219.062C810.266 219.062 810.576 218.884 810.679 218.593ZM816.294 216.482C816.294 216.051 815.985 215.779 815.459 215.779C814.981 215.779 814.634 216.004 814.596 216.342H813.499C813.508 215.469 814.334 214.841 815.478 214.841C816.641 214.841 817.42 215.497 817.42 216.473V218.19C817.42 218.874 817.486 219.484 817.608 220H816.519C816.463 219.812 816.416 219.587 816.379 219.343H816.332C816.06 219.822 815.591 220.094 814.972 220.094C814.005 220.094 813.33 219.456 813.33 218.537C813.33 217.599 814.043 217.083 815.534 216.951L815.844 216.923C816.163 216.895 816.294 216.764 816.294 216.482ZM815.206 219.203C815.816 219.203 816.294 218.715 816.294 218.086V217.561C816.191 217.617 816.069 217.655 815.928 217.674L815.628 217.711C814.803 217.814 814.456 218.058 814.456 218.518C814.456 218.931 814.746 219.203 815.206 219.203ZM821.488 218.19C821.488 218.827 821.788 219.137 822.407 219.137C822.67 219.137 822.951 219.081 823.223 218.959V219.897C822.942 220.028 822.576 220.094 822.191 220.094C820.99 220.094 820.362 219.437 820.362 218.19V214.09H818.908V213.058H821.488V218.19Z" fill="black"/>
<defs>
<clipPath id="clip0_45_468">
<rect x="241" y="70" width="146" height="216" rx="6.7619" fill="white"/>
</clipPath>
<clipPath id="clip1_45_468">
<path d="M241 90.2856H289.667V286H241V90.2856Z" fill="white"/>
</clipPath>
<clipPath id="clip2_45_468">
<path d="M289.667 90.2856H338.333V286H289.667V90.2856Z" fill="white"/>
</clipPath>
<clipPath id="clip3_45_468">
<rect width="48.6667" height="195.714" fill="white" transform="translate(338.333 90.2856)"/>
</clipPath>
</defs>
</svg>
