<svg width="890" height="365" viewBox="0 0 890 365" fill="none" xmlns="http://www.w3.org/2000/svg">
<path d="M67 60L143.381 60" stroke="#C0C0C0" stroke-width="2.08052" stroke-linecap="round"/>
<rect x="75.9133" y="130.913" width="58.1733" height="58.1733" rx="4.86588" fill="#D4D4D4" stroke="#C0C0C0" stroke-width="1.82668"/>
<circle cx="105" cy="260" r="28.9655" fill="#D4D4D4" stroke="#C0C0C0" stroke-width="2.06897"/>
<g clip-path="url(#clip0_45_559)">
<rect x="249" y="56" width="146" height="213" rx="6.7619" fill="white"/>
<mask id="path-6-inside-1_45_559" fill="white">
<path d="M249 56H395V76.2857H249V56Z"/>
</mask>
<path d="M249 56H395V76.2857H249V56Z" fill="#EDEDED"/>
<path d="M395 76.2857V74.9333H249V76.2857V77.6381H395V76.2857Z" fill="#E6E6E6" mask="url(#path-6-inside-1_45_559)"/>
<path d="M310.304 64.2581V63.1213H315.66V64.2581H313.663V69.6428H312.3V64.2581H310.304ZM317.246 69.7352C316.934 69.7352 316.656 69.681 316.411 69.5728C316.167 69.4624 315.974 69.3 315.832 69.0856C315.692 68.869 315.622 68.5994 315.622 68.2767C315.622 68.005 315.672 67.7768 315.771 67.5921C315.871 67.4074 316.007 67.2588 316.179 67.1463C316.351 67.0338 316.546 66.9489 316.765 66.8915C316.986 66.8342 317.217 66.7939 317.459 66.7705C317.744 66.7408 317.973 66.7132 318.147 66.6877C318.321 66.6601 318.447 66.6198 318.526 66.5667C318.604 66.5137 318.644 66.4351 318.644 66.3311V66.312C318.644 66.1103 318.58 65.9543 318.453 65.8439C318.327 65.7335 318.149 65.6783 317.918 65.6783C317.674 65.6783 317.479 65.7324 317.335 65.8407C317.191 65.9468 317.095 66.0806 317.048 66.2419L315.794 66.14C315.857 65.8428 315.983 65.586 316.169 65.3694C316.356 65.1508 316.597 64.9831 316.892 64.8663C317.19 64.7474 317.533 64.688 317.924 64.688C318.196 64.688 318.456 64.7198 318.704 64.7835C318.955 64.8472 319.177 64.9459 319.37 65.0796C319.565 65.2134 319.719 65.3853 319.831 65.5955C319.944 65.8036 320 66.053 320 66.3438V69.6428H318.714V68.9646H318.676C318.597 69.1174 318.492 69.2522 318.36 69.369C318.229 69.4836 318.071 69.5738 317.886 69.6396C317.701 69.7033 317.488 69.7352 317.246 69.7352ZM317.634 68.799C317.834 68.799 318.01 68.7597 318.163 68.6811C318.316 68.6005 318.436 68.4922 318.523 68.3563C318.61 68.2205 318.653 68.0666 318.653 67.8946V67.3756C318.611 67.4032 318.552 67.4286 318.478 67.452C318.406 67.4732 318.324 67.4934 318.233 67.5125C318.142 67.5295 318.05 67.5454 317.959 67.5603C317.868 67.573 317.785 67.5847 317.711 67.5953C317.551 67.6186 317.412 67.6558 317.294 67.7067C317.175 67.7577 317.082 67.8267 317.016 67.9137C316.951 67.9986 316.918 68.1048 316.918 68.2322C316.918 68.4168 316.985 68.558 317.118 68.6557C317.254 68.7512 317.426 68.799 317.634 68.799ZM321.078 69.6428V63.1213H322.435V65.5732H322.476C322.536 65.4416 322.621 65.3079 322.734 65.172C322.849 65.034 322.997 64.9194 323.18 64.8281C323.364 64.7347 323.594 64.688 323.868 64.688C324.224 64.688 324.553 64.7814 324.855 64.9682C325.156 65.1529 325.397 65.432 325.578 65.8057C325.758 66.1772 325.848 66.6432 325.848 67.2036C325.848 67.7492 325.76 68.2099 325.584 68.5856C325.41 68.9592 325.172 69.2427 324.871 69.4358C324.571 69.6269 324.236 69.7224 323.864 69.7224C323.601 69.7224 323.377 69.6789 323.193 69.5919C323.01 69.5048 322.86 69.3955 322.744 69.2639C322.627 69.1301 322.538 68.9953 322.476 68.8595H322.416V69.6428H321.078ZM322.406 67.1972C322.406 67.4881 322.446 67.7418 322.527 67.9583C322.608 68.1748 322.724 68.3436 322.877 68.4646C323.03 68.5835 323.216 68.6429 323.435 68.6429C323.655 68.6429 323.842 68.5824 323.995 68.4614C324.148 68.3383 324.264 68.1685 324.342 67.9519C324.423 67.7333 324.463 67.4817 324.463 67.1972C324.463 66.9149 324.424 66.6665 324.345 66.4521C324.267 66.2377 324.151 66.07 323.998 65.949C323.845 65.828 323.657 65.7675 323.435 65.7675C323.214 65.7675 323.027 65.8258 322.874 65.9426C322.723 66.0594 322.608 66.2249 322.527 66.4394C322.446 66.6538 322.406 66.9064 322.406 67.1972ZM328.11 63.1213V69.6428H326.753V63.1213H328.11ZM331.426 69.7384C330.923 69.7384 330.489 69.6365 330.126 69.4327C329.766 69.2267 329.487 68.9359 329.292 68.5601C329.097 68.1823 328.999 67.7354 328.999 67.2195C328.999 66.7164 329.097 66.2748 329.292 65.8948C329.487 65.5148 329.762 65.2187 330.117 65.0064C330.474 64.7941 330.892 64.688 331.372 64.688C331.694 64.688 331.995 64.74 332.273 64.844C332.553 64.9459 332.797 65.0998 333.005 65.3057C333.215 65.5117 333.379 65.7706 333.496 66.0827C333.612 66.3927 333.671 66.7557 333.671 67.1718V67.5443H329.541V66.7037H332.394C332.394 66.5084 332.351 66.3353 332.266 66.1846C332.181 66.0339 332.064 65.9161 331.913 65.8312C331.764 65.7441 331.591 65.7006 331.394 65.7006C331.188 65.7006 331.005 65.7484 330.846 65.8439C330.689 65.9373 330.566 66.0636 330.477 66.2228C330.388 66.3799 330.342 66.5551 330.34 66.7482V67.5475C330.34 67.7895 330.384 67.9986 330.474 68.1748C330.565 68.351 330.693 68.4869 330.859 68.5824C331.024 68.678 331.221 68.7257 331.448 68.7257C331.599 68.7257 331.737 68.7045 331.862 68.662C331.987 68.6196 332.094 68.5559 332.184 68.471C332.273 68.3861 332.341 68.282 332.387 68.1589L333.642 68.2417C333.578 68.5432 333.448 68.8064 333.25 69.0314C333.055 69.2543 332.802 69.4284 332.492 69.5537C332.185 69.6768 331.829 69.7384 331.426 69.7384Z" fill="#999999"/>
<g clip-path="url(#clip1_45_559)">
<mask id="path-9-inside-2_45_559" fill="white">
<path d="M249 76.2858H297.667V269H249V76.2858Z"/>
</mask>
<mask id="path-11-outside-3_45_559" maskUnits="userSpaceOnUse" x="249" y="76.2858" width="49" height="20" fill="black">
<rect fill="white" x="249" y="76.2858" width="49" height="20"/>
<path d="M249 76.2858H297.667V95.2858H249V76.2858Z"/>
</mask>
<path d="M249 76.2858H297.667V95.2858H249V76.2858Z" fill="#F7F7F7"/>
<path d="M297.667 95.2858V94.2858H249V95.2858V96.2858H297.667V95.2858Z" fill="#E6E6E6" mask="url(#path-11-outside-3_45_559)"/>
<path d="M265.155 90.3781C264.843 90.3781 264.565 90.324 264.321 90.2157C264.077 90.1053 263.883 89.9429 263.741 89.7285C263.601 89.512 263.531 89.2424 263.531 88.9197C263.531 88.6479 263.581 88.4197 263.681 88.235C263.781 88.0504 263.916 87.9017 264.088 87.7892C264.26 87.6767 264.456 87.5918 264.674 87.5345C264.895 87.4772 265.126 87.4368 265.368 87.4135C265.653 87.3838 265.882 87.3562 266.056 87.3307C266.23 87.3031 266.357 87.2628 266.435 87.2097C266.514 87.1566 266.553 87.0781 266.553 86.974V86.9549C266.553 86.7533 266.489 86.5972 266.362 86.4868C266.237 86.3764 266.058 86.3212 265.827 86.3212C265.583 86.3212 265.389 86.3754 265.244 86.4836C265.1 86.5898 265.004 86.7235 264.958 86.8849L263.703 86.783C263.767 86.4858 263.892 86.2289 264.079 86.0124C264.266 85.7937 264.507 85.626 264.802 85.5092C265.099 85.3904 265.443 85.3309 265.833 85.3309C266.105 85.3309 266.365 85.3628 266.614 85.4264C266.864 85.4901 267.086 85.5888 267.279 85.7226C267.474 85.8563 267.628 86.0283 267.741 86.2385C267.853 86.4465 267.91 86.6959 267.91 86.9868V90.2858H266.623V89.6075H266.585C266.506 89.7603 266.401 89.8952 266.27 90.0119C266.138 90.1265 265.98 90.2168 265.795 90.2826C265.61 90.3463 265.397 90.3781 265.155 90.3781ZM265.544 89.4419C265.743 89.4419 265.919 89.4026 266.072 89.3241C266.225 89.2434 266.345 89.1352 266.432 88.9993C266.519 88.8634 266.563 88.7095 266.563 88.5376V88.0185C266.52 88.0461 266.462 88.0716 266.387 88.0949C266.315 88.1162 266.234 88.1363 266.142 88.1554C266.051 88.1724 265.96 88.1883 265.868 88.2032C265.777 88.2159 265.694 88.2276 265.62 88.2382C265.461 88.2616 265.322 88.2987 265.203 88.3497C265.084 88.4006 264.992 88.4696 264.926 88.5567C264.86 88.6416 264.827 88.7477 264.827 88.8751C264.827 89.0598 264.894 89.201 265.028 89.2986C265.164 89.3941 265.336 89.4419 265.544 89.4419ZM271.564 85.3946V86.4136H268.618V85.3946H271.564ZM269.287 84.2228H270.643V88.7828C270.643 88.908 270.662 89.0057 270.701 89.0757C270.739 89.1436 270.792 89.1914 270.86 89.219C270.93 89.2466 271.011 89.2604 271.102 89.2604C271.166 89.2604 271.229 89.2551 271.293 89.2445C271.357 89.2317 271.405 89.2222 271.439 89.2158L271.653 90.2253C271.585 90.2465 271.489 90.2709 271.366 90.2985C271.243 90.3282 271.093 90.3463 270.917 90.3526C270.59 90.3654 270.304 90.3219 270.057 90.2221C269.813 90.1223 269.623 89.9673 269.487 89.7572C269.352 89.547 269.285 89.2816 269.287 88.9611V84.2228ZM275.049 85.3946V86.4136H272.103V85.3946H275.049ZM272.772 84.2228H274.129V88.7828C274.129 88.908 274.148 89.0057 274.186 89.0757C274.224 89.1436 274.277 89.1914 274.345 89.219C274.415 89.2466 274.496 89.2604 274.587 89.2604C274.651 89.2604 274.715 89.2551 274.778 89.2445C274.842 89.2317 274.891 89.2222 274.925 89.2158L275.138 90.2253C275.07 90.2465 274.975 90.2709 274.851 90.2985C274.728 90.3282 274.579 90.3463 274.402 90.3526C274.076 90.3654 273.789 90.3219 273.543 90.2221C273.299 90.1223 273.109 89.9673 272.973 89.7572C272.837 89.547 272.77 89.2816 272.772 88.9611V84.2228ZM275.933 90.2858V85.3946H277.248V86.248H277.299C277.388 85.9444 277.537 85.7152 277.748 85.5602C277.958 85.4031 278.2 85.3245 278.474 85.3245C278.542 85.3245 278.615 85.3288 278.693 85.3373C278.772 85.3458 278.841 85.3574 278.9 85.3723V86.576C278.837 86.5569 278.749 86.5399 278.636 86.525C278.524 86.5102 278.421 86.5028 278.327 86.5028C278.128 86.5028 277.949 86.5463 277.792 86.6333C277.637 86.7182 277.514 86.8371 277.423 86.99C277.334 87.1428 277.289 87.319 277.289 87.5186V90.2858H275.933ZM282.426 83.7642V90.2858H281.047V85.073H281.009L279.516 86.0092V84.7864L281.13 83.7642H282.426Z" fill="black"/>
<rect x="258.333" y="110.286" width="30" height="13" rx="2" fill="#FDEBD8"/>
<path d="M264.633 120.286L263.073 115.444H263.835L265.117 119.497H265.153L266.4 115.444H267.144L265.62 120.286H264.633ZM271.759 116.833C271.759 116.313 271.382 115.991 270.763 115.991C270.189 115.991 269.759 116.268 269.705 116.681H268.97C269.006 115.91 269.759 115.354 270.763 115.354C271.812 115.354 272.512 115.946 272.512 116.842V118.555C272.512 119.308 272.566 119.864 272.691 120.286H271.974C271.902 120.088 271.848 119.828 271.812 119.515H271.777C271.499 120.062 270.987 120.375 270.333 120.375C269.427 120.375 268.79 119.775 268.79 118.905C268.79 118.017 269.454 117.533 270.817 117.407L271.265 117.362C271.606 117.327 271.759 117.165 271.759 116.833ZM271.759 117.73C271.651 117.811 271.508 117.856 271.328 117.883L270.898 117.927C269.956 118.044 269.544 118.331 269.544 118.887C269.544 119.416 269.911 119.757 270.467 119.757C271.185 119.757 271.759 119.174 271.759 118.403V117.73ZM276.221 118.663C276.221 119.389 276.535 119.739 277.18 119.739C277.449 119.739 277.718 119.676 277.987 119.541V120.169C277.736 120.304 277.413 120.375 277.055 120.375C276.014 120.375 275.467 119.784 275.467 118.663V114.323H274.024V113.65H276.221V118.663ZM279.49 120.286V119.604H281.122V114.834L279.49 115.883V115.103L281.185 114.009H281.902V119.604H283.49V120.286H279.49Z" fill="#F28E2B"/>
<rect x="258.333" y="138.286" width="30" height="13" rx="2" fill="#D9E5F2"/>
<path d="M264.633 148.286L263.073 143.443H263.835L265.117 147.497H265.153L266.4 143.443H267.144L265.62 148.286H264.633ZM271.759 144.833C271.759 144.313 271.382 143.99 270.763 143.99C270.189 143.99 269.759 144.268 269.705 144.681H268.97C269.006 143.91 269.759 143.354 270.763 143.354C271.812 143.354 272.512 143.946 272.512 144.842V146.555C272.512 147.308 272.566 147.864 272.691 148.286H271.974C271.902 148.088 271.848 147.828 271.812 147.514H271.777C271.499 148.061 270.987 148.375 270.333 148.375C269.427 148.375 268.79 147.775 268.79 146.905C268.79 146.017 269.454 145.533 270.817 145.407L271.265 145.362C271.606 145.326 271.759 145.165 271.759 144.833ZM271.759 145.73C271.651 145.811 271.508 145.856 271.328 145.882L270.898 145.927C269.956 146.044 269.544 146.331 269.544 146.887C269.544 147.416 269.911 147.757 270.467 147.757C271.185 147.757 271.759 147.174 271.759 146.403V145.73ZM276.221 146.663C276.221 147.389 276.535 147.739 277.18 147.739C277.449 147.739 277.718 147.676 277.987 147.541V148.169C277.736 148.304 277.413 148.375 277.055 148.375C276.014 148.375 275.467 147.783 275.467 146.663V142.322H274.024V141.65H276.221V146.663ZM279.463 148.286V147.981C279.463 147.272 279.912 146.6 281.077 145.569C282.037 144.717 282.414 144.197 282.414 143.641C282.414 143.022 281.956 142.609 281.293 142.609C280.665 142.609 280.172 142.986 280.118 143.515H279.365C279.392 142.609 280.226 141.919 281.32 141.919C282.414 141.919 283.194 142.618 283.194 143.614C283.194 144.385 282.727 145.075 281.606 146.062C280.871 146.707 280.486 147.165 280.342 147.604H283.463V148.286H279.463Z" fill="#5B7FB5"/>
<rect x="258.333" y="166.286" width="30" height="13" rx="2" fill="#D9E5F2"/>
<path d="M264.633 176.286L263.073 171.443H263.835L265.117 175.497H265.153L266.4 171.443H267.144L265.62 176.286H264.633ZM271.759 172.833C271.759 172.313 271.382 171.99 270.763 171.99C270.189 171.99 269.759 172.268 269.705 172.681H268.97C269.006 171.91 269.759 171.354 270.763 171.354C271.812 171.354 272.512 171.946 272.512 172.842V174.555C272.512 175.308 272.566 175.864 272.691 176.286H271.974C271.902 176.088 271.848 175.828 271.812 175.514H271.777C271.499 176.061 270.987 176.375 270.333 176.375C269.427 176.375 268.79 175.775 268.79 174.905C268.79 174.017 269.454 173.533 270.817 173.407L271.265 173.362C271.606 173.326 271.759 173.165 271.759 172.833ZM271.759 173.73C271.651 173.811 271.508 173.856 271.328 173.882L270.898 173.927C269.956 174.044 269.544 174.331 269.544 174.887C269.544 175.416 269.911 175.757 270.467 175.757C271.185 175.757 271.759 175.174 271.759 174.403V173.73ZM276.221 174.663C276.221 175.389 276.535 175.739 277.18 175.739C277.449 175.739 277.718 175.676 277.987 175.541V176.169C277.736 176.304 277.413 176.375 277.055 176.375C276.014 176.375 275.467 175.783 275.467 174.663V170.322H274.024V169.65H276.221V174.663ZM279.463 176.286V175.981C279.463 175.272 279.912 174.6 281.077 173.569C282.037 172.717 282.414 172.197 282.414 171.641C282.414 171.022 281.956 170.609 281.293 170.609C280.665 170.609 280.172 170.986 280.118 171.515H279.365C279.392 170.609 280.226 169.919 281.32 169.919C282.414 169.919 283.194 170.618 283.194 171.614C283.194 172.385 282.727 173.075 281.606 174.062C280.871 174.707 280.486 175.165 280.342 175.604H283.463V176.286H279.463Z" fill="#5B7FB5"/>
<rect x="258.333" y="194.286" width="30" height="13" rx="2" fill="#FBE9EA"/>
<path d="M264.633 204.286L263.073 199.443H263.835L265.117 203.497H265.153L266.4 199.443H267.144L265.62 204.286H264.633ZM271.759 200.833C271.759 200.313 271.382 199.99 270.763 199.99C270.189 199.99 269.759 200.268 269.705 200.681H268.97C269.006 199.91 269.759 199.354 270.763 199.354C271.812 199.354 272.512 199.946 272.512 200.842V202.555C272.512 203.308 272.566 203.864 272.691 204.286H271.974C271.902 204.088 271.848 203.828 271.812 203.514H271.777C271.499 204.061 270.987 204.375 270.333 204.375C269.427 204.375 268.79 203.775 268.79 202.905C268.79 202.017 269.454 201.533 270.817 201.407L271.265 201.362C271.606 201.326 271.759 201.165 271.759 200.833ZM271.759 201.73C271.651 201.811 271.508 201.856 271.328 201.882L270.898 201.927C269.956 202.044 269.544 202.331 269.544 202.887C269.544 203.416 269.911 203.757 270.467 203.757C271.185 203.757 271.759 203.174 271.759 202.403V201.73ZM276.221 202.663C276.221 203.389 276.535 203.739 277.18 203.739C277.449 203.739 277.718 203.676 277.987 203.541V204.169C277.736 204.304 277.413 204.375 277.055 204.375C276.014 204.375 275.467 203.783 275.467 202.663V198.322H274.024V197.65H276.221V202.663ZM280.226 199.515H279.481C279.481 198.592 280.261 197.919 281.328 197.919C282.422 197.919 283.212 198.618 283.212 199.578C283.212 200.215 282.871 200.681 282.297 200.905V200.941C283.014 201.174 283.445 201.739 283.445 202.501C283.445 203.586 282.575 204.375 281.364 204.375C280.199 204.375 279.329 203.649 279.329 202.689H280.082C280.1 203.263 280.647 203.694 281.364 203.694C282.145 203.694 282.692 203.192 282.692 202.492C282.692 201.811 282.171 201.326 281.427 201.326H280.871V200.618H281.391C282.028 200.618 282.476 200.215 282.476 199.641C282.476 199.04 281.992 198.6 281.337 198.6C280.719 198.6 280.243 198.986 280.226 199.515Z" fill="#E77E80"/>
<rect x="258.333" y="222.286" width="30" height="13" rx="2" fill="#DFECDF"/>
<path d="M264.633 232.286L263.073 227.443H263.835L265.117 231.497H265.153L266.4 227.443H267.144L265.62 232.286H264.633ZM271.759 228.833C271.759 228.313 271.382 227.99 270.763 227.99C270.189 227.99 269.759 228.268 269.705 228.681H268.97C269.006 227.91 269.759 227.354 270.763 227.354C271.812 227.354 272.512 227.946 272.512 228.842V230.555C272.512 231.308 272.566 231.864 272.691 232.286H271.974C271.902 232.088 271.848 231.828 271.812 231.514H271.777C271.499 232.061 270.987 232.375 270.333 232.375C269.427 232.375 268.79 231.775 268.79 230.905C268.79 230.017 269.454 229.533 270.817 229.407L271.265 229.362C271.606 229.326 271.759 229.165 271.759 228.833ZM271.759 229.73C271.651 229.811 271.508 229.856 271.328 229.882L270.898 229.927C269.956 230.044 269.544 230.331 269.544 230.887C269.544 231.416 269.911 231.757 270.467 231.757C271.185 231.757 271.759 231.174 271.759 230.403V229.73ZM276.221 230.663C276.221 231.389 276.535 231.739 277.18 231.739C277.449 231.739 277.718 231.676 277.987 231.541V232.169C277.736 232.304 277.413 232.375 277.055 232.375C276.014 232.375 275.467 231.783 275.467 230.663V226.322H274.024V225.65H276.221V230.663ZM279.069 230.806V230.053L281.598 226.009H282.674V230.107H283.785V230.806H282.674V232.286H281.92V230.806H279.069ZM281.884 226.699L279.777 230.107H281.92V226.699H281.884Z" fill="#59A14F"/>
</g>
<path d="M297.667 76.2858H296.667V269H297.667H298.667V76.2858H297.667Z" fill="#E6E6E6" mask="url(#path-9-inside-2_45_559)"/>
<g opacity="0.5">
<g clip-path="url(#clip2_45_559)">
<mask id="path-24-inside-4_45_559" fill="white">
<path d="M297.667 76.2858H346.333V269H297.667V76.2858Z"/>
</mask>
<mask id="path-26-outside-5_45_559" maskUnits="userSpaceOnUse" x="297.667" y="76.2858" width="49" height="20" fill="black">
<rect fill="white" x="297.667" y="76.2858" width="49" height="20"/>
<path d="M297.667 76.2858H346.333V95.2858H297.667V76.2858Z"/>
</mask>
<path d="M297.667 76.2858H346.333V95.2858H297.667V76.2858Z" fill="#F7F7F7"/>
<path d="M346.333 95.2858V94.2858H297.667V95.2858V96.2858H346.333V95.2858Z" fill="#E6E6E6" mask="url(#path-26-outside-5_45_559)"/>
<path d="M313.191 90.3781C312.879 90.3781 312.601 90.324 312.357 90.2157C312.113 90.1053 311.92 89.9429 311.777 89.7285C311.637 89.512 311.567 89.2424 311.567 88.9197C311.567 88.6479 311.617 88.4197 311.717 88.235C311.817 88.0504 311.953 87.9017 312.125 87.7892C312.296 87.6767 312.492 87.5918 312.71 87.5345C312.931 87.4772 313.163 87.4368 313.405 87.4135C313.689 87.3838 313.918 87.3562 314.092 87.3307C314.267 87.3031 314.393 87.2628 314.471 87.2097C314.55 87.1566 314.589 87.0781 314.589 86.974V86.9549C314.589 86.7533 314.526 86.5972 314.398 86.4868C314.273 86.3764 314.095 86.3212 313.863 86.3212C313.619 86.3212 313.425 86.3754 313.28 86.4836C313.136 86.5898 313.041 86.7235 312.994 86.8849L311.739 86.783C311.803 86.4858 311.928 86.2289 312.115 86.0124C312.302 85.7937 312.543 85.626 312.838 85.5092C313.135 85.3904 313.479 85.3309 313.87 85.3309C314.141 85.3309 314.401 85.3628 314.65 85.4264C314.9 85.4901 315.122 85.5888 315.315 85.7226C315.511 85.8563 315.664 86.0283 315.777 86.2385C315.889 86.4465 315.946 86.6959 315.946 86.9868V90.2858H314.659V89.6075H314.621C314.543 89.7603 314.437 89.8952 314.306 90.0119C314.174 90.1265 314.016 90.2168 313.831 90.2826C313.647 90.3463 313.433 90.3781 313.191 90.3781ZM313.58 89.4419C313.779 89.4419 313.956 89.4026 314.108 89.3241C314.261 89.2434 314.381 89.1352 314.468 88.9993C314.555 88.8634 314.599 88.7095 314.599 88.5376V88.0185C314.556 88.0461 314.498 88.0716 314.424 88.0949C314.351 88.1162 314.27 88.1363 314.178 88.1554C314.087 88.1724 313.996 88.1883 313.905 88.2032C313.813 88.2159 313.731 88.2276 313.656 88.2382C313.497 88.2616 313.358 88.2987 313.239 88.3497C313.12 88.4006 313.028 88.4696 312.962 88.5567C312.896 88.6416 312.863 88.7477 312.863 88.8751C312.863 89.0598 312.93 89.201 313.064 89.2986C313.2 89.3941 313.372 89.4419 313.58 89.4419ZM319.6 85.3946V86.4136H316.654V85.3946H319.6ZM317.323 84.2228H318.68V88.7828C318.68 88.908 318.699 89.0057 318.737 89.0757C318.775 89.1436 318.828 89.1914 318.896 89.219C318.966 89.2466 319.047 89.2604 319.138 89.2604C319.202 89.2604 319.265 89.2551 319.329 89.2445C319.393 89.2317 319.442 89.2222 319.476 89.2158L319.689 90.2253C319.621 90.2465 319.525 90.2709 319.402 90.2985C319.279 90.3282 319.13 90.3463 318.953 90.3526C318.626 90.3654 318.34 90.3219 318.094 90.2221C317.849 90.1223 317.659 89.9673 317.524 89.7572C317.388 89.547 317.321 89.2816 317.323 88.9611V84.2228ZM323.085 85.3946V86.4136H320.14V85.3946H323.085ZM320.808 84.2228H322.165V88.7828C322.165 88.908 322.184 89.0057 322.222 89.0757C322.26 89.1436 322.313 89.1914 322.381 89.219C322.451 89.2466 322.532 89.2604 322.623 89.2604C322.687 89.2604 322.751 89.2551 322.814 89.2445C322.878 89.2317 322.927 89.2222 322.961 89.2158L323.174 90.2253C323.106 90.2465 323.011 90.2709 322.888 90.2985C322.765 90.3282 322.615 90.3463 322.439 90.3526C322.112 90.3654 321.825 90.3219 321.579 90.2221C321.335 90.1223 321.145 89.9673 321.009 89.7572C320.873 89.547 320.806 89.2816 320.808 88.9611V84.2228ZM323.969 90.2858V85.3946H325.284V86.248H325.335C325.424 85.9444 325.574 85.7152 325.784 85.5602C325.994 85.4031 326.236 85.3245 326.51 85.3245C326.578 85.3245 326.651 85.3288 326.73 85.3373C326.808 85.3458 326.877 85.3574 326.937 85.3723V86.576C326.873 86.5569 326.785 86.5399 326.672 86.525C326.56 86.5102 326.457 86.5028 326.363 86.5028C326.164 86.5028 325.985 86.5463 325.828 86.6333C325.673 86.7182 325.55 86.8371 325.459 86.99C325.37 87.1428 325.325 87.319 325.325 87.5186V90.2858H323.969ZM327.625 90.2858V89.2922L329.947 87.1428C330.144 86.9517 330.31 86.7798 330.443 86.6269C330.579 86.4741 330.682 86.3244 330.752 86.178C330.822 86.0293 330.857 85.8691 330.857 85.6971C330.857 85.5061 330.814 85.3415 330.727 85.2035C330.64 85.0634 330.521 84.9562 330.37 84.8819C330.219 84.8055 330.048 84.7673 329.857 84.7673C329.658 84.7673 329.484 84.8076 329.335 84.8883C329.187 84.969 329.072 85.0847 328.991 85.2354C328.911 85.3861 328.87 85.5655 328.87 85.7735H327.561C327.561 85.3468 327.658 84.9764 327.851 84.6622C328.044 84.348 328.315 84.1049 328.663 83.933C329.011 83.761 329.413 83.675 329.867 83.675C330.334 83.675 330.741 83.7578 331.087 83.9234C331.435 84.0869 331.705 84.314 331.899 84.6049C332.092 84.8957 332.188 85.229 332.188 85.6048C332.188 85.851 332.14 86.0941 332.042 86.334C331.946 86.5739 331.775 86.8403 331.529 87.1333C331.283 87.4241 330.936 87.7733 330.488 88.1809L329.536 89.1139V89.1585H332.274V90.2858H327.625Z" fill="black"/>
<path d="M313.3 120.286L311.74 115.444H312.502L313.784 119.497H313.82L315.066 115.444H315.811L314.286 120.286H313.3ZM320.425 116.833C320.425 116.313 320.049 115.991 319.43 115.991C318.856 115.991 318.426 116.268 318.372 116.681H317.637C317.672 115.91 318.426 115.354 319.43 115.354C320.479 115.354 321.179 115.946 321.179 116.842V118.555C321.179 119.308 321.232 119.864 321.358 120.286H320.64C320.569 120.088 320.515 119.828 320.479 119.515H320.443C320.165 120.062 319.654 120.375 319 120.375C318.094 120.375 317.457 119.775 317.457 118.905C317.457 118.017 318.121 117.533 319.484 117.407L319.932 117.362C320.273 117.327 320.425 117.165 320.425 116.833ZM320.425 117.73C320.318 117.811 320.174 117.856 319.995 117.883L319.564 117.927C318.623 118.044 318.21 118.331 318.21 118.887C318.21 119.416 318.578 119.757 319.134 119.757C319.851 119.757 320.425 119.174 320.425 118.403V117.73ZM324.887 118.663C324.887 119.389 325.201 119.739 325.847 119.739C326.116 119.739 326.385 119.676 326.654 119.541V120.169C326.403 120.304 326.08 120.375 325.721 120.375C324.681 120.375 324.134 119.784 324.134 118.663V114.323H322.69V113.65H324.887V118.663ZM328.812 118.69C328.883 119.281 329.394 119.694 330.04 119.694C330.811 119.694 331.358 119.12 331.358 118.322C331.358 117.524 330.82 116.959 330.058 116.959C329.574 116.959 329.17 117.183 328.955 117.56L328.273 117.434L328.641 114.009H331.824V114.69H329.305L329.081 116.708L329.116 116.717C329.403 116.448 329.798 116.304 330.246 116.304C331.34 116.304 332.138 117.156 332.138 118.313C332.138 119.515 331.269 120.375 330.058 120.375C328.973 120.375 328.148 119.676 328.067 118.69H328.812Z" fill="#CCCCCC"/>
<path d="M313.3 148.286L311.74 143.443H312.502L313.784 147.497H313.82L315.066 143.443H315.811L314.286 148.286H313.3ZM320.425 144.833C320.425 144.313 320.049 143.99 319.43 143.99C318.856 143.99 318.426 144.268 318.372 144.681H317.637C317.672 143.91 318.426 143.354 319.43 143.354C320.479 143.354 321.179 143.946 321.179 144.842V146.555C321.179 147.308 321.232 147.864 321.358 148.286H320.64C320.569 148.088 320.515 147.828 320.479 147.514H320.443C320.165 148.061 319.654 148.375 319 148.375C318.094 148.375 317.457 147.775 317.457 146.905C317.457 146.017 318.121 145.533 319.484 145.407L319.932 145.362C320.273 145.326 320.425 145.165 320.425 144.833ZM320.425 145.73C320.318 145.811 320.174 145.856 319.995 145.882L319.564 145.927C318.623 146.044 318.21 146.331 318.21 146.887C318.21 147.416 318.578 147.757 319.134 147.757C319.851 147.757 320.425 147.174 320.425 146.403V145.73ZM324.887 146.663C324.887 147.389 325.201 147.739 325.847 147.739C326.116 147.739 326.385 147.676 326.654 147.541V148.169C326.403 148.304 326.08 148.375 325.721 148.375C324.681 148.375 324.134 147.783 324.134 146.663V142.322H322.69V141.65H324.887V146.663ZM328.812 146.689C328.883 147.281 329.394 147.694 330.04 147.694C330.811 147.694 331.358 147.12 331.358 146.322C331.358 145.524 330.82 144.959 330.058 144.959C329.574 144.959 329.17 145.183 328.955 145.56L328.273 145.434L328.641 142.009H331.824V142.69H329.305L329.081 144.708L329.116 144.717C329.403 144.448 329.798 144.304 330.246 144.304C331.34 144.304 332.138 145.156 332.138 146.313C332.138 147.514 331.269 148.375 330.058 148.375C328.973 148.375 328.148 147.676 328.067 146.689H328.812Z" fill="#CCCCCC"/>
<path d="M313.3 176.286L311.74 171.443H312.502L313.784 175.497H313.82L315.066 171.443H315.811L314.286 176.286H313.3ZM320.425 172.833C320.425 172.313 320.049 171.99 319.43 171.99C318.856 171.99 318.426 172.268 318.372 172.681H317.637C317.672 171.91 318.426 171.354 319.43 171.354C320.479 171.354 321.179 171.946 321.179 172.842V174.555C321.179 175.308 321.232 175.864 321.358 176.286H320.64C320.569 176.088 320.515 175.828 320.479 175.514H320.443C320.165 176.061 319.654 176.375 319 176.375C318.094 176.375 317.457 175.775 317.457 174.905C317.457 174.017 318.121 173.533 319.484 173.407L319.932 173.362C320.273 173.326 320.425 173.165 320.425 172.833ZM320.425 173.73C320.318 173.811 320.174 173.856 319.995 173.882L319.564 173.927C318.623 174.044 318.21 174.331 318.21 174.887C318.21 175.416 318.578 175.757 319.134 175.757C319.851 175.757 320.425 175.174 320.425 174.403V173.73ZM324.887 174.663C324.887 175.389 325.201 175.739 325.847 175.739C326.116 175.739 326.385 175.676 326.654 175.541V176.169C326.403 176.304 326.08 176.375 325.721 176.375C324.681 176.375 324.134 175.783 324.134 174.663V170.322H322.69V169.65H324.887V174.663ZM330.228 170.6C329.269 170.6 328.668 171.605 328.659 173.21H328.704C329.027 172.627 329.601 172.286 330.309 172.286C331.412 172.286 332.219 173.129 332.219 174.304C332.219 175.514 331.349 176.375 330.166 176.375C328.776 176.375 327.906 175.174 327.906 173.228C327.906 171.237 328.803 169.919 330.228 169.919C331.242 169.919 332.004 170.583 332.102 171.515H331.394C331.26 170.95 330.802 170.6 330.228 170.6ZM328.892 174.349C328.892 175.111 329.439 175.694 330.175 175.694C330.919 175.694 331.466 175.111 331.466 174.313C331.466 173.524 330.937 172.95 330.21 172.95C329.466 172.95 328.892 173.56 328.892 174.349Z" fill="#CCCCCC"/>
<path d="M313.3 204.286L311.74 199.443H312.502L313.784 203.497H313.82L315.066 199.443H315.811L314.286 204.286H313.3ZM320.425 200.833C320.425 200.313 320.049 199.99 319.43 199.99C318.856 199.99 318.426 200.268 318.372 200.681H317.637C317.672 199.91 318.426 199.354 319.43 199.354C320.479 199.354 321.179 199.946 321.179 200.842V202.555C321.179 203.308 321.232 203.864 321.358 204.286H320.64C320.569 204.088 320.515 203.828 320.479 203.514H320.443C320.165 204.061 319.654 204.375 319 204.375C318.094 204.375 317.457 203.775 317.457 202.905C317.457 202.017 318.121 201.533 319.484 201.407L319.932 201.362C320.273 201.326 320.425 201.165 320.425 200.833ZM320.425 201.73C320.318 201.811 320.174 201.856 319.995 201.882L319.564 201.927C318.623 202.044 318.21 202.331 318.21 202.887C318.21 203.416 318.578 203.757 319.134 203.757C319.851 203.757 320.425 203.174 320.425 202.403V201.73ZM324.887 202.663C324.887 203.389 325.201 203.739 325.847 203.739C326.116 203.739 326.385 203.676 326.654 203.541V204.169C326.403 204.304 326.08 204.375 325.721 204.375C324.681 204.375 324.134 203.783 324.134 202.663V198.322H322.69V197.65H324.887V202.663ZM329.287 204.286C329.287 202.178 329.923 200.376 331.26 198.708H327.924V198.009H332.076V198.654C330.695 200.43 330.094 202.107 330.067 204.286H329.287Z" fill="#CCCCCC"/>
<path d="M313.3 232.286L311.74 227.443H312.502L313.784 231.497H313.82L315.066 227.443H315.811L314.286 232.286H313.3ZM320.425 228.833C320.425 228.313 320.049 227.99 319.43 227.99C318.856 227.99 318.426 228.268 318.372 228.681H317.637C317.672 227.91 318.426 227.354 319.43 227.354C320.479 227.354 321.179 227.946 321.179 228.842V230.555C321.179 231.308 321.232 231.864 321.358 232.286H320.64C320.569 232.088 320.515 231.828 320.479 231.514H320.443C320.165 232.061 319.654 232.375 319 232.375C318.094 232.375 317.457 231.775 317.457 230.905C317.457 230.017 318.121 229.533 319.484 229.407L319.932 229.362C320.273 229.326 320.425 229.165 320.425 228.833ZM320.425 229.73C320.318 229.811 320.174 229.856 319.995 229.882L319.564 229.927C318.623 230.044 318.21 230.331 318.21 230.887C318.21 231.416 318.578 231.757 319.134 231.757C319.851 231.757 320.425 231.174 320.425 230.403V229.73ZM324.887 230.663C324.887 231.389 325.201 231.739 325.847 231.739C326.116 231.739 326.385 231.676 326.654 231.541V232.169C326.403 232.304 326.08 232.375 325.721 232.375C324.681 232.375 324.134 231.783 324.134 230.663V226.322H322.69V225.65H324.887V230.663ZM329.287 232.286C329.287 230.178 329.923 228.376 331.26 226.708H327.924V226.009H332.076V226.654C330.695 228.43 330.094 230.107 330.067 232.286H329.287Z" fill="#CCCCCC"/>
</g>
<path d="M346.333 76.2858H345.333V269H346.333H347.333V76.2858H346.333Z" fill="#E6E6E6" mask="url(#path-24-inside-4_45_559)"/>
</g>
<g opacity="0.5" clip-path="url(#clip3_45_559)">
<mask id="path-34-outside-6_45_559" maskUnits="userSpaceOnUse" x="346.333" y="76.2858" width="49" height="20" fill="black">
<rect fill="white" x="346.333" y="76.2858" width="49" height="20"/>
<path d="M346.333 76.2858H395V95.2858H346.333V76.2858Z"/>
</mask>
<path d="M346.333 76.2858H395V95.2858H346.333V76.2858Z" fill="#F7F7F7"/>
<path d="M395 95.2858V94.2858H346.333V95.2858V96.2858H395V95.2858Z" fill="#E6E6E6" mask="url(#path-34-outside-6_45_559)"/>
<path d="M361.727 90.3781C361.415 90.3781 361.137 90.324 360.892 90.2157C360.648 90.1053 360.455 89.9429 360.313 89.7285C360.173 89.512 360.103 89.2424 360.103 88.9197C360.103 88.6479 360.153 88.4197 360.252 88.235C360.352 88.0504 360.488 87.9017 360.66 87.7892C360.832 87.6767 361.027 87.5918 361.246 87.5345C361.467 87.4772 361.698 87.4368 361.94 87.4135C362.224 87.3838 362.454 87.3562 362.628 87.3307C362.802 87.3031 362.928 87.2628 363.007 87.2097C363.085 87.1566 363.125 87.0781 363.125 86.974V86.9549C363.125 86.7533 363.061 86.5972 362.934 86.4868C362.808 86.3764 362.63 86.3212 362.399 86.3212C362.154 86.3212 361.96 86.3754 361.816 86.4836C361.671 86.5898 361.576 86.7235 361.529 86.8849L360.275 86.783C360.338 86.4858 360.464 86.2289 360.65 86.0124C360.837 85.7937 361.078 85.626 361.373 85.5092C361.67 85.3904 362.014 85.3309 362.405 85.3309C362.677 85.3309 362.937 85.3628 363.185 85.4264C363.436 85.4901 363.657 85.5888 363.851 85.7226C364.046 85.8563 364.2 86.0283 364.312 86.2385C364.425 86.4465 364.481 86.6959 364.481 86.9868V90.2858H363.195V89.6075H363.156C363.078 89.7603 362.973 89.8952 362.841 90.0119C362.71 90.1265 362.551 90.2168 362.367 90.2826C362.182 90.3463 361.969 90.3781 361.727 90.3781ZM362.115 89.4419C362.315 89.4419 362.491 89.4026 362.644 89.3241C362.797 89.2434 362.917 89.1352 363.004 88.9993C363.091 88.8634 363.134 88.7095 363.134 88.5376V88.0185C363.092 88.0461 363.033 88.0716 362.959 88.0949C362.887 88.1162 362.805 88.1363 362.714 88.1554C362.623 88.1724 362.531 88.1883 362.44 88.2032C362.349 88.2159 362.266 88.2276 362.192 88.2382C362.032 88.2616 361.893 88.2987 361.774 88.3497C361.656 88.4006 361.563 88.4696 361.497 88.5567C361.432 88.6416 361.399 88.7477 361.399 88.8751C361.399 89.0598 361.466 89.201 361.599 89.2986C361.735 89.3941 361.907 89.4419 362.115 89.4419ZM368.135 85.3946V86.4136H365.19V85.3946H368.135ZM365.858 84.2228H367.215V88.7828C367.215 88.908 367.234 89.0057 367.272 89.0757C367.31 89.1436 367.364 89.1914 367.431 89.219C367.502 89.2466 367.582 89.2604 367.673 89.2604C367.737 89.2604 367.801 89.2551 367.865 89.2445C367.928 89.2317 367.977 89.2222 368.011 89.2158L368.224 90.2253C368.156 90.2465 368.061 90.2709 367.938 90.2985C367.815 90.3282 367.665 90.3463 367.489 90.3526C367.162 90.3654 366.875 90.3219 366.629 90.2221C366.385 90.1223 366.195 89.9673 366.059 89.7572C365.923 89.547 365.856 89.2816 365.858 88.9611V84.2228ZM371.62 85.3946V86.4136H368.675V85.3946H371.62ZM369.344 84.2228H370.7V88.7828C370.7 88.908 370.719 89.0057 370.758 89.0757C370.796 89.1436 370.849 89.1914 370.917 89.219C370.987 89.2466 371.067 89.2604 371.159 89.2604C371.222 89.2604 371.286 89.2551 371.35 89.2445C371.413 89.2317 371.462 89.2222 371.496 89.2158L371.71 90.2253C371.642 90.2465 371.546 90.2709 371.423 90.2985C371.3 90.3282 371.15 90.3463 370.974 90.3526C370.647 90.3654 370.361 90.3219 370.114 90.2221C369.87 90.1223 369.68 89.9673 369.544 89.7572C369.408 89.547 369.342 89.2816 369.344 88.9611V84.2228ZM372.504 90.2858V85.3946H373.819V86.248H373.87C373.959 85.9444 374.109 85.7152 374.319 85.5602C374.529 85.4031 374.771 85.3245 375.045 85.3245C375.113 85.3245 375.186 85.3288 375.265 85.3373C375.344 85.3458 375.412 85.3574 375.472 85.3723V86.576C375.408 86.5569 375.32 86.5399 375.208 86.525C375.095 86.5102 374.992 86.5028 374.899 86.5028C374.699 86.5028 374.521 86.5463 374.364 86.6333C374.209 86.7182 374.086 86.8371 373.994 86.99C373.905 87.1428 373.861 87.319 373.861 87.5186V90.2858H372.504ZM378.571 90.3749C378.096 90.3749 377.672 90.2932 377.301 90.1297C376.931 89.9641 376.639 89.737 376.425 89.4483C376.213 89.1574 376.103 88.822 376.097 88.442H377.485C377.494 88.6012 377.546 88.7414 377.641 88.8624C377.739 88.9812 377.868 89.0736 378.03 89.1394C378.191 89.2052 378.373 89.2381 378.574 89.2381C378.784 89.2381 378.97 89.201 379.132 89.1267C379.293 89.0524 379.419 88.9494 379.51 88.8178C379.602 88.6862 379.647 88.5344 379.647 88.3624C379.647 88.1883 379.599 88.0344 379.501 87.9007C379.405 87.7648 379.267 87.6587 379.087 87.5823C378.909 87.5058 378.696 87.4676 378.45 87.4676H377.842V86.455H378.45C378.658 86.455 378.842 86.4189 379.001 86.3467C379.162 86.2745 379.288 86.1748 379.377 86.0474C379.466 85.9179 379.51 85.7672 379.51 85.5952C379.51 85.4318 379.471 85.2885 379.393 85.1653C379.316 85.0401 379.208 84.9424 379.068 84.8724C378.93 84.8023 378.769 84.7673 378.584 84.7673C378.397 84.7673 378.226 84.8012 378.071 84.8692C377.916 84.935 377.792 85.0295 377.699 85.1526C377.605 85.2757 377.555 85.4201 377.549 85.5857H376.227C376.234 85.2099 376.341 84.8787 376.549 84.5921C376.757 84.3056 377.037 84.0816 377.39 83.9202C377.744 83.7568 378.144 83.675 378.59 83.675C379.04 83.675 379.434 83.7568 379.772 83.9202C380.109 84.0837 380.371 84.3045 380.558 84.5826C380.747 84.8586 380.84 85.1685 380.838 85.5124C380.84 85.8776 380.727 86.1822 380.498 86.4263C380.27 86.6705 379.974 86.8254 379.609 86.8912V86.9422C380.089 87.0038 380.454 87.1704 380.705 87.4421C380.957 87.7117 381.083 88.0493 381.08 88.4548C381.083 88.8263 380.975 89.1564 380.759 89.4451C380.544 89.7338 380.248 89.961 379.87 90.1265C379.492 90.2921 379.059 90.3749 378.571 90.3749Z" fill="black"/>
<path d="M361.967 120.286L360.406 115.444H361.169L362.451 119.497H362.487L363.733 115.444H364.477L362.953 120.286H361.967ZM369.092 116.833C369.092 116.313 368.715 115.991 368.097 115.991C367.523 115.991 367.092 116.268 367.039 116.681H366.303C366.339 115.91 367.092 115.354 368.097 115.354C369.146 115.354 369.845 115.946 369.845 116.842V118.555C369.845 119.308 369.899 119.864 370.025 120.286H369.307C369.236 120.088 369.182 119.828 369.146 119.515H369.11C368.832 120.062 368.321 120.375 367.666 120.375C366.761 120.375 366.124 119.775 366.124 118.905C366.124 118.017 366.787 117.533 368.15 117.407L368.599 117.362C368.94 117.327 369.092 117.165 369.092 116.833ZM369.092 117.73C368.984 117.811 368.841 117.856 368.662 117.883L368.231 117.927C367.29 118.044 366.877 118.331 366.877 118.887C366.877 119.416 367.245 119.757 367.801 119.757C368.518 119.757 369.092 119.174 369.092 118.403V117.73ZM373.554 118.663C373.554 119.389 373.868 119.739 374.514 119.739C374.783 119.739 375.052 119.676 375.321 119.541V120.169C375.07 120.304 374.747 120.375 374.388 120.375C373.348 120.375 372.801 119.784 372.801 118.663V114.323H371.357V113.65H373.554V118.663ZM378.734 120.375C377.559 120.375 376.653 119.577 376.653 118.555C376.653 117.829 377.12 117.228 377.819 116.968V116.932C377.254 116.681 376.877 116.179 376.877 115.56C376.877 114.628 377.685 113.919 378.734 113.919C379.783 113.919 380.59 114.628 380.59 115.56C380.59 116.179 380.222 116.681 379.657 116.932V116.968C380.357 117.237 380.814 117.829 380.814 118.555C380.814 119.577 379.908 120.375 378.734 120.375ZM378.734 114.592C378.115 114.592 377.649 115.031 377.649 115.614C377.649 116.197 378.115 116.636 378.734 116.636C379.352 116.636 379.819 116.197 379.819 115.614C379.819 115.031 379.352 114.592 378.734 114.592ZM378.734 117.327C377.989 117.327 377.442 117.82 377.442 118.501C377.442 119.183 377.998 119.694 378.734 119.694C379.469 119.694 380.025 119.183 380.025 118.501C380.025 117.82 379.478 117.327 378.734 117.327Z" fill="#CCCCCC"/>
<path d="M361.967 148.286L360.406 143.443H361.169L362.451 147.497H362.487L363.733 143.443H364.477L362.953 148.286H361.967ZM369.092 144.833C369.092 144.313 368.715 143.99 368.097 143.99C367.523 143.99 367.092 144.268 367.039 144.681H366.303C366.339 143.91 367.092 143.354 368.097 143.354C369.146 143.354 369.845 143.946 369.845 144.842V146.555C369.845 147.308 369.899 147.864 370.025 148.286H369.307C369.236 148.088 369.182 147.828 369.146 147.514H369.11C368.832 148.061 368.321 148.375 367.666 148.375C366.761 148.375 366.124 147.775 366.124 146.905C366.124 146.017 366.787 145.533 368.15 145.407L368.599 145.362C368.94 145.326 369.092 145.165 369.092 144.833ZM369.092 145.73C368.984 145.811 368.841 145.856 368.662 145.882L368.231 145.927C367.29 146.044 366.877 146.331 366.877 146.887C366.877 147.416 367.245 147.757 367.801 147.757C368.518 147.757 369.092 147.174 369.092 146.403V145.73ZM373.554 146.663C373.554 147.389 373.868 147.739 374.514 147.739C374.783 147.739 375.052 147.676 375.321 147.541V148.169C375.07 148.304 374.747 148.375 374.388 148.375C373.348 148.375 372.801 147.783 372.801 146.663V142.322H371.357V141.65H373.554V146.663ZM378.734 148.375C377.559 148.375 376.653 147.577 376.653 146.555C376.653 145.829 377.12 145.228 377.819 144.968V144.932C377.254 144.681 376.877 144.179 376.877 143.56C376.877 142.627 377.685 141.919 378.734 141.919C379.783 141.919 380.59 142.627 380.59 143.56C380.59 144.179 380.222 144.681 379.657 144.932V144.968C380.357 145.237 380.814 145.829 380.814 146.555C380.814 147.577 379.908 148.375 378.734 148.375ZM378.734 142.592C378.115 142.592 377.649 143.031 377.649 143.614C377.649 144.197 378.115 144.636 378.734 144.636C379.352 144.636 379.819 144.197 379.819 143.614C379.819 143.031 379.352 142.592 378.734 142.592ZM378.734 145.326C377.989 145.326 377.442 145.82 377.442 146.501C377.442 147.183 377.998 147.694 378.734 147.694C379.469 147.694 380.025 147.183 380.025 146.501C380.025 145.82 379.478 145.326 378.734 145.326Z" fill="#CCCCCC"/>
<path d="M361.967 176.286L360.406 171.443H361.169L362.451 175.497H362.487L363.733 171.443H364.477L362.953 176.286H361.967ZM369.092 172.833C369.092 172.313 368.715 171.99 368.097 171.99C367.523 171.99 367.092 172.268 367.039 172.681H366.303C366.339 171.91 367.092 171.354 368.097 171.354C369.146 171.354 369.845 171.946 369.845 172.842V174.555C369.845 175.308 369.899 175.864 370.025 176.286H369.307C369.236 176.088 369.182 175.828 369.146 175.514H369.11C368.832 176.061 368.321 176.375 367.666 176.375C366.761 176.375 366.124 175.775 366.124 174.905C366.124 174.017 366.787 173.533 368.15 173.407L368.599 173.362C368.94 173.326 369.092 173.165 369.092 172.833ZM369.092 173.73C368.984 173.811 368.841 173.856 368.662 173.882L368.231 173.927C367.29 174.044 366.877 174.331 366.877 174.887C366.877 175.416 367.245 175.757 367.801 175.757C368.518 175.757 369.092 175.174 369.092 174.403V173.73ZM373.554 174.663C373.554 175.389 373.868 175.739 374.514 175.739C374.783 175.739 375.052 175.676 375.321 175.541V176.169C375.07 176.304 374.747 176.375 374.388 176.375C373.348 176.375 372.801 175.783 372.801 174.663V170.322H371.357V169.65H373.554V174.663ZM378.734 176.375C377.559 176.375 376.653 175.577 376.653 174.555C376.653 173.829 377.12 173.228 377.819 172.968V172.932C377.254 172.681 376.877 172.179 376.877 171.56C376.877 170.627 377.685 169.919 378.734 169.919C379.783 169.919 380.59 170.627 380.59 171.56C380.59 172.179 380.222 172.681 379.657 172.932V172.968C380.357 173.237 380.814 173.829 380.814 174.555C380.814 175.577 379.908 176.375 378.734 176.375ZM378.734 170.592C378.115 170.592 377.649 171.031 377.649 171.614C377.649 172.197 378.115 172.636 378.734 172.636C379.352 172.636 379.819 172.197 379.819 171.614C379.819 171.031 379.352 170.592 378.734 170.592ZM378.734 173.326C377.989 173.326 377.442 173.82 377.442 174.501C377.442 175.183 377.998 175.694 378.734 175.694C379.469 175.694 380.025 175.183 380.025 174.501C380.025 173.82 379.478 173.326 378.734 173.326Z" fill="#CCCCCC"/>
<path d="M361.967 204.286L360.406 199.443H361.169L362.451 203.497H362.487L363.733 199.443H364.477L362.953 204.286H361.967ZM369.092 200.833C369.092 200.313 368.715 199.99 368.097 199.99C367.523 199.99 367.092 200.268 367.039 200.681H366.303C366.339 199.91 367.092 199.354 368.097 199.354C369.146 199.354 369.845 199.946 369.845 200.842V202.555C369.845 203.308 369.899 203.864 370.025 204.286H369.307C369.236 204.088 369.182 203.828 369.146 203.514H369.11C368.832 204.061 368.321 204.375 367.666 204.375C366.761 204.375 366.124 203.775 366.124 202.905C366.124 202.017 366.787 201.533 368.15 201.407L368.599 201.362C368.94 201.326 369.092 201.165 369.092 200.833ZM369.092 201.73C368.984 201.811 368.841 201.856 368.662 201.882L368.231 201.927C367.29 202.044 366.877 202.331 366.877 202.887C366.877 203.416 367.245 203.757 367.801 203.757C368.518 203.757 369.092 203.174 369.092 202.403V201.73ZM373.554 202.663C373.554 203.389 373.868 203.739 374.514 203.739C374.783 203.739 375.052 203.676 375.321 203.541V204.169C375.07 204.304 374.747 204.375 374.388 204.375C373.348 204.375 372.801 203.783 372.801 202.663V198.322H371.357V197.65H373.554V202.663ZM378.572 203.694C379.532 203.694 380.133 202.689 380.142 201.084H380.097C379.774 201.667 379.2 202.008 378.492 202.008C377.389 202.008 376.582 201.165 376.582 199.99C376.582 198.78 377.451 197.919 378.635 197.919C380.025 197.919 380.895 199.121 380.895 201.066C380.895 203.057 379.998 204.375 378.572 204.375C377.559 204.375 376.797 203.712 376.698 202.779H377.407C377.541 203.344 377.998 203.694 378.572 203.694ZM379.908 199.946C379.908 199.183 379.361 198.6 378.626 198.6C377.882 198.6 377.335 199.183 377.335 199.981C377.335 200.771 377.864 201.344 378.59 201.344C379.334 201.344 379.908 200.735 379.908 199.946Z" fill="#CCCCCC"/>
<path d="M361.967 232.286L360.406 227.443H361.169L362.451 231.497H362.487L363.733 227.443H364.477L362.953 232.286H361.967ZM369.092 228.833C369.092 228.313 368.715 227.99 368.097 227.99C367.523 227.99 367.092 228.268 367.039 228.681H366.303C366.339 227.91 367.092 227.354 368.097 227.354C369.146 227.354 369.845 227.946 369.845 228.842V230.555C369.845 231.308 369.899 231.864 370.025 232.286H369.307C369.236 232.088 369.182 231.828 369.146 231.514H369.11C368.832 232.061 368.321 232.375 367.666 232.375C366.761 232.375 366.124 231.775 366.124 230.905C366.124 230.017 366.787 229.533 368.15 229.407L368.599 229.362C368.94 229.326 369.092 229.165 369.092 228.833ZM369.092 229.73C368.984 229.811 368.841 229.856 368.662 229.882L368.231 229.927C367.29 230.044 366.877 230.331 366.877 230.887C366.877 231.416 367.245 231.757 367.801 231.757C368.518 231.757 369.092 231.174 369.092 230.403V229.73ZM373.554 230.663C373.554 231.389 373.868 231.739 374.514 231.739C374.783 231.739 375.052 231.676 375.321 231.541V232.169C375.07 232.304 374.747 232.375 374.388 232.375C373.348 232.375 372.801 231.783 372.801 230.663V226.322H371.357V225.65H373.554V230.663ZM378.572 231.694C379.532 231.694 380.133 230.689 380.142 229.084H380.097C379.774 229.667 379.2 230.008 378.492 230.008C377.389 230.008 376.582 229.165 376.582 227.99C376.582 226.78 377.451 225.919 378.635 225.919C380.025 225.919 380.895 227.121 380.895 229.066C380.895 231.057 379.998 232.375 378.572 232.375C377.559 232.375 376.797 231.712 376.698 230.779H377.407C377.541 231.344 377.998 231.694 378.572 231.694ZM379.908 227.946C379.908 227.183 379.361 226.6 378.626 226.6C377.882 226.6 377.335 227.183 377.335 227.981C377.335 228.771 377.864 229.344 378.59 229.344C379.334 229.344 379.908 228.735 379.908 227.946Z" fill="#CCCCCC"/>
</g>
</g>
<rect x="249.676" y="56.6762" width="144.648" height="211.648" rx="6.08571" stroke="#E6E6E6" stroke-width="1.35238"/>
<path d="M181 60L237 60" stroke="#C0C0C0" stroke-opacity="0.5" stroke-width="2" stroke-linecap="round" stroke-dasharray="6 6"/>
<path d="M407 59C406.448 59 406 59.4477 406 60C406 60.5523 406.448 61 407 61L407 60L407 59ZM473.707 60.7071C474.098 60.3166 474.098 59.6834 473.707 59.2929L467.343 52.9289C466.953 52.5384 466.319 52.5384 465.929 52.9289C465.538 53.3195 465.538 53.9526 465.929 54.3432L471.586 60L465.929 65.6569C465.538 66.0474 465.538 66.6805 465.929 67.0711C466.319 67.4616 466.953 67.4616 467.343 67.0711L473.707 60.7071ZM409.75 61C410.302 61 410.75 60.5523 410.75 60C410.75 59.4477 410.302 59 409.75 59L409.75 60L409.75 61ZM415.25 59C414.698 59 414.25 59.4477 414.25 60C414.25 60.5523 414.698 61 415.25 61L415.25 60L415.25 59ZM420.75 61C421.302 61 421.75 60.5523 421.75 60C421.75 59.4477 421.302 59 420.75 59L420.75 60L420.75 61ZM426.25 59C425.698 59 425.25 59.4477 425.25 60C425.25 60.5523 425.698 61 426.25 61L426.25 60L426.25 59ZM431.75 61C432.302 61 432.75 60.5523 432.75 60C432.75 59.4477 432.302 59 431.75 59L431.75 60L431.75 61ZM437.25 59C436.698 59 436.25 59.4477 436.25 60C436.25 60.5523 436.698 61 437.25 61L437.25 60L437.25 59ZM442.75 61C443.302 61 443.75 60.5523 443.75 60C443.75 59.4477 443.302 59 442.75 59L442.75 60L442.75 61ZM448.25 59C447.698 59 447.25 59.4477 447.25 60C447.25 60.5523 447.698 61 448.25 61L448.25 60L448.25 59ZM453.75 61C454.302 61 454.75 60.5523 454.75 60C454.75 59.4477 454.302 59 453.75 59L453.75 60L453.75 61ZM459.25 59C458.698 59 458.25 59.4477 458.25 60C458.25 60.5523 458.698 61 459.25 61L459.25 60L459.25 59ZM464.75 61C465.302 61 465.75 60.5523 465.75 60C465.75 59.4477 465.302 59 464.75 59L464.75 60L464.75 61ZM470.25 59C469.698 59 469.25 59.4477 469.25 60C469.25 60.5523 469.698 61 470.25 61L470.25 60L470.25 59ZM407 60L407 61L409.75 61L409.75 60L409.75 59L407 59L407 60ZM415.25 60L415.25 61L420.75 61L420.75 60L420.75 59L415.25 59L415.25 60ZM426.25 60L426.25 61L431.75 61L431.75 60L431.75 59L426.25 59L426.25 60ZM437.25 60L437.25 61L442.75 61L442.75 60L442.75 59L437.25 59L437.25 60ZM448.25 60L448.25 61L453.75 61L453.75 60L453.75 59L448.25 59L448.25 60ZM459.25 60L459.25 61L464.75 61L464.75 60L464.75 59L459.25 59L459.25 60ZM470.25 60L470.25 61L473 61L473 60L473 59L470.25 59L470.25 60Z" fill="#C0C0C0" fill-opacity="0.5"/>
<path d="M181 160L237 160" stroke="#C0C0C0" stroke-opacity="0.5" stroke-width="2" stroke-linecap="round" stroke-dasharray="6 6"/>
<path d="M407 159C406.448 159 406 159.448 406 160C406 160.552 406.448 161 407 161L407 160L407 159ZM473.707 160.707C474.098 160.317 474.098 159.683 473.707 159.293L467.343 152.929C466.953 152.538 466.319 152.538 465.929 152.929C465.538 153.319 465.538 153.953 465.929 154.343L471.586 160L465.929 165.657C465.538 166.047 465.538 166.681 465.929 167.071C466.319 167.462 466.953 167.462 467.343 167.071L473.707 160.707ZM409.75 161C410.302 161 410.75 160.552 410.75 160C410.75 159.448 410.302 159 409.75 159L409.75 160L409.75 161ZM415.25 159C414.698 159 414.25 159.448 414.25 160C414.25 160.552 414.698 161 415.25 161L415.25 160L415.25 159ZM420.75 161C421.302 161 421.75 160.552 421.75 160C421.75 159.448 421.302 159 420.75 159L420.75 160L420.75 161ZM426.25 159C425.698 159 425.25 159.448 425.25 160C425.25 160.552 425.698 161 426.25 161L426.25 160L426.25 159ZM431.75 161C432.302 161 432.75 160.552 432.75 160C432.75 159.448 432.302 159 431.75 159L431.75 160L431.75 161ZM437.25 159C436.698 159 436.25 159.448 436.25 160C436.25 160.552 436.698 161 437.25 161L437.25 160L437.25 159ZM442.75 161C443.302 161 443.75 160.552 443.75 160C443.75 159.448 443.302 159 442.75 159L442.75 160L442.75 161ZM448.25 159C447.698 159 447.25 159.448 447.25 160C447.25 160.552 447.698 161 448.25 161L448.25 160L448.25 159ZM453.75 161C454.302 161 454.75 160.552 454.75 160C454.75 159.448 454.302 159 453.75 159L453.75 160L453.75 161ZM459.25 159C458.698 159 458.25 159.448 458.25 160C458.25 160.552 458.698 161 459.25 161L459.25 160L459.25 159ZM464.75 161C465.302 161 465.75 160.552 465.75 160C465.75 159.448 465.302 159 464.75 159L464.75 160L464.75 161ZM470.25 159C469.698 159 469.25 159.448 469.25 160C469.25 160.552 469.698 161 470.25 161L470.25 160L470.25 159ZM407 160L407 161L409.75 161L409.75 160L409.75 159L407 159L407 160ZM415.25 160L415.25 161L420.75 161L420.75 160L420.75 159L415.25 159L415.25 160ZM426.25 160L426.25 161L431.75 161L431.75 160L431.75 159L426.25 159L426.25 160ZM437.25 160L437.25 161L442.75 161L442.75 160L442.75 159L437.25 159L437.25 160ZM448.25 160L448.25 161L453.75 161L453.75 160L453.75 159L448.25 159L448.25 160ZM459.25 160L459.25 161L464.75 161L464.75 160L464.75 159L459.25 159L459.25 160ZM470.25 160L470.25 161L473 161L473 160L473 159L470.25 159L470.25 160Z" fill="#C0C0C0" fill-opacity="0.5"/>
<path d="M181 260L237 260" stroke="#C0C0C0" stroke-opacity="0.5" stroke-width="2" stroke-linecap="round" stroke-dasharray="6 6"/>
<path d="M407 259C406.448 259 406 259.448 406 260C406 260.552 406.448 261 407 261L407 260L407 259ZM473.707 260.707C474.098 260.317 474.098 259.683 473.707 259.293L467.343 252.929C466.953 252.538 466.319 252.538 465.929 252.929C465.538 253.319 465.538 253.953 465.929 254.343L471.586 260L465.929 265.657C465.538 266.047 465.538 266.681 465.929 267.071C466.319 267.462 466.953 267.462 467.343 267.071L473.707 260.707ZM409.75 261C410.302 261 410.75 260.552 410.75 260C410.75 259.448 410.302 259 409.75 259L409.75 260L409.75 261ZM415.25 259C414.698 259 414.25 259.448 414.25 260C414.25 260.552 414.698 261 415.25 261L415.25 260L415.25 259ZM420.75 261C421.302 261 421.75 260.552 421.75 260C421.75 259.448 421.302 259 420.75 259L420.75 260L420.75 261ZM426.25 259C425.698 259 425.25 259.448 425.25 260C425.25 260.552 425.698 261 426.25 261L426.25 260L426.25 259ZM431.75 261C432.302 261 432.75 260.552 432.75 260C432.75 259.448 432.302 259 431.75 259L431.75 260L431.75 261ZM437.25 259C436.698 259 436.25 259.448 436.25 260C436.25 260.552 436.698 261 437.25 261L437.25 260L437.25 259ZM442.75 261C443.302 261 443.75 260.552 443.75 260C443.75 259.448 443.302 259 442.75 259L442.75 260L442.75 261ZM448.25 259C447.698 259 447.25 259.448 447.25 260C447.25 260.552 447.698 261 448.25 261L448.25 260L448.25 259ZM453.75 261C454.302 261 454.75 260.552 454.75 260C454.75 259.448 454.302 259 453.75 259L453.75 260L453.75 261ZM459.25 259C458.698 259 458.25 259.448 458.25 260C458.25 260.552 458.698 261 459.25 261L459.25 260L459.25 259ZM464.75 261C465.302 261 465.75 260.552 465.75 260C465.75 259.448 465.302 259 464.75 259L464.75 260L464.75 261ZM470.25 259C469.698 259 469.25 259.448 469.25 260C469.25 260.552 469.698 261 470.25 261L470.25 260L470.25 259ZM407 260L407 261L409.75 261L409.75 260L409.75 259L407 259L407 260ZM415.25 260L415.25 261L420.75 261L420.75 260L420.75 259L415.25 259L415.25 260ZM426.25 260L426.25 261L431.75 261L431.75 260L431.75 259L426.25 259L426.25 260ZM437.25 260L437.25 261L442.75 261L442.75 260L442.75 259L437.25 259L437.25 260ZM448.25 260L448.25 261L453.75 261L453.75 260L453.75 259L448.25 259L448.25 260ZM459.25 260L459.25 261L464.75 261L464.75 260L464.75 259L459.25 259L459.25 260ZM470.25 260L470.25 261L473 261L473 260L473 259L470.25 259L470.25 260Z" fill="#C0C0C0" fill-opacity="0.5"/>
<path d="M248.221 45C248.181 44.68 248.161 44.4 248.141 44.11H248.091C247.791 44.75 247.281 45.1 246.601 45.1C245.361 45.1 244.441 43.91 244.441 42.3C244.441 40.7 245.371 39.5 246.611 39.5C247.251 39.5 247.741 39.82 248.051 40.4H248.101V37.6H249.301V43.2C249.301 43.71 249.331 44.37 249.371 45H248.221ZM246.881 44C247.591 44 248.121 43.27 248.121 42.3C248.121 41.33 247.591 40.6 246.881 40.6C246.171 40.6 245.641 41.33 245.641 42.3C245.641 43.27 246.171 44 246.881 44ZM251.067 45V43.9H252.567V40.7H251.117V39.6H253.767V43.9H255.267V45H251.067ZM252.157 37.99C252.157 37.48 252.567 37.08 253.067 37.08C253.577 37.08 253.977 37.48 253.977 37.99C253.977 38.49 253.577 38.9 253.067 38.9C252.567 38.9 252.157 38.49 252.157 37.99ZM258.243 45L256.643 39.6H257.843L259.033 43.75H259.073L260.263 39.6H261.443L259.843 45H258.243ZM263.059 45V43.9H264.559V40.7H263.109V39.6H265.759V43.9H267.259V45H263.059ZM264.149 37.99C264.149 37.48 264.559 37.08 265.059 37.08C265.569 37.08 265.969 37.48 265.969 37.99C265.969 38.49 265.569 38.9 265.059 38.9C264.559 38.9 264.149 38.49 264.149 37.99ZM272.085 45C272.045 44.68 272.025 44.4 272.005 44.11H271.955C271.655 44.75 271.145 45.1 270.465 45.1C269.225 45.1 268.305 43.91 268.305 42.3C268.305 40.7 269.235 39.5 270.475 39.5C271.115 39.5 271.605 39.82 271.915 40.4H271.965V37.6H273.165V43.2C273.165 43.71 273.195 44.37 273.235 45H272.085ZM270.745 44C271.455 44 271.985 43.27 271.985 42.3C271.985 41.33 271.455 40.6 270.745 40.6C270.035 40.6 269.505 41.33 269.505 42.3C269.505 43.27 270.035 44 270.745 44ZM276.031 42.63C276.131 43.52 276.591 44.05 277.311 44.05C277.761 44.05 278.121 43.84 278.241 43.5H279.381C279.201 44.46 278.371 45.1 277.311 45.1C275.861 45.1 274.831 43.92 274.831 42.27C274.831 40.65 275.821 39.5 277.201 39.5C278.551 39.5 279.481 40.59 279.481 42.18V42.63H276.031ZM277.201 40.52C276.621 40.52 276.201 40.96 276.061 41.69H278.281C278.221 40.98 277.791 40.52 277.201 40.52ZM283.707 46.7C282.397 45.46 281.647 43.71 281.647 41.9C281.647 40.09 282.397 38.34 283.707 37.1H285.127C283.667 38.45 282.897 40.11 282.897 41.9C282.897 43.69 283.667 45.35 285.127 46.7H283.707ZM286.233 45V39.6H287.283V40.22H287.323C287.473 39.77 287.853 39.5 288.303 39.5C288.733 39.5 289.073 39.74 289.253 40.18H289.293C289.513 39.73 289.893 39.5 290.383 39.5C291.143 39.5 291.623 40.05 291.623 40.9V45H290.473V41.1C290.473 40.73 290.303 40.5 290.033 40.5C289.723 40.5 289.503 40.81 289.503 41.26V45H288.353V41.1C288.353 40.73 288.193 40.5 287.923 40.5C287.603 40.5 287.383 40.83 287.383 41.3V45H286.233ZM296.32 41.25C296.32 40.79 295.99 40.5 295.43 40.5C294.92 40.5 294.55 40.74 294.51 41.1H293.34C293.35 40.17 294.23 39.5 295.45 39.5C296.69 39.5 297.52 40.2 297.52 41.24V43.07C297.52 43.8 297.59 44.45 297.72 45H296.56C296.5 44.8 296.45 44.56 296.41 44.3H296.36C296.07 44.81 295.57 45.1 294.91 45.1C293.88 45.1 293.16 44.42 293.16 43.44C293.16 42.44 293.92 41.89 295.51 41.75L295.84 41.72C296.18 41.69 296.32 41.55 296.32 41.25ZM295.16 44.15C295.81 44.15 296.32 43.63 296.32 42.96V42.4C296.21 42.46 296.08 42.5 295.93 42.52L295.61 42.56C294.73 42.67 294.36 42.93 294.36 43.42C294.36 43.86 294.67 44.15 295.16 44.15ZM300.366 45H299.166V39.6H300.316V40.33H300.356C300.676 39.82 301.166 39.53 301.766 39.53C302.646 39.53 303.266 40.14 303.366 41.1H302.126C302.046 40.78 301.766 40.58 301.406 40.58C300.796 40.58 300.366 41.15 300.366 41.98V45ZM304.812 45V37.6H306.012V41.94L308.042 39.6H309.522L307.582 41.78L309.662 45H308.282L306.782 42.67L306.012 43.54V45H304.812ZM311.108 46.6L312.318 43.6H313.918L312.208 46.6H311.108ZM324.2 45V39.1H322.22V38H327.42V39.1H325.45V45H324.2ZM331.856 41.25C331.856 40.79 331.526 40.5 330.966 40.5C330.456 40.5 330.086 40.74 330.046 41.1H328.876C328.886 40.17 329.766 39.5 330.986 39.5C332.226 39.5 333.056 40.2 333.056 41.24V43.07C333.056 43.8 333.126 44.45 333.256 45H332.096C332.036 44.8 331.986 44.56 331.946 44.3H331.896C331.606 44.81 331.106 45.1 330.446 45.1C329.416 45.1 328.696 44.42 328.696 43.44C328.696 42.44 329.456 41.89 331.046 41.75L331.376 41.72C331.716 41.69 331.856 41.55 331.856 41.25ZM330.696 44.15C331.346 44.15 331.856 43.63 331.856 42.96V42.4C331.746 42.46 331.616 42.5 331.466 42.52L331.146 42.56C330.266 42.67 329.896 42.93 329.896 43.42C329.896 43.86 330.206 44.15 330.696 44.15ZM334.922 45V37.6H336.122V40.4H336.162C336.472 39.81 336.962 39.5 337.612 39.5C338.882 39.5 339.782 40.67 339.782 42.3C339.782 43.93 338.882 45.1 337.612 45.1C336.922 45.1 336.412 44.75 336.112 44.1H336.072V45H334.922ZM337.342 44C338.072 44 338.582 43.3 338.582 42.3C338.582 41.3 338.072 40.6 337.342 40.6C336.612 40.6 336.102 41.3 336.102 42.3C336.102 43.3 336.612 44 337.342 44ZM343.388 43.07C343.388 43.75 343.708 44.08 344.368 44.08C344.648 44.08 344.948 44.02 345.238 43.89V44.89C344.938 45.03 344.548 45.1 344.138 45.1C342.858 45.1 342.188 44.4 342.188 43.07V38.7H340.638V37.6H343.388V43.07ZM347.864 42.63C347.964 43.52 348.424 44.05 349.144 44.05C349.594 44.05 349.954 43.84 350.074 43.5H351.214C351.034 44.46 350.204 45.1 349.144 45.1C347.694 45.1 346.664 43.92 346.664 42.27C346.664 40.65 347.654 39.5 349.034 39.5C350.384 39.5 351.314 40.59 351.314 42.18V42.63H347.864ZM349.034 40.52C348.454 40.52 348.034 40.96 347.894 41.69H350.114C350.054 40.98 349.624 40.52 349.034 40.52ZM353.08 46.6L354.29 43.6H355.89L354.18 46.6H353.08ZM367.833 41.25C367.833 40.79 367.503 40.5 366.943 40.5C366.433 40.5 366.063 40.74 366.023 41.1H364.853C364.863 40.17 365.743 39.5 366.963 39.5C368.203 39.5 369.033 40.2 369.033 41.24V43.07C369.033 43.8 369.103 44.45 369.233 45H368.073C368.013 44.8 367.963 44.56 367.923 44.3H367.873C367.583 44.81 367.083 45.1 366.423 45.1C365.393 45.1 364.673 44.42 364.673 43.44C364.673 42.44 365.433 41.89 367.023 41.75L367.353 41.72C367.693 41.69 367.833 41.55 367.833 41.25ZM366.673 44.15C367.323 44.15 367.833 43.63 367.833 42.96V42.4C367.723 42.46 367.593 42.5 367.443 42.52L367.123 42.56C366.243 42.67 365.873 42.93 365.873 43.42C365.873 43.86 366.183 44.15 366.673 44.15ZM373.339 43.07C373.339 43.75 373.659 44.08 374.319 44.08C374.599 44.08 374.899 44.02 375.189 43.89V44.89C374.889 45.03 374.499 45.1 374.089 45.1C372.809 45.1 372.139 44.4 372.139 43.07V40.7H370.739V39.6H372.139V38.11L373.339 37.9V39.6H375.089V40.7H373.339V43.07ZM379.215 43.07C379.215 43.75 379.535 44.08 380.195 44.08C380.475 44.08 380.775 44.02 381.065 43.89V44.89C380.765 45.03 380.375 45.1 379.965 45.1C378.685 45.1 378.015 44.4 378.015 43.07V40.7H376.615V39.6H378.015V38.11L379.215 37.9V39.6H380.965V40.7H379.215V43.07ZM384.311 45H383.111V39.6H384.261V40.33H384.301C384.621 39.82 385.111 39.53 385.711 39.53C386.591 39.53 387.211 40.14 387.311 41.1H386.071C385.991 40.78 385.711 40.58 385.351 40.58C384.741 40.58 384.311 41.15 384.311 41.98V45ZM388.707 45V43.9H390.457V39.31L388.707 40.36V39.12L390.557 38H391.707V43.9H393.407V45H388.707ZM396.273 46.3H394.853C396.313 44.95 397.083 43.29 397.083 41.5C397.083 39.71 396.313 38.05 394.853 36.7H396.273C397.583 37.94 398.333 39.69 398.333 41.5C398.333 43.31 397.583 45.06 396.273 46.3Z" fill="#666666"/>
<path d="M584 58H624" stroke="#F28E2B" stroke-width="2" stroke-linecap="round"/>
<path d="M634 58H674" stroke="#4E79A7" stroke-width="2" stroke-linecap="round"/>
<path d="M684 58H724" stroke="#E15759" stroke-width="2" stroke-linecap="round"/>
<path d="M734 58H774" stroke="#59A14F" stroke-width="2" stroke-linecap="round"/>
<rect x="556.5" y="130.5" width="11.8328" height="59" rx="2.38961" fill="#FDEBD8" stroke="#F8BF87"/>
<rect x="572.222" y="130.5" width="11.8328" height="59" rx="2.38961" fill="#D9E5F2" stroke="#99B2CC"/>
<rect x="587.945" y="130.5" width="11.8328" height="59" rx="2.38961" fill="#F3BEBF" stroke="#E77E80"/>
<rect x="603.667" y="130.5" width="11.8328" height="59" rx="2.38961" fill="#DFECDF" stroke="#AFCFAF"/>
<path d="M524.129 208.094C522.853 208.094 521.915 206.996 521.915 205.467C521.915 203.938 522.853 202.841 524.129 202.841C525.405 202.841 526.343 203.938 526.343 205.467C526.343 206.996 525.405 208.094 524.129 208.094ZM524.129 207.381C524.964 207.381 525.546 206.593 525.546 205.467C525.546 204.342 524.964 203.554 524.129 203.554C523.294 203.554 522.713 204.342 522.713 205.467C522.713 206.593 523.294 207.381 524.129 207.381ZM529.088 208H528.3V202.934H529.041V203.751H529.078C529.36 203.197 529.866 202.869 530.495 202.869C531.292 202.869 531.865 203.403 531.958 204.229H531.152C531.067 203.816 530.729 203.563 530.289 203.563C529.585 203.563 529.088 204.201 529.088 205.12V208ZM533.465 208V207.296H534.985V203.638H533.512V202.934H535.773V207.296H537.292V208H533.465ZM534.581 201.302C534.581 200.918 534.9 200.617 535.275 200.617C535.66 200.617 535.97 200.918 535.97 201.302C535.97 201.687 535.66 201.996 535.275 201.996C534.9 201.996 534.581 201.687 534.581 201.302ZM539.568 205.617C539.625 206.696 540.197 207.4 541.06 207.4C541.585 207.4 542.007 207.128 542.157 206.705H542.908C542.72 207.54 541.97 208.094 541.041 208.094C539.728 208.094 538.79 206.987 538.79 205.439C538.79 203.919 539.681 202.841 540.938 202.841C542.157 202.841 543.002 203.854 543.002 205.317V205.617H539.568ZM540.938 203.525C540.234 203.525 539.728 204.098 539.596 204.998H542.223C542.185 204.107 541.651 203.525 540.938 203.525ZM544.93 208V202.934H545.671V203.704H545.709C545.981 203.16 546.478 202.841 547.116 202.841C548.054 202.841 548.673 203.535 548.673 204.576V208H547.885V204.642C547.885 203.948 547.519 203.507 546.938 203.507C546.225 203.507 545.718 204.154 545.718 205.073V208H544.93ZM552.319 206.302C552.319 207.062 552.647 207.428 553.322 207.428C553.604 207.428 553.885 207.362 554.167 207.221V207.878C553.904 208.019 553.566 208.094 553.191 208.094C552.103 208.094 551.531 207.475 551.531 206.302V203.638H550.105V202.934H551.531V201.471L552.319 201.34V202.934H554.073V203.638H552.319V206.302ZM558.929 204.388C558.929 203.844 558.535 203.507 557.887 203.507C557.287 203.507 556.837 203.797 556.78 204.229H556.011C556.049 203.422 556.837 202.841 557.887 202.841C558.985 202.841 559.716 203.46 559.716 204.398V206.19C559.716 206.977 559.773 207.559 559.904 208H559.154C559.079 207.794 559.022 207.522 558.985 207.193H558.947C558.656 207.765 558.122 208.094 557.437 208.094C556.49 208.094 555.823 207.465 555.823 206.555C555.823 205.627 556.518 205.12 557.944 204.989L558.413 204.942C558.769 204.904 558.929 204.735 558.929 204.388ZM558.929 205.326C558.816 205.411 558.666 205.458 558.478 205.486L558.028 205.533C557.043 205.655 556.611 205.955 556.611 206.537C556.611 207.09 556.996 207.447 557.578 207.447C558.328 207.447 558.929 206.837 558.929 206.03V205.326ZM563.681 206.302C563.681 207.062 564.009 207.428 564.685 207.428C564.966 207.428 565.247 207.362 565.529 207.221V207.878C565.266 208.019 564.929 208.094 564.553 208.094C563.465 208.094 562.893 207.475 562.893 206.302V203.638H561.467V202.934H562.893V201.471L563.681 201.34V202.934H565.435V203.638H563.681V206.302ZM567.214 208V207.296H568.733V203.638H567.261V202.934H569.521V207.296H571.041V208H567.214ZM568.33 201.302C568.33 200.918 568.649 200.617 569.024 200.617C569.409 200.617 569.718 200.918 569.718 201.302C569.718 201.687 569.409 201.996 569.024 201.996C568.649 201.996 568.33 201.687 568.33 201.302ZM574.64 208.094C573.364 208.094 572.426 206.996 572.426 205.467C572.426 203.938 573.364 202.841 574.64 202.841C575.915 202.841 576.854 203.938 576.854 205.467C576.854 206.996 575.915 208.094 574.64 208.094ZM574.64 207.381C575.475 207.381 576.056 206.593 576.056 205.467C576.056 204.342 575.475 203.554 574.64 203.554C573.805 203.554 573.223 204.342 573.223 205.467C573.223 206.593 573.805 207.381 574.64 207.381ZM578.679 208V202.934H579.42V203.704H579.458C579.73 203.16 580.227 202.841 580.865 202.841C581.803 202.841 582.422 203.535 582.422 204.576V208H581.634V204.642C581.634 203.948 581.268 203.507 580.687 203.507C579.974 203.507 579.467 204.154 579.467 205.073V208H578.679ZM585.28 207.353C585.28 206.949 585.608 206.63 586.002 206.63C586.405 206.63 586.724 206.949 586.724 207.353C586.724 207.756 586.405 208.075 586.002 208.075C585.608 208.075 585.28 207.756 585.28 207.353ZM585.28 203.582C585.28 203.178 585.608 202.859 586.002 202.859C586.405 202.859 586.724 203.178 586.724 203.582C586.724 203.976 586.405 204.304 586.002 204.304C585.608 204.304 585.28 203.976 585.28 203.582ZM595.16 208V201.049H596.285V203.554H596.323C596.595 203.094 597.017 202.841 597.58 202.841C598.499 202.841 599.099 203.525 599.099 204.576V208H597.974V204.67C597.974 204.116 597.702 203.779 597.251 203.779C596.689 203.779 596.285 204.304 596.285 205.045V208H595.16ZM602.989 208.094C601.675 208.094 600.709 206.987 600.709 205.467C600.709 203.948 601.675 202.841 602.989 202.841C604.302 202.841 605.268 203.948 605.268 205.467C605.268 206.987 604.302 208.094 602.989 208.094ZM602.989 207.062C603.674 207.062 604.143 206.415 604.143 205.467C604.143 204.52 603.674 203.872 602.989 203.872C602.304 203.872 601.835 204.52 601.835 205.467C601.835 206.415 602.304 207.062 602.989 207.062ZM608.004 208H606.878V202.934H607.957V203.619H607.994C608.295 203.141 608.754 202.869 609.317 202.869C610.143 202.869 610.724 203.441 610.818 204.342H609.655C609.58 204.041 609.317 203.854 608.979 203.854C608.407 203.854 608.004 204.388 608.004 205.167V208ZM612.156 208V206.968H613.563V203.966H612.203V202.934H614.689V206.968H616.096V208H612.156ZM613.178 201.424C613.178 200.946 613.563 200.57 614.032 200.57C614.51 200.57 614.886 200.946 614.886 201.424C614.886 201.893 614.51 202.278 614.032 202.278C613.563 202.278 613.178 201.893 613.178 201.424ZM617.659 208V207.109L620.051 203.919H617.752V202.934H621.439V203.826L619.047 207.015H621.599V208H617.659ZM625.375 208.094C624.062 208.094 623.096 206.987 623.096 205.467C623.096 203.948 624.062 202.841 625.375 202.841C626.689 202.841 627.655 203.948 627.655 205.467C627.655 206.987 626.689 208.094 625.375 208.094ZM625.375 207.062C626.06 207.062 626.529 206.415 626.529 205.467C626.529 204.52 626.06 203.872 625.375 203.872C624.691 203.872 624.222 204.52 624.222 205.467C624.222 206.415 624.691 207.062 625.375 207.062ZM629.19 208V202.934H630.268V203.6H630.306C630.569 203.113 631.019 202.841 631.601 202.841C632.529 202.841 633.13 203.525 633.13 204.576V208H632.004V204.67C632.004 204.116 631.732 203.779 631.282 203.779C630.719 203.779 630.315 204.304 630.315 205.045V208H629.19ZM636.86 206.19C636.86 206.827 637.16 207.137 637.779 207.137C638.041 207.137 638.323 207.081 638.595 206.959V207.897C638.314 208.028 637.948 208.094 637.563 208.094C636.362 208.094 635.734 207.437 635.734 206.19V203.966H634.421V202.934H635.734V201.537L636.86 201.34V202.934H638.501V203.966H636.86V206.19ZM643.057 204.482C643.057 204.051 642.747 203.779 642.222 203.779C641.743 203.779 641.396 204.004 641.359 204.342H640.261C640.27 203.469 641.096 202.841 642.24 202.841C643.404 202.841 644.182 203.497 644.182 204.473V206.19C644.182 206.874 644.248 207.484 644.37 208H643.282C643.225 207.812 643.178 207.587 643.141 207.343H643.094C642.822 207.822 642.353 208.094 641.734 208.094C640.768 208.094 640.092 207.456 640.092 206.537C640.092 205.599 640.805 205.083 642.297 204.951L642.606 204.923C642.925 204.895 643.057 204.764 643.057 204.482ZM641.968 207.203C642.578 207.203 643.057 206.715 643.057 206.086V205.561C642.953 205.617 642.831 205.655 642.691 205.674L642.39 205.711C641.565 205.814 641.218 206.058 641.218 206.518C641.218 206.931 641.509 207.203 641.968 207.203ZM648.362 206.19C648.362 206.827 648.663 207.137 649.282 207.137C649.544 207.137 649.826 207.081 650.098 206.959V207.897C649.816 208.028 649.451 208.094 649.066 208.094C647.865 208.094 647.237 207.437 647.237 206.19V202.09H645.783V201.058H648.362V206.19Z" fill="black"/>
<rect x="801.5" y="136" width="10.3328" height="59" rx="2.38961" transform="rotate(90 801.5 136)" fill="#FDEBD8" stroke="#F8BF87"/>
<rect x="801.5" y="150.222" width="10.3328" height="59" rx="2.38961" transform="rotate(90 801.5 150.222)" fill="#D9E5F2" stroke="#99B2CC"/>
<rect x="801.5" y="164.445" width="10.3328" height="59" rx="2.38961" transform="rotate(90 801.5 164.445)" fill="#F3BEBF" stroke="#E77E80"/>
<rect x="801.5" y="178.667" width="10.3328" height="59" rx="2.38961" transform="rotate(90 801.5 178.667)" fill="#DFECDF" stroke="#AFCFAF"/>
<path d="M715.754 208.594C714.478 208.594 713.54 207.496 713.54 205.967C713.54 204.438 714.478 203.341 715.754 203.341C717.03 203.341 717.968 204.438 717.968 205.967C717.968 207.496 717.03 208.594 715.754 208.594ZM715.754 207.881C716.589 207.881 717.17 207.093 717.17 205.967C717.17 204.842 716.589 204.054 715.754 204.054C714.919 204.054 714.337 204.842 714.337 205.967C714.337 207.093 714.919 207.881 715.754 207.881ZM720.713 208.5H719.925V203.434H720.666V204.251H720.703C720.985 203.697 721.491 203.369 722.12 203.369C722.917 203.369 723.489 203.903 723.583 204.729H722.776C722.692 204.316 722.354 204.063 721.913 204.063C721.21 204.063 720.713 204.701 720.713 205.62V208.5ZM725.09 208.5V207.796H726.609V204.138H725.137V203.434H727.397V207.796H728.917V208.5H725.09ZM726.206 201.802C726.206 201.418 726.525 201.117 726.9 201.117C727.285 201.117 727.594 201.418 727.594 201.802C727.594 202.187 727.285 202.496 726.9 202.496C726.525 202.496 726.206 202.187 726.206 201.802ZM731.193 206.117C731.249 207.196 731.822 207.9 732.685 207.9C733.21 207.9 733.632 207.628 733.782 207.205H734.533C734.345 208.04 733.594 208.594 732.666 208.594C731.352 208.594 730.414 207.487 730.414 205.939C730.414 204.419 731.306 203.341 732.563 203.341C733.782 203.341 734.626 204.354 734.626 205.817V206.117H731.193ZM732.563 204.025C731.859 204.025 731.352 204.598 731.221 205.498H733.848C733.81 204.607 733.276 204.025 732.563 204.025ZM736.555 208.5V203.434H737.296V204.204H737.334C737.606 203.66 738.103 203.341 738.741 203.341C739.679 203.341 740.298 204.035 740.298 205.076V208.5H739.51V205.142C739.51 204.448 739.144 204.007 738.563 204.007C737.85 204.007 737.343 204.654 737.343 205.573V208.5H736.555ZM743.944 206.802C743.944 207.562 744.272 207.928 744.947 207.928C745.229 207.928 745.51 207.862 745.792 207.721V208.378C745.529 208.519 745.191 208.594 744.816 208.594C743.728 208.594 743.156 207.975 743.156 206.802V204.138H741.73V203.434H743.156V201.971L743.944 201.84V203.434H745.698V204.138H743.944V206.802ZM750.553 204.888C750.553 204.344 750.159 204.007 749.512 204.007C748.912 204.007 748.461 204.297 748.405 204.729H747.636C747.673 203.922 748.461 203.341 749.512 203.341C750.61 203.341 751.341 203.96 751.341 204.898V206.69C751.341 207.477 751.398 208.059 751.529 208.5H750.778C750.703 208.294 750.647 208.022 750.61 207.693H750.572C750.281 208.265 749.747 208.594 749.062 208.594C748.114 208.594 747.448 207.965 747.448 207.055C747.448 206.127 748.142 205.62 749.568 205.489L750.037 205.442C750.394 205.404 750.553 205.235 750.553 204.888ZM750.553 205.826C750.441 205.911 750.291 205.958 750.103 205.986L749.653 206.033C748.668 206.155 748.236 206.455 748.236 207.037C748.236 207.59 748.621 207.947 749.202 207.947C749.953 207.947 750.553 207.337 750.553 206.53V205.826ZM755.306 206.802C755.306 207.562 755.634 207.928 756.309 207.928C756.591 207.928 756.872 207.862 757.154 207.721V208.378C756.891 208.519 756.553 208.594 756.178 208.594C755.09 208.594 754.518 207.975 754.518 206.802V204.138H753.092V203.434H754.518V201.971L755.306 201.84V203.434H757.06V204.138H755.306V206.802ZM758.839 208.5V207.796H760.358V204.138H758.885V203.434H761.146V207.796H762.666V208.5H758.839ZM759.955 201.802C759.955 201.418 760.274 201.117 760.649 201.117C761.034 201.117 761.343 201.418 761.343 201.802C761.343 202.187 761.034 202.496 760.649 202.496C760.274 202.496 759.955 202.187 759.955 201.802ZM766.264 208.594C764.989 208.594 764.051 207.496 764.051 205.967C764.051 204.438 764.989 203.341 766.264 203.341C767.54 203.341 768.478 204.438 768.478 205.967C768.478 207.496 767.54 208.594 766.264 208.594ZM766.264 207.881C767.099 207.881 767.681 207.093 767.681 205.967C767.681 204.842 767.099 204.054 766.264 204.054C765.43 204.054 764.848 204.842 764.848 205.967C764.848 207.093 765.43 207.881 766.264 207.881ZM770.304 208.5V203.434H771.045V204.204H771.083C771.355 203.66 771.852 203.341 772.49 203.341C773.428 203.341 774.047 204.035 774.047 205.076V208.5H773.259V205.142C773.259 204.448 772.893 204.007 772.311 204.007C771.598 204.007 771.092 204.654 771.092 205.573V208.5H770.304ZM776.904 207.853C776.904 207.449 777.233 207.13 777.627 207.13C778.03 207.13 778.349 207.449 778.349 207.853C778.349 208.256 778.03 208.575 777.627 208.575C777.233 208.575 776.904 208.256 776.904 207.853ZM776.904 204.082C776.904 203.678 777.233 203.359 777.627 203.359C778.03 203.359 778.349 203.678 778.349 204.082C778.349 204.476 778.03 204.804 777.627 204.804C777.233 204.804 776.904 204.476 776.904 204.082ZM787.957 208.5L786.456 203.434H787.582L788.698 207.327H788.736L789.852 203.434H790.959L789.458 208.5H787.957ZM793.563 206.277C793.657 207.112 794.088 207.609 794.764 207.609C795.186 207.609 795.524 207.412 795.636 207.093H796.705C796.537 207.993 795.758 208.594 794.764 208.594C793.403 208.594 792.437 207.487 792.437 205.939C792.437 204.419 793.366 203.341 794.66 203.341C795.927 203.341 796.799 204.363 796.799 205.855V206.277H793.563ZM794.66 204.297C794.116 204.297 793.722 204.71 793.591 205.395H795.674C795.617 204.729 795.214 204.297 794.66 204.297ZM799.629 208.5H798.503V203.434H799.582V204.119H799.619C799.919 203.641 800.379 203.369 800.942 203.369C801.767 203.369 802.349 203.941 802.443 204.842H801.28C801.205 204.541 800.942 204.354 800.604 204.354C800.032 204.354 799.629 204.888 799.629 205.667V208.5ZM805.985 206.69C805.985 207.327 806.285 207.637 806.904 207.637C807.167 207.637 807.449 207.581 807.721 207.459V208.397C807.439 208.528 807.073 208.594 806.689 208.594C805.488 208.594 804.859 207.937 804.859 206.69V204.466H803.546V203.434H804.859V202.037L805.985 201.84V203.434H807.627V204.466H805.985V206.69ZM809.405 208.5V207.468H810.813V204.466H809.452V203.434H811.938V207.468H813.345V208.5H809.405ZM810.428 201.924C810.428 201.446 810.813 201.07 811.282 201.07C811.76 201.07 812.135 201.446 812.135 201.924C812.135 202.393 811.76 202.778 811.282 202.778C810.813 202.778 810.428 202.393 810.428 201.924ZM817.929 207.093H819.073C818.886 207.984 818.06 208.594 817.066 208.594C815.715 208.594 814.721 207.459 814.721 205.939C814.721 204.429 815.696 203.341 817.047 203.341C818.06 203.341 818.867 203.95 819.008 204.842H817.882C817.76 204.551 817.45 204.372 817.047 204.372C816.306 204.372 815.846 204.982 815.846 205.93C815.846 206.915 816.334 207.562 817.113 207.562C817.516 207.562 817.826 207.384 817.929 207.093ZM823.544 204.982C823.544 204.551 823.235 204.279 822.709 204.279C822.231 204.279 821.884 204.504 821.846 204.842H820.749C820.758 203.969 821.584 203.341 822.728 203.341C823.891 203.341 824.67 203.997 824.67 204.973V206.69C824.67 207.374 824.736 207.984 824.858 208.5H823.769C823.713 208.312 823.666 208.087 823.629 207.843H823.582C823.31 208.322 822.841 208.594 822.222 208.594C821.255 208.594 820.58 207.956 820.58 207.037C820.58 206.099 821.293 205.583 822.784 205.451L823.094 205.423C823.413 205.395 823.544 205.264 823.544 204.982ZM822.456 207.703C823.066 207.703 823.544 207.215 823.544 206.586V206.061C823.441 206.117 823.319 206.155 823.178 206.174L822.878 206.211C822.053 206.314 821.706 206.558 821.706 207.018C821.706 207.431 821.996 207.703 822.456 207.703ZM828.738 206.69C828.738 207.327 829.038 207.637 829.657 207.637C829.92 207.637 830.201 207.581 830.473 207.459V208.397C830.192 208.528 829.826 208.594 829.441 208.594C828.24 208.594 827.612 207.937 827.612 206.69V202.59H826.158V201.558H828.738V206.69Z" fill="black"/>
<circle cx="585.722" cy="259.722" r="30.4647" stroke="white" stroke-width="1.48609"/>
<path d="M587.007 229.576C590.708 229.631 594.367 230.384 597.789 231.801C601.343 233.273 604.572 235.431 607.292 238.152C610.012 240.872 612.17 244.101 613.642 247.655C615.06 251.076 615.813 254.735 615.867 258.436H587.007V229.576Z" fill="#FDEBD8" stroke="#F8BF87" stroke-width="0.857143"/>
<path d="M584.436 229.576C580.735 229.631 577.076 230.384 573.654 231.801C570.1 233.273 566.872 235.431 564.151 238.152C561.431 240.872 559.273 244.101 557.801 247.655C556.384 251.076 555.63 254.735 555.576 258.436H584.436V229.576Z" fill="#DFECDF" stroke="#AFCFAF" stroke-width="0.857143"/>
<path d="M584.436 289.867C580.735 289.813 577.076 289.06 573.654 287.642C570.1 286.17 566.872 284.012 564.151 281.292C561.431 278.572 559.273 275.343 557.801 271.789C556.384 268.367 555.63 264.708 555.576 261.008H584.436V289.867Z" fill="#F3BEBF" stroke="#E77E80" stroke-width="0.857143"/>
<path d="M587.007 289.867C590.708 289.813 594.367 289.06 597.789 287.642C601.343 286.17 604.572 284.012 607.292 281.292C610.012 278.572 612.17 275.343 613.642 271.789C615.06 268.367 615.813 264.708 615.867 261.008H587.007V289.867Z" fill="#D9E5F2" stroke="#99B2CC" stroke-width="0.857143"/>
<path d="M532.566 308.094C531.291 308.094 530.352 306.996 530.352 305.467C530.352 303.938 531.291 302.841 532.566 302.841C533.842 302.841 534.78 303.938 534.78 305.467C534.78 306.996 533.842 308.094 532.566 308.094ZM532.566 307.381C533.401 307.381 533.983 306.593 533.983 305.467C533.983 304.342 533.401 303.554 532.566 303.554C531.731 303.554 531.15 304.342 531.15 305.467C531.15 306.593 531.731 307.381 532.566 307.381ZM537.525 308H536.737V302.934H537.478V303.751H537.516C537.797 303.197 538.304 302.869 538.932 302.869C539.73 302.869 540.302 303.403 540.396 304.229H539.589C539.504 303.816 539.167 303.563 538.726 303.563C538.022 303.563 537.525 304.201 537.525 305.12V308ZM541.902 308V307.296H543.422V303.638H541.949V302.934H544.21V307.296H545.73V308H541.902ZM543.019 301.302C543.019 300.918 543.337 300.617 543.713 300.617C544.097 300.617 544.407 300.918 544.407 301.302C544.407 301.687 544.097 301.996 543.713 301.996C543.337 301.996 543.019 301.687 543.019 301.302ZM548.005 305.617C548.062 306.696 548.634 307.4 549.497 307.4C550.022 307.4 550.444 307.128 550.595 306.705H551.345C551.157 307.54 550.407 308.094 549.478 308.094C548.165 308.094 547.227 306.987 547.227 305.439C547.227 303.919 548.118 302.841 549.375 302.841C550.595 302.841 551.439 303.854 551.439 305.317V305.617H548.005ZM549.375 303.525C548.671 303.525 548.165 304.098 548.034 304.998H550.66C550.623 304.107 550.088 303.525 549.375 303.525ZM553.368 308V302.934H554.109V303.704H554.146C554.418 303.16 554.915 302.841 555.553 302.841C556.491 302.841 557.11 303.535 557.11 304.576V308H556.322V304.642C556.322 303.948 555.957 303.507 555.375 303.507C554.662 303.507 554.156 304.154 554.156 305.073V308H553.368ZM560.756 306.302C560.756 307.062 561.084 307.428 561.76 307.428C562.041 307.428 562.323 307.362 562.604 307.221V307.878C562.341 308.019 562.004 308.094 561.628 308.094C560.54 308.094 559.968 307.475 559.968 306.302V303.638H558.542V302.934H559.968V301.471L560.756 301.34V302.934H562.51V303.638H560.756V306.302ZM567.366 304.388C567.366 303.844 566.972 303.507 566.324 303.507C565.724 303.507 565.274 303.797 565.218 304.229H564.448C564.486 303.422 565.274 302.841 566.324 302.841C567.422 302.841 568.154 303.46 568.154 304.398V306.19C568.154 306.977 568.21 307.559 568.341 308H567.591C567.516 307.794 567.46 307.522 567.422 307.193H567.384C567.094 307.765 566.559 308.094 565.874 308.094C564.927 308.094 564.261 307.465 564.261 306.555C564.261 305.627 564.955 305.12 566.381 304.989L566.85 304.942C567.206 304.904 567.366 304.735 567.366 304.388ZM567.366 305.326C567.253 305.411 567.103 305.458 566.915 305.486L566.465 305.533C565.48 305.655 565.049 305.955 565.049 306.537C565.049 307.09 565.433 307.447 566.015 307.447C566.765 307.447 567.366 306.837 567.366 306.03V305.326ZM572.118 306.302C572.118 307.062 572.446 307.428 573.122 307.428C573.403 307.428 573.685 307.362 573.966 307.221V307.878C573.703 308.019 573.366 308.094 572.99 308.094C571.902 308.094 571.33 307.475 571.33 306.302V303.638H569.904V302.934H571.33V301.471L572.118 301.34V302.934H573.872V303.638H572.118V306.302ZM575.651 308V307.296H577.171V303.638H575.698V302.934H577.959V307.296H579.478V308H575.651ZM576.767 301.302C576.767 300.918 577.086 300.617 577.461 300.617C577.846 300.617 578.156 300.918 578.156 301.302C578.156 301.687 577.846 301.996 577.461 301.996C577.086 301.996 576.767 301.687 576.767 301.302ZM583.077 308.094C581.801 308.094 580.863 306.996 580.863 305.467C580.863 303.938 581.801 302.841 583.077 302.841C584.353 302.841 585.291 303.938 585.291 305.467C585.291 306.996 584.353 308.094 583.077 308.094ZM583.077 307.381C583.912 307.381 584.493 306.593 584.493 305.467C584.493 304.342 583.912 303.554 583.077 303.554C582.242 303.554 581.66 304.342 581.66 305.467C581.66 306.593 582.242 307.381 583.077 307.381ZM587.116 308V302.934H587.857V303.704H587.895C588.167 303.16 588.664 302.841 589.302 302.841C590.24 302.841 590.859 303.535 590.859 304.576V308H590.071V304.642C590.071 303.948 589.705 303.507 589.124 303.507C588.411 303.507 587.904 304.154 587.904 305.073V308H587.116ZM593.717 307.353C593.717 306.949 594.045 306.63 594.439 306.63C594.842 306.63 595.161 306.949 595.161 307.353C595.161 307.756 594.842 308.075 594.439 308.075C594.045 308.075 593.717 307.756 593.717 307.353ZM593.717 303.582C593.717 303.178 594.045 302.859 594.439 302.859C594.842 302.859 595.161 303.178 595.161 303.582C595.161 303.976 594.842 304.304 594.439 304.304C594.045 304.304 593.717 303.976 593.717 303.582ZM606.383 304.482C606.383 304.051 606.073 303.779 605.548 303.779C605.069 303.779 604.722 304.004 604.685 304.342H603.587C603.597 303.469 604.422 302.841 605.567 302.841C606.73 302.841 607.508 303.497 607.508 304.473V306.19C607.508 306.874 607.574 307.484 607.696 308H606.608C606.552 307.812 606.505 307.587 606.467 307.343H606.42C606.148 307.822 605.679 308.094 605.06 308.094C604.094 308.094 603.418 307.456 603.418 306.537C603.418 305.599 604.131 305.083 605.623 304.951L605.933 304.923C606.251 304.895 606.383 304.764 606.383 304.482ZM605.295 307.203C605.904 307.203 606.383 306.715 606.383 306.086V305.561C606.28 305.617 606.158 305.655 606.017 305.674L605.717 305.711C604.891 305.814 604.544 306.058 604.544 306.518C604.544 306.931 604.835 307.203 605.295 307.203ZM609.39 308V302.934H610.469V303.6H610.507C610.769 303.113 611.22 302.841 611.801 302.841C612.73 302.841 613.33 303.525 613.33 304.576V308H612.205V304.67C612.205 304.116 611.933 303.779 611.482 303.779C610.919 303.779 610.516 304.304 610.516 305.045V308H609.39ZM614.987 304.604C614.987 303.582 615.775 302.841 616.863 302.841C617.088 302.841 617.304 302.869 617.501 302.934H619.255V303.872H618.608V303.919C618.692 304.126 618.739 304.36 618.739 304.604C618.739 305.627 617.951 306.368 616.863 306.368C616.582 306.368 616.328 306.321 616.103 306.227C616.01 306.311 615.953 306.415 615.953 306.537C615.953 306.724 616.085 306.856 616.282 306.856H617.576C618.627 306.856 619.302 307.39 619.302 308.235C619.302 309.257 618.317 309.97 616.891 309.97C615.587 309.97 614.659 309.351 614.659 308.478C614.659 308.009 614.921 307.644 615.362 307.428V307.39C615.146 307.203 615.015 306.931 615.015 306.621C615.015 306.274 615.175 305.993 615.447 305.805C615.156 305.495 614.987 305.083 614.987 304.604ZM616.282 307.887C615.934 307.887 615.691 308.094 615.691 308.375C615.691 308.769 616.178 309.032 616.91 309.032C617.67 309.032 618.176 308.75 618.176 308.347C618.176 308.056 617.904 307.887 617.435 307.887H616.282ZM616.863 305.43C617.342 305.43 617.661 305.101 617.661 304.623C617.661 304.145 617.342 303.816 616.863 303.816C616.385 303.816 616.066 304.145 616.066 304.623C616.066 305.101 616.385 305.43 616.863 305.43ZM624.617 306.311C624.617 306.79 624.646 307.409 624.683 308H623.604C623.576 307.765 623.557 307.55 623.539 307.334H623.501C623.238 307.822 622.788 308.094 622.207 308.094C621.278 308.094 620.677 307.409 620.677 306.358V302.934H621.803V306.265C621.803 306.818 622.075 307.156 622.525 307.156C623.088 307.156 623.492 306.63 623.492 305.889V302.934H624.617V306.311ZM628.563 306.19C628.563 306.827 628.863 307.137 629.482 307.137C629.745 307.137 630.026 307.081 630.298 306.959V307.897C630.017 308.028 629.651 308.094 629.267 308.094C628.066 308.094 627.437 307.437 627.437 306.19V302.09H625.983V301.058H628.563V306.19ZM634.619 304.482C634.619 304.051 634.31 303.779 633.784 303.779C633.306 303.779 632.959 304.004 632.921 304.342H631.824C631.833 303.469 632.659 302.841 633.803 302.841C634.966 302.841 635.745 303.497 635.745 304.473V306.19C635.745 306.874 635.811 307.484 635.933 308H634.844C634.788 307.812 634.741 307.587 634.704 307.343H634.657C634.385 307.822 633.916 308.094 633.297 308.094C632.33 308.094 631.655 307.456 631.655 306.537C631.655 305.599 632.368 305.083 633.859 304.951L634.169 304.923C634.488 304.895 634.619 304.764 634.619 304.482ZM633.531 307.203C634.141 307.203 634.619 306.715 634.619 306.086V305.561C634.516 305.617 634.394 305.655 634.253 305.674L633.953 305.711C633.128 305.814 632.781 306.058 632.781 306.518C632.781 306.931 633.072 307.203 633.531 307.203ZM638.94 308H637.815V302.934H638.893V303.619H638.931C639.231 303.141 639.691 302.869 640.254 302.869C641.079 302.869 641.661 303.441 641.754 304.342H640.591C640.516 304.041 640.254 303.854 639.916 303.854C639.344 303.854 638.94 304.388 638.94 305.167V308Z" fill="black"/>
<rect width="60" height="60" transform="translate(742 230)" fill="white"/>
<circle cx="772" cy="260" r="29.5674" fill="#DFECDF" stroke="#AFCFAF" stroke-width="0.865169"/>
<circle cx="772" cy="260" r="22.5674" fill="#F3BEBF" stroke="#E77E80" stroke-width="0.865169"/>
<circle cx="772" cy="260" r="15.5674" fill="#D9E5F2" stroke="#99B2CC" stroke-width="0.865169"/>
<circle cx="772" cy="260" r="8.56742" fill="#FDEBD8" stroke="#F8BF87" stroke-width="0.865169"/>
<path d="M721.379 308.094C720.103 308.094 719.165 306.996 719.165 305.467C719.165 303.938 720.103 302.841 721.379 302.841C722.654 302.841 723.593 303.938 723.593 305.467C723.593 306.996 722.654 308.094 721.379 308.094ZM721.379 307.381C722.214 307.381 722.795 306.593 722.795 305.467C722.795 304.342 722.214 303.554 721.379 303.554C720.544 303.554 719.962 304.342 719.962 305.467C719.962 306.593 720.544 307.381 721.379 307.381ZM726.337 308H725.549V302.934H726.291V303.751H726.328C726.609 303.197 727.116 302.869 727.745 302.869C728.542 302.869 729.114 303.403 729.208 304.229H728.401C728.317 303.816 727.979 303.563 727.538 303.563C726.835 303.563 726.337 304.201 726.337 305.12V308ZM730.715 308V307.296H732.234V303.638H730.761V302.934H733.022V307.296H734.542V308H730.715ZM731.831 301.302C731.831 300.918 732.15 300.617 732.525 300.617C732.91 300.617 733.219 300.918 733.219 301.302C733.219 301.687 732.91 301.996 732.525 301.996C732.15 301.996 731.831 301.687 731.831 301.302ZM736.818 305.617C736.874 306.696 737.446 307.4 738.309 307.4C738.835 307.4 739.257 307.128 739.407 306.705H740.157C739.97 307.54 739.219 308.094 738.291 308.094C736.977 308.094 736.039 306.987 736.039 305.439C736.039 303.919 736.93 302.841 738.187 302.841C739.407 302.841 740.251 303.854 740.251 305.317V305.617H736.818ZM738.187 303.525C737.484 303.525 736.977 304.098 736.846 304.998H739.473C739.435 304.107 738.9 303.525 738.187 303.525ZM742.18 308V302.934H742.921V303.704H742.959C743.231 303.16 743.728 302.841 744.366 302.841C745.304 302.841 745.923 303.535 745.923 304.576V308H745.135V304.642C745.135 303.948 744.769 303.507 744.187 303.507C743.474 303.507 742.968 304.154 742.968 305.073V308H742.18ZM749.568 306.302C749.568 307.062 749.897 307.428 750.572 307.428C750.853 307.428 751.135 307.362 751.416 307.221V307.878C751.154 308.019 750.816 308.094 750.441 308.094C749.353 308.094 748.78 307.475 748.78 306.302V303.638H747.354V302.934H748.78V301.471L749.568 301.34V302.934H751.323V303.638H749.568V306.302ZM756.178 304.388C756.178 303.844 755.784 303.507 755.137 303.507C754.536 303.507 754.086 303.797 754.03 304.229H753.261C753.298 303.422 754.086 302.841 755.137 302.841C756.234 302.841 756.966 303.46 756.966 304.398V306.19C756.966 306.977 757.022 307.559 757.154 308H756.403C756.328 307.794 756.272 307.522 756.234 307.193H756.197C755.906 307.765 755.371 308.094 754.687 308.094C753.739 308.094 753.073 307.465 753.073 306.555C753.073 305.627 753.767 305.12 755.193 304.989L755.662 304.942C756.019 304.904 756.178 304.735 756.178 304.388ZM756.178 305.326C756.066 305.411 755.915 305.458 755.728 305.486L755.278 305.533C754.293 305.655 753.861 305.955 753.861 306.537C753.861 307.09 754.246 307.447 754.827 307.447C755.578 307.447 756.178 306.837 756.178 306.03V305.326ZM760.93 306.302C760.93 307.062 761.259 307.428 761.934 307.428C762.216 307.428 762.497 307.362 762.778 307.221V307.878C762.516 308.019 762.178 308.094 761.803 308.094C760.715 308.094 760.142 307.475 760.142 306.302V303.638H758.717V302.934H760.142V301.471L760.93 301.34V302.934H762.685V303.638H760.93V306.302ZM764.463 308V307.296H765.983V303.638H764.51V302.934H766.771V307.296H768.291V308H764.463ZM765.58 301.302C765.58 300.918 765.899 300.617 766.274 300.617C766.658 300.617 766.968 300.918 766.968 301.302C766.968 301.687 766.658 301.996 766.274 301.996C765.899 301.996 765.58 301.687 765.58 301.302ZM771.889 308.094C770.613 308.094 769.675 306.996 769.675 305.467C769.675 303.938 770.613 302.841 771.889 302.841C773.165 302.841 774.103 303.938 774.103 305.467C774.103 306.996 773.165 308.094 771.889 308.094ZM771.889 307.381C772.724 307.381 773.306 306.593 773.306 305.467C773.306 304.342 772.724 303.554 771.889 303.554C771.054 303.554 770.473 304.342 770.473 305.467C770.473 306.593 771.054 307.381 771.889 307.381ZM775.929 308V302.934H776.67V303.704H776.707C776.979 303.16 777.477 302.841 778.114 302.841C779.052 302.841 779.672 303.535 779.672 304.576V308H778.884V304.642C778.884 303.948 778.518 303.507 777.936 303.507C777.223 303.507 776.717 304.154 776.717 305.073V308H775.929ZM782.529 307.353C782.529 306.949 782.857 306.63 783.251 306.63C783.655 306.63 783.974 306.949 783.974 307.353C783.974 307.756 783.655 308.075 783.251 308.075C782.857 308.075 782.529 307.756 782.529 307.353ZM782.529 303.582C782.529 303.178 782.857 302.859 783.251 302.859C783.655 302.859 783.974 303.178 783.974 303.582C783.974 303.976 783.655 304.304 783.251 304.304C782.857 304.304 782.529 303.976 782.529 303.582ZM793.779 308H792.653V302.934H793.732V303.619H793.769C794.069 303.141 794.529 302.869 795.092 302.869C795.918 302.869 796.499 303.441 796.593 304.342H795.43C795.355 304.041 795.092 303.854 794.754 303.854C794.182 303.854 793.779 304.388 793.779 305.167V308ZM800.82 304.482C800.82 304.051 800.51 303.779 799.985 303.779C799.507 303.779 799.16 304.004 799.122 304.342H798.025C798.034 303.469 798.859 302.841 800.004 302.841C801.167 302.841 801.946 303.497 801.946 304.473V306.19C801.946 306.874 802.011 307.484 802.133 308H801.045C800.989 307.812 800.942 307.587 800.904 307.343H800.858C800.585 307.822 800.116 308.094 799.497 308.094C798.531 308.094 797.856 307.456 797.856 306.537C797.856 305.599 798.569 305.083 800.06 304.951L800.37 304.923C800.689 304.895 800.82 304.764 800.82 304.482ZM799.732 307.203C800.342 307.203 800.82 306.715 800.82 306.086V305.561C800.717 305.617 800.595 305.655 800.454 305.674L800.154 305.711C799.328 305.814 798.981 306.058 798.981 306.518C798.981 306.931 799.272 307.203 799.732 307.203ZM806.961 308C806.923 307.7 806.904 307.437 806.886 307.165H806.839C806.557 307.765 806.079 308.094 805.441 308.094C804.278 308.094 803.415 306.977 803.415 305.467C803.415 303.966 804.287 302.841 805.45 302.841C806.051 302.841 806.51 303.141 806.801 303.685H806.848V301.058H807.974V306.311C807.974 306.79 808.002 307.409 808.04 308H806.961ZM805.704 307.062C806.37 307.062 806.867 306.377 806.867 305.467C806.867 304.557 806.37 303.872 805.704 303.872C805.038 303.872 804.54 304.557 804.54 305.467C804.54 306.377 805.038 307.062 805.704 307.062ZM809.518 308V306.968H810.925V303.966H809.565V302.934H812.051V306.968H813.458V308H809.518ZM810.541 301.424C810.541 300.946 810.925 300.57 811.394 300.57C811.873 300.57 812.248 300.946 812.248 301.424C812.248 301.893 811.873 302.278 811.394 302.278C810.925 302.278 810.541 301.893 810.541 301.424ZM817.807 304.482C817.807 304.051 817.497 303.779 816.972 303.779C816.494 303.779 816.147 304.004 816.109 304.342H815.011C815.021 303.469 815.846 302.841 816.991 302.841C818.154 302.841 818.933 303.497 818.933 304.473V306.19C818.933 306.874 818.998 307.484 819.12 308H818.032C817.976 307.812 817.929 307.587 817.891 307.343H817.844C817.572 307.822 817.103 308.094 816.484 308.094C815.518 308.094 814.843 307.456 814.843 306.537C814.843 305.599 815.556 305.083 817.047 304.951L817.357 304.923C817.676 304.895 817.807 304.764 817.807 304.482ZM816.719 307.203C817.329 307.203 817.807 306.715 817.807 306.086V305.561C817.704 305.617 817.582 305.655 817.441 305.674L817.141 305.711C816.315 305.814 815.968 306.058 815.968 306.518C815.968 306.931 816.259 307.203 816.719 307.203ZM823.113 306.19C823.113 306.827 823.413 307.137 824.032 307.137C824.295 307.137 824.576 307.081 824.848 306.959V307.897C824.567 308.028 824.201 308.094 823.816 308.094C822.616 308.094 821.987 307.437 821.987 306.19V302.09H820.533V301.058H823.113V306.19Z" fill="black"/>
<defs>
<clipPath id="clip0_45_559">
<rect x="249" y="56" width="146" height="213" rx="6.7619" fill="white"/>
</clipPath>
<clipPath id="clip1_45_559">
<path d="M249 76.2858H297.667V269H249V76.2858Z" fill="white"/>
</clipPath>
<clipPath id="clip2_45_559">
<path d="M297.667 76.2858H346.333V269H297.667V76.2858Z" fill="white"/>
</clipPath>
<clipPath id="clip3_45_559">
<rect width="48.6667" height="192.714" fill="white" transform="translate(346.333 76.2858)"/>
</clipPath>
</defs>
</svg>
