<svg width="650" height="365" viewBox="0 0 650 365" fill="none" xmlns="http://www.w3.org/2000/svg">
<rect width="650" height="365" fill="white"/>
<path d="M202.72 51.144C202.168 51.144 201.692 51.048 201.292 50.856C200.892 50.664 200.576 50.408 200.344 50.088C200.12 49.76 199.992 49.396 199.96 48.996L201.016 48.924C201.08 49.316 201.252 49.624 201.532 49.848C201.82 50.072 202.216 50.184 202.72 50.184C203.192 50.184 203.556 50.116 203.812 49.98C204.076 49.844 204.208 49.632 204.208 49.344C204.208 49.16 204.164 49.008 204.076 48.888C203.988 48.768 203.824 48.668 203.584 48.588C203.344 48.5 202.992 48.416 202.528 48.336C201.912 48.224 201.428 48.088 201.076 47.928C200.732 47.76 200.488 47.552 200.344 47.304C200.2 47.056 200.128 46.76 200.128 46.416C200.128 46.048 200.22 45.72 200.404 45.432C200.588 45.144 200.86 44.916 201.22 44.748C201.58 44.58 202.02 44.496 202.54 44.496C203.068 44.496 203.508 44.592 203.86 44.784C204.22 44.968 204.504 45.216 204.712 45.528C204.92 45.832 205.056 46.168 205.12 46.536L204.064 46.608C204.016 46.384 203.924 46.188 203.788 46.02C203.66 45.844 203.488 45.708 203.272 45.612C203.064 45.508 202.816 45.456 202.528 45.456C202.064 45.456 201.72 45.548 201.496 45.732C201.272 45.916 201.16 46.144 201.16 46.416C201.16 46.632 201.212 46.804 201.316 46.932C201.42 47.06 201.588 47.164 201.82 47.244C202.052 47.316 202.36 47.384 202.744 47.448C203.4 47.552 203.908 47.688 204.268 47.856C204.628 48.016 204.88 48.216 205.024 48.456C205.168 48.696 205.24 48.992 205.24 49.344C205.24 49.72 205.128 50.044 204.904 50.316C204.688 50.58 204.388 50.784 204.004 50.928C203.628 51.072 203.2 51.144 202.72 51.144ZM210.731 51C210.115 51 209.655 50.856 209.351 50.568C209.047 50.28 208.895 49.84 208.895 49.248V43.152H209.903V49.248C209.903 49.544 209.971 49.764 210.107 49.908C210.243 50.044 210.451 50.112 210.731 50.112H212.435V51H210.731ZM206.795 45.528V44.64H212.435V45.528H206.795ZM216.127 51V44.64H216.967L217.063 46.248L216.967 46.224C217.047 45.68 217.219 45.28 217.483 45.024C217.755 44.768 218.115 44.64 218.563 44.64H219.871V45.552H218.575C218.263 45.552 217.999 45.616 217.783 45.744C217.575 45.864 217.415 46.044 217.303 46.284C217.191 46.516 217.135 46.808 217.135 47.16V51H216.127ZM214.471 51V50.112H219.151V51H214.471ZM214.471 45.528V44.64H216.679V45.528H214.471ZM223.346 51.144C222.946 51.144 222.586 51.072 222.266 50.928C221.946 50.784 221.694 50.584 221.51 50.328C221.326 50.064 221.234 49.76 221.234 49.416C221.234 48.872 221.394 48.452 221.714 48.156C222.042 47.852 222.554 47.632 223.25 47.496L225.386 47.064C225.386 46.52 225.262 46.116 225.014 45.852C224.774 45.588 224.426 45.456 223.97 45.456C223.53 45.456 223.186 45.556 222.938 45.756C222.69 45.948 222.518 46.228 222.422 46.596L221.354 46.512C221.474 45.912 221.758 45.428 222.206 45.06C222.662 44.684 223.25 44.496 223.97 44.496C224.738 44.496 225.334 44.728 225.758 45.192C226.182 45.648 226.394 46.28 226.394 47.088V49.728C226.394 49.872 226.426 49.972 226.49 50.028C226.554 50.084 226.65 50.112 226.778 50.112H227.186V51C227.138 51.008 227.062 51.012 226.958 51.012C226.854 51.02 226.754 51.024 226.658 51.024C226.386 51.024 226.154 50.98 225.962 50.892C225.778 50.804 225.638 50.664 225.542 50.472C225.446 50.272 225.394 50.016 225.386 49.704H225.578C225.522 49.976 225.386 50.224 225.17 50.448C224.962 50.664 224.698 50.836 224.378 50.964C224.058 51.084 223.714 51.144 223.346 51.144ZM223.442 50.256C223.874 50.256 224.234 50.184 224.522 50.04C224.81 49.888 225.026 49.68 225.17 49.416C225.314 49.144 225.386 48.832 225.386 48.48V47.928L223.442 48.312C223.01 48.392 222.71 48.516 222.542 48.684C222.374 48.844 222.29 49.056 222.29 49.32C222.29 49.616 222.39 49.848 222.59 50.016C222.798 50.176 223.082 50.256 223.442 50.256ZM232.317 51C231.701 51 231.241 50.856 230.937 50.568C230.633 50.28 230.481 49.84 230.481 49.248V43.152H231.489V49.248C231.489 49.544 231.557 49.764 231.693 49.908C231.829 50.044 232.037 50.112 232.317 50.112H234.021V51H232.317ZM228.381 45.528V44.64H234.021V45.528H228.381ZM238.493 51V44.64H239.501V51H238.493ZM235.937 51V50.112H241.697V51H235.937ZM236.057 45.528V44.64H239.501V45.528H236.057ZM238.397 43.644V42.468H239.453V43.644H238.397ZM244.716 51V44.232C244.716 43.664 244.86 43.232 245.148 42.936C245.444 42.632 245.892 42.48 246.492 42.48H248.532V43.368H246.492C246.244 43.368 246.052 43.448 245.916 43.608C245.788 43.76 245.724 43.968 245.724 44.232V51H244.716ZM243.012 45.528V44.64H248.412V45.528H243.012ZM251.023 52.8V51.912H251.755C251.979 51.912 252.143 51.876 252.247 51.804C252.359 51.74 252.443 51.632 252.499 51.48L252.727 50.88H252.379L250.015 44.64H251.119L253.051 49.944L254.863 44.64H255.967L253.387 51.804C253.267 52.148 253.087 52.4 252.847 52.56C252.607 52.72 252.275 52.8 251.851 52.8H251.023ZM260.547 52.32C259.995 51.488 259.579 50.64 259.299 49.776C259.019 48.904 258.879 48.032 258.879 47.16C258.879 45.384 259.435 43.664 260.547 42H261.447C260.431 43.728 259.923 45.448 259.923 47.16C259.923 48.016 260.051 48.876 260.307 49.74C260.563 50.596 260.943 51.456 261.447 52.32H260.547ZM264.238 51V44.64H265.162L265.198 46.056L265.078 46.032C265.15 45.56 265.302 45.188 265.534 44.916C265.774 44.636 266.078 44.496 266.446 44.496C266.822 44.496 267.11 44.632 267.31 44.904C267.518 45.176 267.646 45.576 267.694 46.104H267.574C267.646 45.608 267.806 45.216 268.054 44.928C268.31 44.64 268.63 44.496 269.014 44.496C269.526 44.496 269.898 44.672 270.13 45.024C270.362 45.376 270.478 45.96 270.478 46.776V51H269.47V46.92C269.47 46.352 269.41 45.956 269.29 45.732C269.17 45.5 268.982 45.384 268.726 45.384C268.558 45.384 268.41 45.44 268.282 45.552C268.154 45.656 268.05 45.824 267.97 46.056C267.898 46.288 267.862 46.584 267.862 46.944V51H266.854V46.92C266.854 46.376 266.794 45.984 266.674 45.744C266.562 45.504 266.374 45.384 266.11 45.384C265.942 45.384 265.794 45.44 265.666 45.552C265.538 45.656 265.434 45.824 265.354 46.056C265.282 46.288 265.246 46.584 265.246 46.944V51H264.238ZM273.713 51.144C273.313 51.144 272.953 51.072 272.633 50.928C272.313 50.784 272.061 50.584 271.877 50.328C271.693 50.064 271.601 49.76 271.601 49.416C271.601 48.872 271.761 48.452 272.081 48.156C272.409 47.852 272.921 47.632 273.617 47.496L275.753 47.064C275.753 46.52 275.629 46.116 275.381 45.852C275.141 45.588 274.793 45.456 274.337 45.456C273.897 45.456 273.553 45.556 273.305 45.756C273.057 45.948 272.885 46.228 272.789 46.596L271.721 46.512C271.841 45.912 272.125 45.428 272.573 45.06C273.029 44.684 273.617 44.496 274.337 44.496C275.105 44.496 275.701 44.728 276.125 45.192C276.549 45.648 276.761 46.28 276.761 47.088V49.728C276.761 49.872 276.793 49.972 276.857 50.028C276.921 50.084 277.017 50.112 277.145 50.112H277.553V51C277.505 51.008 277.429 51.012 277.325 51.012C277.221 51.02 277.121 51.024 277.025 51.024C276.753 51.024 276.521 50.98 276.329 50.892C276.145 50.804 276.005 50.664 275.909 50.472C275.813 50.272 275.761 50.016 275.753 49.704H275.945C275.889 49.976 275.753 50.224 275.537 50.448C275.329 50.664 275.065 50.836 274.745 50.964C274.425 51.084 274.081 51.144 273.713 51.144ZM273.809 50.256C274.241 50.256 274.601 50.184 274.889 50.04C275.177 49.888 275.393 49.68 275.537 49.416C275.681 49.144 275.753 48.832 275.753 48.48V47.928L273.809 48.312C273.377 48.392 273.077 48.516 272.909 48.684C272.741 48.844 272.657 49.056 272.657 49.32C272.657 49.616 272.757 49.848 272.957 50.016C273.165 50.176 273.449 50.256 273.809 50.256ZM280.884 51V44.64H281.724L281.82 46.248L281.724 46.224C281.804 45.68 281.976 45.28 282.24 45.024C282.512 44.768 282.872 44.64 283.32 44.64H284.628V45.552H283.332C283.02 45.552 282.756 45.616 282.54 45.744C282.332 45.864 282.172 46.044 282.06 46.284C281.948 46.516 281.892 46.808 281.892 47.16V51H280.884ZM279.228 51V50.112H283.908V51H279.228ZM279.228 45.528V44.64H281.436V45.528H279.228ZM286.424 51V42.48H287.432V48.06L290.528 44.64H291.872L289.364 47.34L291.992 51H290.768L288.68 48.024L287.432 49.344V51H286.424ZM295.503 52.872L296.067 51H295.419V49.536H296.859V50.832L296.103 52.872H295.503ZM311.466 51C310.85 51 310.39 50.856 310.086 50.568C309.782 50.28 309.63 49.84 309.63 49.248V43.152H310.638V49.248C310.638 49.544 310.706 49.764 310.842 49.908C310.978 50.044 311.186 50.112 311.466 50.112H313.17V51H311.466ZM307.53 45.528V44.64H313.17V45.528H307.53ZM316.861 51V44.64H317.701L317.797 46.248L317.701 46.224C317.781 45.68 317.953 45.28 318.217 45.024C318.489 44.768 318.849 44.64 319.297 44.64H320.605V45.552H319.309C318.997 45.552 318.733 45.616 318.517 45.744C318.309 45.864 318.149 46.044 318.037 46.284C317.925 46.516 317.869 46.808 317.869 47.16V51H316.861ZM315.205 51V50.112H319.885V51H315.205ZM315.205 45.528V44.64H317.413V45.528H315.205ZM325.028 51.144C324.428 51.144 323.908 51.008 323.468 50.736C323.036 50.464 322.7 50.08 322.46 49.584C322.228 49.08 322.112 48.492 322.112 47.82C322.112 47.148 322.228 46.564 322.46 46.068C322.7 45.572 323.032 45.188 323.456 44.916C323.888 44.636 324.396 44.496 324.98 44.496C325.532 44.496 326.02 44.628 326.444 44.892C326.868 45.148 327.2 45.524 327.44 46.02C327.68 46.516 327.8 47.12 327.8 47.832V48.132H323.168C323.208 48.812 323.388 49.324 323.708 49.668C324.036 50.012 324.476 50.184 325.028 50.184C325.444 50.184 325.784 50.088 326.048 49.896C326.32 49.696 326.508 49.436 326.612 49.116L327.692 49.2C327.524 49.768 327.204 50.236 326.732 50.604C326.268 50.964 325.7 51.144 325.028 51.144ZM323.168 47.244H326.696C326.648 46.628 326.468 46.176 326.156 45.888C325.844 45.6 325.452 45.456 324.98 45.456C324.492 45.456 324.088 45.608 323.768 45.912C323.456 46.208 323.256 46.652 323.168 47.244ZM332.224 51.144C331.624 51.144 331.104 51.008 330.664 50.736C330.232 50.464 329.896 50.08 329.656 49.584C329.424 49.08 329.308 48.492 329.308 47.82C329.308 47.148 329.424 46.564 329.656 46.068C329.896 45.572 330.228 45.188 330.652 44.916C331.084 44.636 331.592 44.496 332.176 44.496C332.728 44.496 333.216 44.628 333.64 44.892C334.064 45.148 334.396 45.524 334.636 46.02C334.876 46.516 334.996 47.12 334.996 47.832V48.132H330.364C330.404 48.812 330.584 49.324 330.904 49.668C331.232 50.012 331.672 50.184 332.224 50.184C332.64 50.184 332.98 50.088 333.244 49.896C333.516 49.696 333.704 49.436 333.808 49.116L334.888 49.2C334.72 49.768 334.4 50.236 333.928 50.604C333.464 50.964 332.896 51.144 332.224 51.144ZM330.364 47.244H333.892C333.844 46.628 333.664 46.176 333.352 45.888C333.04 45.6 332.648 45.456 332.176 45.456C331.688 45.456 331.284 45.608 330.964 45.912C330.652 46.208 330.452 46.652 330.364 47.244ZM338.675 52.872L339.239 51H338.591V49.536H340.031V50.832L339.275 52.872H338.675ZM355.01 52.38C354.378 52.38 353.878 52.188 353.51 51.804C353.15 51.42 352.97 50.924 352.97 50.316V49.32C352.97 48.976 352.922 48.684 352.826 48.444C352.73 48.196 352.59 48.008 352.406 47.88C352.222 47.752 351.998 47.688 351.734 47.688V46.692C351.998 46.692 352.222 46.628 352.406 46.5C352.59 46.372 352.73 46.188 352.826 45.948C352.922 45.7 352.97 45.404 352.97 45.06V44.064C352.97 43.456 353.15 42.96 353.51 42.576C353.878 42.192 354.378 42 355.01 42H355.67V42.936C355.038 42.912 354.59 42.984 354.326 43.152C354.062 43.32 353.93 43.616 353.93 44.04V45.144C353.93 45.744 353.798 46.212 353.534 46.548C353.27 46.876 352.954 47.084 352.586 47.172V47.184C352.962 47.264 353.278 47.476 353.534 47.82C353.798 48.164 353.93 48.636 353.93 49.236V50.34C353.93 50.756 354.062 51.048 354.326 51.216C354.59 51.384 355.038 51.46 355.67 51.444V52.38H355.01ZM367.696 51.144C367.136 51.144 366.652 51.008 366.244 50.736C365.836 50.464 365.52 50.08 365.296 49.584C365.08 49.088 364.972 48.5 364.972 47.82C364.972 47.14 365.08 46.552 365.296 46.056C365.52 45.56 365.836 45.176 366.244 44.904C366.652 44.632 367.136 44.496 367.696 44.496C368.144 44.496 368.536 44.604 368.872 44.82C369.208 45.028 369.452 45.264 369.604 45.528V42.48H370.612V51H369.7L369.664 50.04C369.488 50.384 369.228 50.656 368.884 50.856C368.54 51.048 368.144 51.144 367.696 51.144ZM367.756 50.184C368.14 50.184 368.468 50.088 368.74 49.896C369.02 49.704 369.232 49.432 369.376 49.08C369.528 48.72 369.604 48.3 369.604 47.82C369.604 47.324 369.528 46.9 369.376 46.548C369.232 46.196 369.02 45.928 368.74 45.744C368.46 45.552 368.124 45.456 367.732 45.456C367.212 45.456 366.796 45.668 366.484 46.092C366.18 46.508 366.028 47.084 366.028 47.82C366.028 48.548 366.18 49.124 366.484 49.548C366.796 49.972 367.22 50.184 367.756 50.184ZM375.204 51V44.64H376.212V51H375.204ZM372.648 51V50.112H378.408V51H372.648ZM372.768 45.528V44.64H376.212V45.528H372.768ZM375.108 43.644V42.468H376.164V43.644H375.108ZM381.619 51V44.64H382.459L382.555 46.248L382.459 46.224C382.539 45.68 382.711 45.28 382.975 45.024C383.247 44.768 383.607 44.64 384.055 44.64H385.363V45.552H384.067C383.755 45.552 383.491 45.616 383.275 45.744C383.067 45.864 382.907 46.044 382.795 46.284C382.683 46.516 382.627 46.808 382.627 47.16V51H381.619ZM379.963 51V50.112H384.643V51H379.963ZM379.963 45.528V44.64H382.171V45.528H379.963ZM389.786 51.144C389.186 51.144 388.666 51.008 388.226 50.736C387.794 50.464 387.458 50.08 387.218 49.584C386.986 49.08 386.87 48.492 386.87 47.82C386.87 47.148 386.986 46.564 387.218 46.068C387.458 45.572 387.79 45.188 388.214 44.916C388.646 44.636 389.154 44.496 389.738 44.496C390.29 44.496 390.778 44.628 391.202 44.892C391.626 45.148 391.958 45.524 392.198 46.02C392.438 46.516 392.558 47.12 392.558 47.832V48.132H387.926C387.966 48.812 388.146 49.324 388.466 49.668C388.794 50.012 389.234 50.184 389.786 50.184C390.202 50.184 390.542 50.088 390.806 49.896C391.078 49.696 391.266 49.436 391.37 49.116L392.45 49.2C392.282 49.768 391.962 50.236 391.49 50.604C391.026 50.964 390.458 51.144 389.786 51.144ZM387.926 47.244H391.454C391.406 46.628 391.226 46.176 390.914 45.888C390.602 45.6 390.21 45.456 389.738 45.456C389.25 45.456 388.846 45.608 388.526 45.912C388.214 46.208 388.014 46.652 387.926 47.244ZM397.041 51.144C396.449 51.144 395.933 51.008 395.493 50.736C395.053 50.464 394.713 50.08 394.473 49.584C394.233 49.08 394.113 48.492 394.113 47.82C394.113 47.148 394.233 46.564 394.473 46.068C394.713 45.572 395.053 45.188 395.493 44.916C395.933 44.636 396.449 44.496 397.041 44.496C397.513 44.496 397.933 44.584 398.301 44.76C398.669 44.928 398.973 45.176 399.213 45.504C399.453 45.832 399.617 46.232 399.705 46.704L398.649 46.776C398.553 46.352 398.361 46.028 398.073 45.804C397.793 45.572 397.449 45.456 397.041 45.456C396.457 45.456 395.997 45.668 395.661 46.092C395.333 46.508 395.169 47.084 395.169 47.82C395.169 48.556 395.333 49.136 395.661 49.56C395.997 49.976 396.457 50.184 397.041 50.184C397.449 50.184 397.801 50.064 398.097 49.824C398.401 49.584 398.601 49.224 398.697 48.744L399.753 48.816C399.665 49.288 399.497 49.7 399.249 50.052C399.001 50.396 398.689 50.664 398.313 50.856C397.937 51.048 397.513 51.144 397.041 51.144ZM405.005 51C404.389 51 403.929 50.856 403.625 50.568C403.321 50.28 403.169 49.84 403.169 49.248V43.152H404.177V49.248C404.177 49.544 404.245 49.764 404.381 49.908C404.517 50.044 404.725 50.112 405.005 50.112H406.709V51H405.005ZM401.069 45.528V44.64H406.709V45.528H401.069ZM411.18 51V44.64H412.188V51H411.18ZM408.624 51V50.112H414.384V51H408.624ZM408.744 45.528V44.64H412.188V45.528H408.744ZM411.084 43.644V42.468H412.14V43.644H411.084ZM418.459 51.144C417.875 51.144 417.363 51.008 416.923 50.736C416.491 50.464 416.155 50.08 415.915 49.584C415.675 49.08 415.555 48.492 415.555 47.82C415.555 47.14 415.675 46.552 415.915 46.056C416.155 45.56 416.491 45.176 416.923 44.904C417.363 44.632 417.875 44.496 418.459 44.496C419.043 44.496 419.551 44.632 419.983 44.904C420.423 45.176 420.763 45.56 421.003 46.056C421.243 46.552 421.363 47.14 421.363 47.82C421.363 48.492 421.243 49.08 421.003 49.584C420.763 50.08 420.423 50.464 419.983 50.736C419.551 51.008 419.043 51.144 418.459 51.144ZM418.459 50.184C419.043 50.184 419.495 49.976 419.815 49.56C420.143 49.136 420.307 48.556 420.307 47.82C420.307 47.084 420.143 46.508 419.815 46.092C419.495 45.668 419.043 45.456 418.459 45.456C417.875 45.456 417.419 45.668 417.091 46.092C416.771 46.508 416.611 47.084 416.611 47.82C416.611 48.556 416.771 49.136 417.091 49.56C417.419 49.976 417.875 50.184 418.459 50.184ZM423.063 51V44.64H423.987L424.023 46.26L423.903 46.152C423.983 45.776 424.127 45.468 424.335 45.228C424.551 44.98 424.807 44.796 425.103 44.676C425.399 44.556 425.711 44.496 426.039 44.496C426.527 44.496 426.931 44.604 427.251 44.82C427.579 45.036 427.827 45.328 427.995 45.696C428.163 46.056 428.247 46.46 428.247 46.908V51H427.239V47.196C427.239 46.604 427.123 46.156 426.891 45.852C426.659 45.54 426.303 45.384 425.823 45.384C425.495 45.384 425.199 45.456 424.935 45.6C424.671 45.736 424.459 45.94 424.299 46.212C424.147 46.476 424.071 46.804 424.071 47.196V51H423.063ZM438.737 52.38H438.077V51.444C438.717 51.46 439.165 51.384 439.421 51.216C439.685 51.048 439.817 50.756 439.817 50.34V49.236C439.817 48.636 439.945 48.164 440.201 47.82C440.465 47.476 440.785 47.264 441.161 47.184V47.172C440.793 47.084 440.477 46.876 440.213 46.548C439.949 46.212 439.817 45.744 439.817 45.144V44.04C439.817 43.616 439.685 43.32 439.421 43.152C439.165 42.984 438.717 42.912 438.077 42.936V42H438.737C439.377 42 439.877 42.192 440.237 42.576C440.597 42.96 440.777 43.456 440.777 44.064V45.06C440.777 45.404 440.825 45.7 440.921 45.948C441.017 46.188 441.157 46.372 441.341 46.5C441.525 46.628 441.749 46.692 442.013 46.692V47.688C441.749 47.688 441.525 47.752 441.341 47.88C441.157 48.008 441.017 48.196 440.921 48.444C440.825 48.684 440.777 48.976 440.777 49.32V50.316C440.777 50.924 440.597 51.42 440.237 51.804C439.877 52.188 439.377 52.38 438.737 52.38ZM446.857 52.32H445.957C446.461 51.456 446.841 50.596 447.097 49.74C447.353 48.876 447.481 48.016 447.481 47.16C447.481 45.448 446.973 43.728 445.957 42H446.857C447.969 43.664 448.525 45.384 448.525 47.16C448.525 48.032 448.385 48.904 448.105 49.776C447.825 50.64 447.409 51.488 446.857 52.32Z" fill="#3A3A3A"/>
<rect x="60.75" y="80.75" width="58.5" height="58.5" rx="7.25" fill="#D4D4D4" stroke="#C0C0C0" stroke-width="1.5"/>
<circle cx="90" cy="195" r="29.25" fill="#D4D4D4" stroke="#C0C0C0" stroke-width="1.5"/>
<mask id="path-4-inside-1_96_6" fill="white">
<path d="M120 280C120 296.569 106.569 310 90 310C73.4315 310 60 296.569 60 280C60 263.431 73.4315 250 90 250C106.569 250 120 263.431 120 280ZM73.5 280C73.5 289.113 80.8873 296.5 90 296.5C99.1127 296.5 106.5 289.113 106.5 280C106.5 270.887 99.1127 263.5 90 263.5C80.8873 263.5 73.5 270.887 73.5 280Z"/>
</mask>
<path d="M120 280C120 296.569 106.569 310 90 310C73.4315 310 60 296.569 60 280C60 263.431 73.4315 250 90 250C106.569 250 120 263.431 120 280ZM73.5 280C73.5 289.113 80.8873 296.5 90 296.5C99.1127 296.5 106.5 289.113 106.5 280C106.5 270.887 99.1127 263.5 90 263.5C80.8873 263.5 73.5 270.887 73.5 280Z" fill="#D4D4D4" stroke="#C0C0C0" stroke-width="3" mask="url(#path-4-inside-1_96_6)"/>
<path d="M82.3232 152V147.091H83.0518V147.832H83.103C83.1925 147.589 83.3544 147.392 83.5888 147.241C83.8232 147.09 84.0874 147.014 84.3814 147.014C84.4368 147.014 84.506 147.015 84.5891 147.017C84.6722 147.02 84.7351 147.023 84.7777 147.027V147.794C84.7521 147.788 84.6935 147.778 84.6019 147.765C84.5124 147.75 84.4176 147.743 84.3175 147.743C84.0788 147.743 83.8658 147.793 83.6783 147.893C83.4929 147.991 83.3459 148.127 83.2372 148.302C83.1307 148.475 83.0774 148.672 83.0774 148.893V152H82.3232ZM87.5806 152.102C87.1076 152.102 86.6996 151.998 86.3565 151.789C86.0156 151.578 85.7525 151.284 85.5671 150.907C85.3839 150.528 85.2923 150.087 85.2923 149.584C85.2923 149.081 85.3839 148.638 85.5671 148.254C85.7525 147.869 86.0103 147.568 86.3406 147.353C86.6729 147.136 87.0607 147.027 87.5039 147.027C87.7596 147.027 88.0121 147.07 88.2614 147.155C88.5107 147.24 88.7376 147.379 88.9421 147.57C89.1467 147.76 89.3097 148.011 89.4311 148.325C89.5526 148.638 89.6133 149.023 89.6133 149.482V149.801H85.8292V149.149H88.8462C88.8462 148.872 88.7908 148.625 88.68 148.408C88.5714 148.19 88.4158 148.019 88.2134 147.893C88.0131 147.767 87.7766 147.705 87.5039 147.705C87.2035 147.705 86.9435 147.779 86.7241 147.928C86.5067 148.075 86.3395 148.267 86.2223 148.504C86.1051 148.74 86.0465 148.994 86.0465 149.264V149.699C86.0465 150.07 86.1104 150.384 86.2383 150.642C86.3683 150.897 86.5483 151.092 86.7784 151.227C87.0085 151.359 87.2759 151.425 87.5806 151.425C87.7788 151.425 87.9577 151.397 88.1175 151.342C88.2795 151.284 88.419 151.199 88.5362 151.086C88.6534 150.971 88.744 150.828 88.8079 150.658L89.5366 150.862C89.4599 151.109 89.331 151.327 89.1499 151.514C88.9688 151.7 88.745 151.844 88.4787 151.949C88.2124 152.051 87.913 152.102 87.5806 152.102ZM92.755 152.102C92.2947 152.102 91.8984 151.994 91.5661 151.776C91.2337 151.559 90.978 151.26 90.799 150.878C90.62 150.497 90.5305 150.061 90.5305 149.571C90.5305 149.072 90.6222 148.632 90.8054 148.251C90.9908 147.868 91.2486 147.568 91.5788 147.353C91.9112 147.136 92.299 147.027 92.7422 147.027C93.0874 147.027 93.3984 147.091 93.6754 147.219C93.9524 147.347 94.1793 147.526 94.3562 147.756C94.533 147.986 94.6428 148.254 94.6854 148.561H93.9311C93.8736 148.337 93.7457 148.139 93.5476 147.967C93.3516 147.792 93.0874 147.705 92.755 147.705C92.4609 147.705 92.2031 147.781 91.9815 147.935C91.7621 148.086 91.5906 148.3 91.467 148.577C91.3455 148.852 91.2848 149.175 91.2848 149.545C91.2848 149.925 91.3445 150.255 91.4638 150.536C91.5852 150.817 91.7557 151.036 91.9751 151.191C92.1967 151.347 92.4567 151.425 92.755 151.425C92.951 151.425 93.1289 151.391 93.2887 151.322C93.4485 151.254 93.5838 151.156 93.6946 151.028C93.8054 150.901 93.8842 150.747 93.9311 150.568H94.6854C94.6428 150.858 94.5373 151.119 94.369 151.351C94.2028 151.581 93.9822 151.765 93.7074 151.901C93.4347 152.035 93.1172 152.102 92.755 152.102ZM97.9229 147.091V147.73H95.3789V147.091H97.9229ZM96.1204 145.915H96.8746V150.594C96.8746 150.807 96.9055 150.967 96.9673 151.073C97.0313 151.178 97.1122 151.248 97.2102 151.284C97.3104 151.318 97.4158 151.335 97.5266 151.335C97.6097 151.335 97.6779 151.331 97.7312 151.322C97.7844 151.312 97.8271 151.303 97.859 151.297L98.0124 151.974C97.9613 151.994 97.8899 152.013 97.7983 152.032C97.7067 152.053 97.5906 152.064 97.4499 152.064C97.2369 152.064 97.0281 152.018 96.8235 151.926C96.6211 151.835 96.4528 151.695 96.3185 151.508C96.1864 151.32 96.1204 151.084 96.1204 150.798V145.915Z" fill="#999999"/>
<path d="M81.3028 237.102C80.8426 237.102 80.4463 236.994 80.1139 236.776C79.7815 236.559 79.5258 236.26 79.3469 235.878C79.1679 235.497 79.0784 235.061 79.0784 234.571C79.0784 234.072 79.17 233.632 79.3532 233.251C79.5386 232.868 79.7964 232.568 80.1267 232.353C80.4591 232.136 80.8469 232.027 81.29 232.027C81.6352 232.027 81.9463 232.091 82.2233 232.219C82.5003 232.347 82.7272 232.526 82.904 232.756C83.0809 232.986 83.1906 233.254 83.2332 233.561H82.479C82.4214 233.337 82.2936 233.139 82.0954 232.967C81.8994 232.792 81.6352 232.705 81.3028 232.705C81.0088 232.705 80.751 232.781 80.5294 232.935C80.3099 233.086 80.1384 233.3 80.0148 233.577C79.8934 233.852 79.8327 234.175 79.8327 234.545C79.8327 234.925 79.8923 235.255 80.0116 235.536C80.1331 235.817 80.3035 236.036 80.523 236.191C80.7446 236.347 81.0045 236.425 81.3028 236.425C81.4988 236.425 81.6768 236.391 81.8366 236.322C81.9964 236.254 82.1317 236.156 82.2425 236.028C82.3532 235.901 82.4321 235.747 82.479 235.568H83.2332C83.1906 235.858 83.0851 236.119 82.9168 236.351C82.7506 236.581 82.5301 236.765 82.2552 236.901C81.9825 237.035 81.665 237.102 81.3028 237.102ZM84.3358 237V232.091H85.0901V237H84.3358ZM84.7194 231.273C84.5724 231.273 84.4456 231.223 84.339 231.123C84.2346 231.022 84.1824 230.902 84.1824 230.761C84.1824 230.621 84.2346 230.5 84.339 230.4C84.4456 230.3 84.5724 230.25 84.7194 230.25C84.8664 230.25 84.9921 230.3 85.0965 230.4C85.203 230.5 85.2563 230.621 85.2563 230.761C85.2563 230.902 85.203 231.022 85.0965 231.123C84.9921 231.223 84.8664 231.273 84.7194 231.273ZM86.4716 237V232.091H87.2003V232.832H87.2514C87.3409 232.589 87.5028 232.392 87.7372 232.241C87.9716 232.09 88.2358 232.014 88.5298 232.014C88.5852 232.014 88.6545 232.015 88.7376 232.017C88.8207 232.02 88.8835 232.023 88.9261 232.027V232.794C88.9006 232.788 88.842 232.778 88.7504 232.765C88.6609 232.75 88.5661 232.743 88.4659 232.743C88.2273 232.743 88.0142 232.793 87.8267 232.893C87.6413 232.991 87.4943 233.127 87.3857 233.302C87.2791 233.475 87.2259 233.672 87.2259 233.893V237H86.4716ZM91.6651 237.102C91.2049 237.102 90.8086 236.994 90.4762 236.776C90.1438 236.559 89.8881 236.26 89.7092 235.878C89.5302 235.497 89.4407 235.061 89.4407 234.571C89.4407 234.072 89.5323 233.632 89.7156 233.251C89.9009 232.868 90.1587 232.568 90.489 232.353C90.8214 232.136 91.2092 232.027 91.6523 232.027C91.9975 232.027 92.3086 232.091 92.5856 232.219C92.8626 232.347 93.0895 232.526 93.2663 232.756C93.4432 232.986 93.5529 233.254 93.5955 233.561H92.8413C92.7837 233.337 92.6559 233.139 92.4577 232.967C92.2617 232.792 91.9975 232.705 91.6651 232.705C91.3711 232.705 91.1133 232.781 90.8917 232.935C90.6722 233.086 90.5007 233.3 90.3771 233.577C90.2557 233.852 90.195 234.175 90.195 234.545C90.195 234.925 90.2546 235.255 90.3739 235.536C90.4954 235.817 90.6658 236.036 90.8853 236.191C91.1069 236.347 91.3668 236.425 91.6651 236.425C91.8612 236.425 92.0391 236.391 92.1989 236.322C92.3587 236.254 92.494 236.156 92.6048 236.028C92.7156 235.901 92.7944 235.747 92.8413 235.568H93.5955C93.5529 235.858 93.4474 236.119 93.2791 236.351C93.1129 236.581 92.8924 236.765 92.6175 236.901C92.3448 237.035 92.0273 237.102 91.6651 237.102ZM95.4524 230.455V237H94.6982V230.455H95.4524ZM98.8921 237.102C98.4191 237.102 98.0111 236.998 97.6681 236.789C97.3271 236.578 97.064 236.284 96.8786 235.907C96.6954 235.528 96.6038 235.087 96.6038 234.584C96.6038 234.081 96.6954 233.638 96.8786 233.254C97.064 232.869 97.3218 232.568 97.6521 232.353C97.9845 232.136 98.3722 232.027 98.8154 232.027C99.0711 232.027 99.3236 232.07 99.5729 232.155C99.8222 232.24 100.049 232.379 100.254 232.57C100.458 232.76 100.621 233.011 100.743 233.325C100.864 233.638 100.925 234.023 100.925 234.482V234.801H97.1407V234.149H100.158C100.158 233.872 100.102 233.625 99.9916 233.408C99.8829 233.19 99.7274 233.019 99.5249 232.893C99.3247 232.767 99.0882 232.705 98.8154 232.705C98.515 232.705 98.2551 232.779 98.0356 232.928C97.8183 233.075 97.651 233.267 97.5338 233.504C97.4166 233.74 97.358 233.994 97.358 234.264V234.699C97.358 235.07 97.422 235.384 97.5498 235.642C97.6798 235.897 97.8598 236.092 98.0899 236.227C98.32 236.359 98.5874 236.425 98.8921 236.425C99.0903 236.425 99.2693 236.397 99.4291 236.342C99.591 236.284 99.7306 236.199 99.8477 236.086C99.9649 235.971 100.055 235.828 100.119 235.658L100.848 235.862C100.771 236.109 100.642 236.327 100.461 236.514C100.28 236.7 100.057 236.844 99.7902 236.949C99.5239 237.051 99.2245 237.102 98.8921 237.102Z" fill="#999999"/>
<path d="M82.5736 332V327.091H83.3023V327.832H83.3535C83.443 327.589 83.6049 327.392 83.8393 327.241C84.0736 327.09 84.3378 327.014 84.6319 327.014C84.6873 327.014 84.7565 327.015 84.8396 327.017C84.9227 327.02 84.9856 327.023 85.0282 327.027V327.794C85.0026 327.788 84.944 327.778 84.8524 327.765C84.7629 327.75 84.6681 327.743 84.568 327.743C84.3293 327.743 84.1163 327.793 83.9288 327.893C83.7434 327.991 83.5964 328.127 83.4877 328.302C83.3812 328.475 83.3279 328.672 83.3279 328.893V332H82.5736ZM85.9223 332V327.091H86.6765V332H85.9223ZM86.3058 326.273C86.1588 326.273 86.032 326.223 85.9255 326.123C85.8211 326.022 85.7689 325.902 85.7689 325.761C85.7689 325.621 85.8211 325.5 85.9255 325.4C86.032 325.3 86.1588 325.25 86.3058 325.25C86.4528 325.25 86.5785 325.3 86.6829 325.4C86.7895 325.5 86.8427 325.621 86.8427 325.761C86.8427 325.902 86.7895 326.022 86.6829 326.123C86.5785 326.223 86.4528 326.273 86.3058 326.273ZM88.8123 329.047V332H88.058V327.091H88.7867V327.858H88.8506C88.9657 327.609 89.1404 327.408 89.3748 327.257C89.6092 327.104 89.9117 327.027 90.2824 327.027C90.6148 327.027 90.9057 327.095 91.155 327.232C91.4043 327.366 91.5981 327.57 91.7366 327.845C91.8751 328.118 91.9444 328.463 91.9444 328.881V332H91.1901V328.932C91.1901 328.546 91.09 328.246 90.8897 328.031C90.6894 327.813 90.4146 327.705 90.0651 327.705C89.8244 327.705 89.6092 327.757 89.4195 327.861C89.232 327.966 89.0839 328.118 88.9753 328.318C88.8666 328.518 88.8123 328.761 88.8123 329.047ZM95.3042 333.943C94.9399 333.943 94.6266 333.896 94.3646 333.803C94.1025 333.711 93.8841 333.589 93.7094 333.438C93.5368 333.289 93.3994 333.129 93.2971 332.959L93.8979 332.537C93.9661 332.626 94.0524 332.729 94.1568 332.844C94.2612 332.961 94.404 333.062 94.5851 333.147C94.7683 333.235 95.008 333.278 95.3042 333.278C95.7005 333.278 96.0276 333.183 96.2854 332.991C96.5432 332.799 96.6721 332.499 96.6721 332.089V331.092H96.6082C96.5528 331.182 96.4739 331.293 96.3717 331.425C96.2715 331.555 96.1266 331.671 95.937 331.773C95.7495 331.873 95.496 331.923 95.1764 331.923C94.7801 331.923 94.4242 331.83 94.1089 331.642C93.7957 331.455 93.5475 331.182 93.3642 330.824C93.1831 330.466 93.0926 330.031 93.0926 329.52C93.0926 329.017 93.181 328.579 93.3578 328.206C93.5347 327.831 93.7808 327.542 94.0961 327.337C94.4114 327.13 94.7758 327.027 95.1891 327.027C95.5087 327.027 95.7623 327.08 95.9498 327.187C96.1394 327.291 96.2843 327.411 96.3845 327.545C96.4867 327.677 96.5656 327.786 96.621 327.871H96.6977V327.091H97.4264V332.141C97.4264 332.562 97.3305 332.906 97.1387 333.17C96.9491 333.436 96.6934 333.631 96.3717 333.755C96.0521 333.88 95.6962 333.943 95.3042 333.943ZM95.2786 331.246C95.5812 331.246 95.8369 331.176 96.0457 331.038C96.2545 330.9 96.4132 330.7 96.5219 330.44C96.6305 330.18 96.6849 329.869 96.6849 329.507C96.6849 329.153 96.6316 328.841 96.5251 328.571C96.4185 328.3 96.2609 328.088 96.0521 327.935C95.8433 327.781 95.5854 327.705 95.2786 327.705C94.959 327.705 94.6927 327.786 94.4796 327.947C94.2687 328.109 94.11 328.327 94.0034 328.599C93.899 328.872 93.8468 329.175 93.8468 329.507C93.8468 329.848 93.9001 330.15 94.0066 330.412C94.1153 330.672 94.2751 330.876 94.486 331.025C94.6991 331.172 94.9633 331.246 95.2786 331.246Z" fill="#999999"/>
<line x1="122" y1="109.25" x2="228" y2="109.25" stroke="#C0C0C0" stroke-width="1.5" stroke-dasharray="6 6"/>
<path d="M378 110H434M428 114L434 110L428 106" stroke="#999999" stroke-width="1.5" stroke-linecap="round"/>
<line x1="122" y1="194.25" x2="228" y2="194.25" stroke="#C0C0C0" stroke-width="1.5" stroke-dasharray="6 6"/>
<path d="M378 195H434M428 199L434 195L428 191" stroke="#999999" stroke-width="1.5" stroke-linecap="round"/>
<line x1="122" y1="279.25" x2="228" y2="279.25" stroke="#C0C0C0" stroke-width="1.5" stroke-dasharray="6 6"/>
<path d="M378 280H434M428 284L434 280L428 276" stroke="#999999" stroke-width="1.5" stroke-linecap="round"/>
<path d="M238 268L258 188L300 102L342 188L362 268M258 188L278 268M342 188L322 268" stroke="#C0C0C0" stroke-width="1.3"/>
<circle cx="300" cy="102" r="8.25" fill="#D4D4D4" stroke="#C0C0C0" stroke-width="1.5"/>
<circle cx="258" cy="188" r="8.25" fill="#FDEBD8" stroke="#F8BF87" stroke-width="1.5"/>
<circle cx="342" cy="188" r="8.25" fill="#D9E5F2" stroke="#99B2CC" stroke-width="1.5"/>
<circle cx="238" cy="268" r="8.25" fill="#FDEBD8" stroke="#F8BF87" stroke-width="1.5"/>
<circle cx="278" cy="268" r="8.25" fill="#FDEBD8" stroke="#F8BF87" stroke-width="1.5"/>
<circle cx="322" cy="268" r="8.25" fill="#D9E5F2" stroke="#99B2CC" stroke-width="1.5"/>
<circle cx="362" cy="268" r="8.25" fill="#D9E5F2" stroke="#99B2CC" stroke-width="1.5"/>
<path d="M294.299 80.0909V81.1136H291.343V80.0909H294.299ZM292.014 78.9148H293.376V83.4915C293.376 83.6172 293.395 83.7152 293.433 83.7855C293.472 83.8537 293.525 83.9016 293.593 83.9293C293.663 83.957 293.744 83.9709 293.836 83.9709C293.9 83.9709 293.964 83.9656 294.028 83.9549C294.092 83.9421 294.141 83.9325 294.175 83.9261L294.389 84.9393C294.321 84.9606 294.225 84.9851 294.101 85.0128C293.978 85.0426 293.828 85.0607 293.651 85.0671C293.323 85.0799 293.035 85.0362 292.788 84.9361C292.543 84.8359 292.352 84.6804 292.216 84.4695C292.079 84.2585 292.012 83.9922 292.014 83.6705V78.9148ZM295.186 85V80.0909H296.506V80.9474H296.557C296.647 80.6428 296.797 80.4126 297.008 80.2571C297.219 80.0994 297.462 80.0206 297.737 80.0206C297.805 80.0206 297.879 80.0249 297.957 80.0334C298.036 80.0419 298.105 80.0536 298.165 80.0685V81.2766C298.101 81.2575 298.013 81.2404 297.9 81.2255C297.787 81.2106 297.684 81.2031 297.59 81.2031C297.39 81.2031 297.211 81.2468 297.053 81.3342C296.897 81.4194 296.774 81.5387 296.682 81.6921C296.593 81.8455 296.548 82.0224 296.548 82.2227V85H295.186ZM300.878 85.0959C300.373 85.0959 299.938 84.9936 299.574 84.7891C299.212 84.5824 298.932 84.2905 298.736 83.9134C298.54 83.5341 298.442 83.0856 298.442 82.5678C298.442 82.0629 298.54 81.6197 298.736 81.2383C298.932 80.8569 299.208 80.5597 299.564 80.3466C299.922 80.1335 300.342 80.027 300.823 80.027C301.147 80.027 301.449 80.0792 301.728 80.1836C302.009 80.2859 302.254 80.4403 302.463 80.647C302.674 80.8537 302.838 81.1136 302.955 81.4268C303.072 81.7379 303.131 82.1023 303.131 82.5199V82.8938H298.986V82.0501H301.849C301.849 81.854 301.807 81.6804 301.721 81.5291C301.636 81.3778 301.518 81.2596 301.367 81.1744C301.218 81.087 301.044 81.0433 300.846 81.0433C300.639 81.0433 300.456 81.0913 300.296 81.1871C300.138 81.2809 300.015 81.4077 299.925 81.5675C299.836 81.7251 299.79 81.9009 299.788 82.0948V82.897C299.788 83.1399 299.833 83.3498 299.922 83.5266C300.014 83.7035 300.143 83.8398 300.309 83.9357C300.475 84.0316 300.672 84.0795 300.9 84.0795C301.051 84.0795 301.19 84.0582 301.316 84.0156C301.441 83.973 301.549 83.9091 301.638 83.8239C301.728 83.7386 301.796 83.6342 301.843 83.5107L303.102 83.5938C303.038 83.8963 302.907 84.1605 302.709 84.3864C302.513 84.6101 302.259 84.7848 301.948 84.9105C301.639 85.0341 301.283 85.0959 300.878 85.0959ZM306.257 85.0959C305.752 85.0959 305.317 84.9936 304.953 84.7891C304.59 84.5824 304.311 84.2905 304.115 83.9134C303.919 83.5341 303.821 83.0856 303.821 82.5678C303.821 82.0629 303.919 81.6197 304.115 81.2383C304.311 80.8569 304.587 80.5597 304.943 80.3466C305.301 80.1335 305.721 80.027 306.202 80.027C306.526 80.027 306.828 80.0792 307.107 80.1836C307.388 80.2859 307.633 80.4403 307.842 80.647C308.053 80.8537 308.217 81.1136 308.334 81.4268C308.451 81.7379 308.51 82.1023 308.51 82.5199V82.8938H304.365V82.0501H307.228C307.228 81.854 307.186 81.6804 307.1 81.5291C307.015 81.3778 306.897 81.2596 306.746 81.1744C306.596 81.087 306.423 81.0433 306.225 81.0433C306.018 81.0433 305.835 81.0913 305.675 81.1871C305.517 81.2809 305.394 81.4077 305.304 81.5675C305.215 81.7251 305.169 81.9009 305.167 82.0948V82.897C305.167 83.1399 305.212 83.3498 305.301 83.5266C305.393 83.7035 305.522 83.8398 305.688 83.9357C305.854 84.0316 306.051 84.0795 306.279 84.0795C306.43 84.0795 306.569 84.0582 306.694 84.0156C306.82 83.973 306.928 83.9091 307.017 83.8239C307.107 83.7386 307.175 83.6342 307.222 83.5107L308.481 83.5938C308.417 83.8963 308.286 84.1605 308.088 84.3864C307.892 84.6101 307.638 84.7848 307.327 84.9105C307.018 85.0341 306.661 85.0959 306.257 85.0959Z" fill="#999999"/>
<rect x="451.25" y="81.25" width="57.5" height="17.5" rx="1.5" fill="#D4D4D4" stroke="#C0C0C0"/>
<rect x="451.25" y="101.25" width="27.5" height="17.5" rx="1.5" fill="#FDEBD8" stroke="#F8BF87"/>
<rect x="481.25" y="101.25" width="27.5" height="17.5" rx="1.5" fill="#D9E5F2" stroke="#99B2CC"/>
<rect x="451.25" y="121.25" width="12.5" height="17.5" rx="1.5" fill="#FDEBD8" stroke="#F8BF87"/>
<rect x="466.25" y="121.25" width="12.5" height="17.5" rx="1.5" fill="#FDEBD8" stroke="#F8BF87"/>
<rect x="481.25" y="121.25" width="12.5" height="17.5" rx="1.5" fill="#D9E5F2" stroke="#99B2CC"/>
<rect x="496.25" y="121.25" width="12.5" height="17.5" rx="1.5" fill="#D9E5F2" stroke="#99B2CC"/>
<rect x="546.25" y="121.25" width="57.5" height="17.5" rx="1.5" fill="#D4D4D4" stroke="#C0C0C0"/>
<rect x="546.25" y="101.25" width="27.5" height="17.5" rx="1.5" fill="#FDEBD8" stroke="#F8BF87"/>
<rect x="576.25" y="101.25" width="27.5" height="17.5" rx="1.5" fill="#D9E5F2" stroke="#99B2CC"/>
<rect x="546.25" y="81.25" width="12.5" height="17.5" rx="1.5" fill="#FDEBD8" stroke="#F8BF87"/>
<rect x="561.25" y="81.25" width="12.5" height="17.5" rx="1.5" fill="#FDEBD8" stroke="#F8BF87"/>
<rect x="576.25" y="81.25" width="12.5" height="17.5" rx="1.5" fill="#D9E5F2" stroke="#99B2CC"/>
<rect x="591.25" y="81.25" width="12.5" height="17.5" rx="1.5" fill="#D9E5F2" stroke="#99B2CC"/>
<path d="M465.069 147.636V148.205H462.716V147.636H465.069ZM463.421 152V147.034C463.421 146.784 463.48 146.576 463.597 146.409C463.714 146.242 463.867 146.117 464.054 146.034C464.242 145.951 464.44 145.909 464.648 145.909C464.813 145.909 464.947 145.922 465.051 145.949C465.156 145.975 465.233 146 465.284 146.023L465.091 146.602C465.057 146.591 465.01 146.577 464.949 146.56C464.891 146.543 464.813 146.534 464.716 146.534C464.495 146.534 464.335 146.59 464.236 146.702C464.14 146.813 464.091 146.977 464.091 147.193V152H463.421ZM466.008 152V147.636H466.656V148.295H466.701C466.781 148.08 466.925 147.904 467.133 147.77C467.342 147.635 467.576 147.568 467.838 147.568C467.887 147.568 467.949 147.569 468.022 147.571C468.096 147.573 468.152 147.576 468.19 147.58V148.261C468.167 148.256 468.115 148.247 468.034 148.236C467.954 148.223 467.87 148.216 467.781 148.216C467.569 148.216 467.379 148.26 467.213 148.349C467.048 148.437 466.917 148.558 466.821 148.713C466.726 148.866 466.679 149.042 466.679 149.239V152H466.008ZM470.625 152.091C470.231 152.091 469.885 151.997 469.588 151.81C469.292 151.622 469.061 151.36 468.895 151.023C468.73 150.686 468.647 150.292 468.647 149.841C468.647 149.386 468.73 148.99 468.895 148.651C469.061 148.312 469.292 148.048 469.588 147.861C469.885 147.673 470.231 147.58 470.625 147.58C471.019 147.58 471.363 147.673 471.659 147.861C471.956 148.048 472.187 148.312 472.352 148.651C472.519 148.99 472.602 149.386 472.602 149.841C472.602 150.292 472.519 150.686 472.352 151.023C472.187 151.36 471.956 151.622 471.659 151.81C471.363 151.997 471.019 152.091 470.625 152.091ZM470.625 151.489C470.924 151.489 471.17 151.412 471.363 151.259C471.556 151.105 471.699 150.903 471.792 150.653C471.885 150.403 471.931 150.133 471.931 149.841C471.931 149.549 471.885 149.277 471.792 149.026C471.699 148.774 471.556 148.57 471.363 148.415C471.17 148.259 470.924 148.182 470.625 148.182C470.325 148.182 470.079 148.259 469.886 148.415C469.693 148.57 469.55 148.774 469.457 149.026C469.364 149.277 469.318 149.549 469.318 149.841C469.318 150.133 469.364 150.403 469.457 150.653C469.55 150.903 469.693 151.105 469.886 151.259C470.079 151.412 470.325 151.489 470.625 151.489ZM473.625 152V147.636H474.273V148.318H474.33C474.421 148.085 474.568 147.904 474.77 147.776C474.973 147.645 475.216 147.58 475.5 147.58C475.788 147.58 476.028 147.645 476.219 147.776C476.412 147.904 476.563 148.085 476.671 148.318H476.716C476.828 148.093 476.996 147.914 477.219 147.781C477.443 147.647 477.711 147.58 478.023 147.58C478.413 147.58 478.732 147.702 478.98 147.946C479.229 148.188 479.353 148.566 479.353 149.08V152H478.682V149.08C478.682 148.758 478.594 148.527 478.418 148.389C478.242 148.251 478.034 148.182 477.796 148.182C477.489 148.182 477.251 148.275 477.083 148.46C476.914 148.644 476.83 148.877 476.83 149.159V152H476.148V149.011C476.148 148.763 476.068 148.563 475.907 148.412C475.746 148.259 475.538 148.182 475.284 148.182C475.11 148.182 474.947 148.228 474.796 148.321C474.646 148.414 474.525 148.543 474.432 148.707C474.341 148.87 474.296 149.059 474.296 149.273V152H473.625ZM480.669 152V146.182H482.635C483.09 146.182 483.463 146.259 483.755 146.415C484.046 146.568 484.262 146.779 484.402 147.048C484.542 147.317 484.613 147.623 484.613 147.966C484.613 148.309 484.542 148.613 484.402 148.878C484.262 149.143 484.047 149.351 483.757 149.503C483.468 149.652 483.097 149.727 482.647 149.727H481.056V149.091H482.624C482.935 149.091 483.185 149.045 483.374 148.955C483.565 148.864 483.703 148.735 483.789 148.568C483.876 148.4 483.919 148.199 483.919 147.966C483.919 147.733 483.876 147.529 483.789 147.355C483.702 147.181 483.562 147.046 483.371 146.952C483.18 146.855 482.927 146.807 482.613 146.807H481.374V152H480.669ZM483.408 149.386L484.84 152H484.022L482.613 149.386H483.408ZM487.422 152.091C487.028 152.091 486.682 151.997 486.385 151.81C486.089 151.622 485.858 151.36 485.691 151.023C485.527 150.686 485.444 150.292 485.444 149.841C485.444 149.386 485.527 148.99 485.691 148.651C485.858 148.312 486.089 148.048 486.385 147.861C486.682 147.673 487.028 147.58 487.422 147.58C487.815 147.58 488.16 147.673 488.456 147.861C488.753 148.048 488.984 148.312 489.149 148.651C489.315 148.99 489.399 149.386 489.399 149.841C489.399 150.292 489.315 150.686 489.149 151.023C488.984 151.36 488.753 151.622 488.456 151.81C488.16 151.997 487.815 152.091 487.422 152.091ZM487.422 151.489C487.721 151.489 487.967 151.412 488.16 151.259C488.353 151.105 488.496 150.903 488.589 150.653C488.682 150.403 488.728 150.133 488.728 149.841C488.728 149.549 488.682 149.277 488.589 149.026C488.496 148.774 488.353 148.57 488.16 148.415C487.967 148.259 487.721 148.182 487.422 148.182C487.122 148.182 486.876 148.259 486.683 148.415C486.49 148.57 486.347 148.774 486.254 149.026C486.161 149.277 486.115 149.549 486.115 149.841C486.115 150.133 486.161 150.403 486.254 150.653C486.347 150.903 486.49 151.105 486.683 151.259C486.876 151.412 487.122 151.489 487.422 151.489ZM492.195 152.091C491.801 152.091 491.455 151.997 491.158 151.81C490.863 151.622 490.632 151.36 490.465 151.023C490.3 150.686 490.218 150.292 490.218 149.841C490.218 149.386 490.3 148.99 490.465 148.651C490.632 148.312 490.863 148.048 491.158 147.861C491.455 147.673 491.801 147.58 492.195 147.58C492.589 147.58 492.934 147.673 493.229 147.861C493.526 148.048 493.757 148.312 493.922 148.651C494.089 148.99 494.172 149.386 494.172 149.841C494.172 150.292 494.089 150.686 493.922 151.023C493.757 151.36 493.526 151.622 493.229 151.81C492.934 151.997 492.589 152.091 492.195 152.091ZM492.195 151.489C492.494 151.489 492.74 151.412 492.934 151.259C493.127 151.105 493.27 150.903 493.363 150.653C493.455 150.403 493.502 150.133 493.502 149.841C493.502 149.549 493.455 149.277 493.363 149.026C493.27 148.774 493.127 148.57 492.934 148.415C492.74 148.259 492.494 148.182 492.195 148.182C491.896 148.182 491.65 148.259 491.456 148.415C491.263 148.57 491.12 148.774 491.027 149.026C490.935 149.277 490.888 149.549 490.888 149.841C490.888 150.133 490.935 150.403 491.027 150.653C491.12 150.903 491.263 151.105 491.456 151.259C491.65 151.412 491.896 151.489 492.195 151.489ZM497.093 147.636V148.205H494.832V147.636H497.093ZM495.491 146.591H496.162V150.75C496.162 150.939 496.189 151.081 496.244 151.176C496.301 151.269 496.373 151.331 496.46 151.364C496.549 151.394 496.643 151.409 496.741 151.409C496.815 151.409 496.876 151.405 496.923 151.398C496.97 151.388 497.008 151.381 497.037 151.375L497.173 151.977C497.127 151.994 497.064 152.011 496.983 152.028C496.901 152.047 496.798 152.057 496.673 152.057C496.484 152.057 496.298 152.016 496.116 151.935C495.936 151.853 495.787 151.729 495.667 151.562C495.55 151.396 495.491 151.186 495.491 150.932V146.591Z" fill="#999999"/>
<path d="M560.557 147.636V148.205H558.205V147.636H560.557ZM558.909 152V147.034C558.909 146.784 558.968 146.576 559.085 146.409C559.203 146.242 559.355 146.117 559.543 146.034C559.73 145.951 559.928 145.909 560.136 145.909C560.301 145.909 560.436 145.922 560.54 145.949C560.644 145.975 560.722 146 560.773 146.023L560.58 146.602C560.545 146.591 560.498 146.577 560.438 146.56C560.379 146.543 560.301 146.534 560.205 146.534C559.983 146.534 559.823 146.59 559.724 146.702C559.628 146.813 559.58 146.977 559.58 147.193V152H558.909ZM561.496 152V147.636H562.144V148.295H562.19C562.269 148.08 562.413 147.904 562.621 147.77C562.83 147.635 563.065 147.568 563.326 147.568C563.375 147.568 563.437 147.569 563.511 147.571C563.585 147.573 563.64 147.576 563.678 147.58V148.261C563.656 148.256 563.603 148.247 563.522 148.236C563.442 148.223 563.358 148.216 563.269 148.216C563.057 148.216 562.868 148.26 562.701 148.349C562.536 148.437 562.406 148.558 562.309 148.713C562.214 148.866 562.167 149.042 562.167 149.239V152H561.496ZM566.113 152.091C565.719 152.091 565.373 151.997 565.076 151.81C564.781 151.622 564.549 151.36 564.383 151.023C564.218 150.686 564.136 150.292 564.136 149.841C564.136 149.386 564.218 148.99 564.383 148.651C564.549 148.312 564.781 148.048 565.076 147.861C565.373 147.673 565.719 147.58 566.113 147.58C566.507 147.58 566.852 147.673 567.147 147.861C567.444 148.048 567.675 148.312 567.84 148.651C568.007 148.99 568.09 149.386 568.09 149.841C568.09 150.292 568.007 150.686 567.84 151.023C567.675 151.36 567.444 151.622 567.147 151.81C566.852 151.997 566.507 152.091 566.113 152.091ZM566.113 151.489C566.412 151.489 566.658 151.412 566.852 151.259C567.045 151.105 567.188 150.903 567.281 150.653C567.373 150.403 567.42 150.133 567.42 149.841C567.42 149.549 567.373 149.277 567.281 149.026C567.188 148.774 567.045 148.57 566.852 148.415C566.658 148.259 566.412 148.182 566.113 148.182C565.814 148.182 565.567 148.259 565.374 148.415C565.181 148.57 565.038 148.774 564.945 149.026C564.853 149.277 564.806 149.549 564.806 149.841C564.806 150.133 564.853 150.403 564.945 150.653C565.038 150.903 565.181 151.105 565.374 151.259C565.567 151.412 565.814 151.489 566.113 151.489ZM569.114 152V147.636H569.761V148.318H569.818C569.909 148.085 570.056 147.904 570.259 147.776C570.461 147.645 570.705 147.58 570.989 147.58C571.277 147.58 571.516 147.645 571.707 147.776C571.901 147.904 572.051 148.085 572.159 148.318H572.205C572.316 148.093 572.484 147.914 572.707 147.781C572.931 147.647 573.199 147.58 573.511 147.58C573.902 147.58 574.221 147.702 574.469 147.946C574.717 148.188 574.841 148.566 574.841 149.08V152H574.17V149.08C574.17 148.758 574.082 148.527 573.906 148.389C573.73 148.251 573.523 148.182 573.284 148.182C572.977 148.182 572.74 148.275 572.571 148.46C572.402 148.644 572.318 148.877 572.318 149.159V152H571.636V149.011C571.636 148.763 571.556 148.563 571.395 148.412C571.234 148.259 571.027 148.182 570.773 148.182C570.598 148.182 570.436 148.228 570.284 148.321C570.134 148.414 570.013 148.543 569.92 148.707C569.83 148.87 569.784 149.059 569.784 149.273V152H569.114ZM576.158 152V146.182H576.862V151.375H579.567V152H576.158ZM582.396 152.091C581.976 152.091 581.613 151.998 581.308 151.812C581.005 151.625 580.771 151.364 580.607 151.028C580.444 150.691 580.362 150.299 580.362 149.852C580.362 149.405 580.444 149.011 580.607 148.67C580.771 148.328 581 148.061 581.294 147.869C581.589 147.676 581.934 147.58 582.328 147.58C582.555 147.58 582.78 147.617 583.001 147.693C583.223 147.769 583.425 147.892 583.607 148.062C583.788 148.231 583.933 148.455 584.041 148.733C584.149 149.011 584.203 149.354 584.203 149.761V150.045H580.839V149.466H583.521C583.521 149.22 583.472 149 583.374 148.807C583.277 148.614 583.139 148.461 582.959 148.349C582.781 148.238 582.571 148.182 582.328 148.182C582.061 148.182 581.83 148.248 581.635 148.381C581.442 148.511 581.293 148.682 581.189 148.892C581.085 149.102 581.033 149.328 581.033 149.568V149.955C581.033 150.284 581.089 150.563 581.203 150.793C581.319 151.02 581.479 151.193 581.683 151.312C581.888 151.43 582.125 151.489 582.396 151.489C582.572 151.489 582.732 151.464 582.874 151.415C583.018 151.364 583.142 151.288 583.246 151.188C583.35 151.085 583.43 150.958 583.487 150.807L584.135 150.989C584.067 151.208 583.952 151.402 583.791 151.568C583.63 151.733 583.431 151.862 583.195 151.955C582.958 152.045 582.692 152.091 582.396 152.091ZM586.507 152.102C586.231 152.102 585.98 152.05 585.754 151.946C585.529 151.84 585.35 151.688 585.217 151.489C585.085 151.288 585.018 151.045 585.018 150.761C585.018 150.511 585.068 150.309 585.166 150.153C585.265 149.996 585.396 149.873 585.561 149.784C585.726 149.695 585.908 149.629 586.107 149.585C586.307 149.54 586.509 149.504 586.712 149.477C586.977 149.443 587.192 149.418 587.357 149.401C587.523 149.382 587.644 149.35 587.72 149.307C587.798 149.263 587.837 149.187 587.837 149.08V149.057C587.837 148.777 587.76 148.559 587.607 148.403C587.455 148.248 587.225 148.17 586.916 148.17C586.596 148.17 586.345 148.241 586.163 148.381C585.982 148.521 585.854 148.67 585.78 148.83L585.143 148.602C585.257 148.337 585.409 148.131 585.598 147.983C585.789 147.833 585.998 147.729 586.223 147.67C586.45 147.61 586.674 147.58 586.893 147.58C587.034 147.58 587.195 147.597 587.376 147.631C587.56 147.663 587.737 147.73 587.908 147.832C588.08 147.935 588.223 148.089 588.337 148.295C588.45 148.502 588.507 148.778 588.507 149.125V152H587.837V151.409H587.803C587.757 151.504 587.681 151.605 587.575 151.713C587.469 151.821 587.328 151.913 587.152 151.989C586.976 152.064 586.761 152.102 586.507 152.102ZM586.609 151.5C586.875 151.5 587.098 151.448 587.28 151.344C587.464 151.24 587.602 151.105 587.695 150.94C587.789 150.776 587.837 150.602 587.837 150.42V149.807C587.808 149.841 587.746 149.872 587.649 149.901C587.554 149.927 587.445 149.951 587.32 149.972C587.196 149.991 587.076 150.008 586.959 150.023C586.843 150.036 586.75 150.047 586.678 150.057C586.503 150.08 586.34 150.116 586.189 150.168C586.039 150.217 585.918 150.292 585.825 150.392C585.734 150.491 585.689 150.625 585.689 150.795C585.689 151.028 585.775 151.205 585.947 151.324C586.122 151.441 586.342 151.5 586.609 151.5ZM591.674 147.636V148.205H589.322V147.636H591.674ZM590.026 152V147.034C590.026 146.784 590.085 146.576 590.202 146.409C590.32 146.242 590.472 146.117 590.66 146.034C590.847 145.951 591.045 145.909 591.254 145.909C591.418 145.909 591.553 145.922 591.657 145.949C591.761 145.975 591.839 146 591.89 146.023L591.697 146.602C591.663 146.591 591.615 146.577 591.555 146.56C591.496 146.543 591.418 146.534 591.322 146.534C591.1 146.534 590.94 146.59 590.842 146.702C590.745 146.813 590.697 146.977 590.697 147.193V152H590.026Z" fill="#999999"/>
<circle cx="480" cy="195" r="8.5" fill="#D4D4D4" stroke="#C0C0C0"/>
<path d="M480 214C469.51 214 461 205.49 461 195C461 184.51 469.51 176 480 176V186C475.03 186 471 190.03 471 195C471 199.97 475.03 204 480 204V214Z" fill="#FDEBD8" stroke="#F8BF87"/>
<path d="M480 176C490.49 176 499 184.51 499 195C499 205.49 490.49 214 480 214V204C484.97 204 489 199.97 489 195C489 190.03 484.97 186 480 186V176Z" fill="#D9E5F2" stroke="#99B2CC"/>
<path d="M480 224C463.98 224 451 211.02 451 195H461C461 205.49 469.51 214 480 214V224Z" fill="#FDEBD8" stroke="#F8BF87"/>
<path d="M451 195C451 178.98 463.98 166 480 166V176C469.51 176 461 184.51 461 195H451Z" fill="#FDEBD8" stroke="#F8BF87"/>
<path d="M480 166C496.02 166 509 178.98 509 195H499C499 184.51 490.49 176 480 176V166Z" fill="#D9E5F2" stroke="#99B2CC"/>
<path d="M509 195C509 211.02 496.02 224 480 224V214C490.49 214 499 205.49 499 195H509Z" fill="#D9E5F2" stroke="#99B2CC"/>
<mask id="path-46-inside-2_96_6" fill="white">
<path d="M604 195C604 211.016 591.016 224 575 224C558.984 224 546 211.016 546 195C546 178.984 558.984 166 575 166C591.016 166 604 178.984 604 195ZM556 195C556 205.493 564.507 214 575 214C585.493 214 594 205.493 594 195C594 184.507 585.493 176 575 176C564.507 176 556 184.507 556 195Z"/>
</mask>
<path d="M604 195C604 211.016 591.016 224 575 224C558.984 224 546 211.016 546 195C546 178.984 558.984 166 575 166C591.016 166 604 178.984 604 195ZM556 195C556 205.493 564.507 214 575 214C585.493 214 594 205.493 594 195C594 184.507 585.493 176 575 176C564.507 176 556 184.507 556 195Z" fill="#D4D4D4" stroke="#C0C0C0" stroke-width="2" mask="url(#path-46-inside-2_96_6)"/>
<path d="M575 214C564.51 214 556 205.49 556 195C556 184.51 564.51 176 575 176V186C570.03 186 566 190.03 566 195C566 199.97 570.03 204 575 204V214Z" fill="#FDEBD8" stroke="#F8BF87"/>
<path d="M575 176C585.49 176 594 184.51 594 195C594 205.49 585.49 214 575 214V204C579.97 204 584 199.97 584 195C584 190.03 579.97 186 575 186V176Z" fill="#D9E5F2" stroke="#99B2CC"/>
<path d="M575 195V204C570.03 204 566 199.97 566 195H575Z" fill="#FDEBD8" stroke="#F8BF87"/>
<path d="M575 195H566C566 190.03 570.03 186 575 186V195Z" fill="#FDEBD8" stroke="#F8BF87"/>
<path d="M575 195V186C579.97 186 584 190.03 584 195H575Z" fill="#D9E5F2" stroke="#99B2CC"/>
<path d="M575 195H584C584 199.97 579.97 204 575 204V195Z" fill="#D9E5F2" stroke="#99B2CC"/>
<path d="M465.069 232.636V233.205H462.716V232.636H465.069ZM463.421 237V232.034C463.421 231.784 463.48 231.576 463.597 231.409C463.714 231.242 463.867 231.117 464.054 231.034C464.242 230.951 464.44 230.909 464.648 230.909C464.813 230.909 464.947 230.922 465.051 230.949C465.156 230.975 465.233 231 465.284 231.023L465.091 231.602C465.057 231.591 465.01 231.577 464.949 231.56C464.891 231.543 464.813 231.534 464.716 231.534C464.495 231.534 464.335 231.59 464.236 231.702C464.14 231.813 464.091 231.977 464.091 232.193V237H463.421ZM466.008 237V232.636H466.656V233.295H466.701C466.781 233.08 466.925 232.904 467.133 232.77C467.342 232.635 467.576 232.568 467.838 232.568C467.887 232.568 467.949 232.569 468.022 232.571C468.096 232.573 468.152 232.576 468.19 232.58V233.261C468.167 233.256 468.115 233.247 468.034 233.236C467.954 233.223 467.87 233.216 467.781 233.216C467.569 233.216 467.379 233.26 467.213 233.349C467.048 233.437 466.917 233.558 466.821 233.713C466.726 233.866 466.679 234.042 466.679 234.239V237H466.008ZM470.625 237.091C470.231 237.091 469.885 236.997 469.588 236.81C469.292 236.622 469.061 236.36 468.895 236.023C468.73 235.686 468.647 235.292 468.647 234.841C468.647 234.386 468.73 233.99 468.895 233.651C469.061 233.312 469.292 233.048 469.588 232.861C469.885 232.673 470.231 232.58 470.625 232.58C471.019 232.58 471.363 232.673 471.659 232.861C471.956 233.048 472.187 233.312 472.352 233.651C472.519 233.99 472.602 234.386 472.602 234.841C472.602 235.292 472.519 235.686 472.352 236.023C472.187 236.36 471.956 236.622 471.659 236.81C471.363 236.997 471.019 237.091 470.625 237.091ZM470.625 236.489C470.924 236.489 471.17 236.412 471.363 236.259C471.556 236.105 471.699 235.903 471.792 235.653C471.885 235.403 471.931 235.133 471.931 234.841C471.931 234.549 471.885 234.277 471.792 234.026C471.699 233.774 471.556 233.57 471.363 233.415C471.17 233.259 470.924 233.182 470.625 233.182C470.325 233.182 470.079 233.259 469.886 233.415C469.693 233.57 469.55 233.774 469.457 234.026C469.364 234.277 469.318 234.549 469.318 234.841C469.318 235.133 469.364 235.403 469.457 235.653C469.55 235.903 469.693 236.105 469.886 236.259C470.079 236.412 470.325 236.489 470.625 236.489ZM473.625 237V232.636H474.273V233.318H474.33C474.421 233.085 474.568 232.904 474.77 232.776C474.973 232.645 475.216 232.58 475.5 232.58C475.788 232.58 476.028 232.645 476.219 232.776C476.412 232.904 476.563 233.085 476.671 233.318H476.716C476.828 233.093 476.996 232.914 477.219 232.781C477.443 232.647 477.711 232.58 478.023 232.58C478.413 232.58 478.732 232.702 478.98 232.946C479.229 233.188 479.353 233.566 479.353 234.08V237H478.682V234.08C478.682 233.758 478.594 233.527 478.418 233.389C478.242 233.251 478.034 233.182 477.796 233.182C477.489 233.182 477.251 233.275 477.083 233.46C476.914 233.644 476.83 233.877 476.83 234.159V237H476.148V234.011C476.148 233.763 476.068 233.563 475.907 233.412C475.746 233.259 475.538 233.182 475.284 233.182C475.11 233.182 474.947 233.228 474.796 233.321C474.646 233.414 474.525 233.543 474.432 233.707C474.341 233.87 474.296 234.059 474.296 234.273V237H473.625ZM480.669 237V231.182H482.635C483.09 231.182 483.463 231.259 483.755 231.415C484.046 231.568 484.262 231.779 484.402 232.048C484.542 232.317 484.613 232.623 484.613 232.966C484.613 233.309 484.542 233.613 484.402 233.878C484.262 234.143 484.047 234.351 483.757 234.503C483.468 234.652 483.097 234.727 482.647 234.727H481.056V234.091H482.624C482.935 234.091 483.185 234.045 483.374 233.955C483.565 233.864 483.703 233.735 483.789 233.568C483.876 233.4 483.919 233.199 483.919 232.966C483.919 232.733 483.876 232.529 483.789 232.355C483.702 232.181 483.562 232.046 483.371 231.952C483.18 231.855 482.927 231.807 482.613 231.807H481.374V237H480.669ZM483.408 234.386L484.84 237H484.022L482.613 234.386H483.408ZM487.422 237.091C487.028 237.091 486.682 236.997 486.385 236.81C486.089 236.622 485.858 236.36 485.691 236.023C485.527 235.686 485.444 235.292 485.444 234.841C485.444 234.386 485.527 233.99 485.691 233.651C485.858 233.312 486.089 233.048 486.385 232.861C486.682 232.673 487.028 232.58 487.422 232.58C487.815 232.58 488.16 232.673 488.456 232.861C488.753 233.048 488.984 233.312 489.149 233.651C489.315 233.99 489.399 234.386 489.399 234.841C489.399 235.292 489.315 235.686 489.149 236.023C488.984 236.36 488.753 236.622 488.456 236.81C488.16 236.997 487.815 237.091 487.422 237.091ZM487.422 236.489C487.721 236.489 487.967 236.412 488.16 236.259C488.353 236.105 488.496 235.903 488.589 235.653C488.682 235.403 488.728 235.133 488.728 234.841C488.728 234.549 488.682 234.277 488.589 234.026C488.496 233.774 488.353 233.57 488.16 233.415C487.967 233.259 487.721 233.182 487.422 233.182C487.122 233.182 486.876 233.259 486.683 233.415C486.49 233.57 486.347 233.774 486.254 234.026C486.161 234.277 486.115 234.549 486.115 234.841C486.115 235.133 486.161 235.403 486.254 235.653C486.347 235.903 486.49 236.105 486.683 236.259C486.876 236.412 487.122 236.489 487.422 236.489ZM492.195 237.091C491.801 237.091 491.455 236.997 491.158 236.81C490.863 236.622 490.632 236.36 490.465 236.023C490.3 235.686 490.218 235.292 490.218 234.841C490.218 234.386 490.3 233.99 490.465 233.651C490.632 233.312 490.863 233.048 491.158 232.861C491.455 232.673 491.801 232.58 492.195 232.58C492.589 232.58 492.934 232.673 493.229 232.861C493.526 233.048 493.757 233.312 493.922 233.651C494.089 233.99 494.172 234.386 494.172 234.841C494.172 235.292 494.089 235.686 493.922 236.023C493.757 236.36 493.526 236.622 493.229 236.81C492.934 236.997 492.589 237.091 492.195 237.091ZM492.195 236.489C492.494 236.489 492.74 236.412 492.934 236.259C493.127 236.105 493.27 235.903 493.363 235.653C493.455 235.403 493.502 235.133 493.502 234.841C493.502 234.549 493.455 234.277 493.363 234.026C493.27 233.774 493.127 233.57 492.934 233.415C492.74 233.259 492.494 233.182 492.195 233.182C491.896 233.182 491.65 233.259 491.456 233.415C491.263 233.57 491.12 233.774 491.027 234.026C490.935 234.277 490.888 234.549 490.888 234.841C490.888 235.133 490.935 235.403 491.027 235.653C491.12 235.903 491.263 236.105 491.456 236.259C491.65 236.412 491.896 236.489 492.195 236.489ZM497.093 232.636V233.205H494.832V232.636H497.093ZM495.491 231.591H496.162V235.75C496.162 235.939 496.189 236.081 496.244 236.176C496.301 236.269 496.373 236.331 496.46 236.364C496.549 236.394 496.643 236.409 496.741 236.409C496.815 236.409 496.876 236.405 496.923 236.398C496.97 236.388 497.008 236.381 497.037 236.375L497.173 236.977C497.127 236.994 497.064 237.011 496.983 237.028C496.901 237.047 496.798 237.057 496.673 237.057C496.484 237.057 496.298 237.016 496.116 236.935C495.936 236.853 495.787 236.729 495.667 236.562C495.55 236.396 495.491 236.186 495.491 235.932V231.591Z" fill="#999999"/>
<path d="M560.557 232.636V233.205H558.205V232.636H560.557ZM558.909 237V232.034C558.909 231.784 558.968 231.576 559.085 231.409C559.203 231.242 559.355 231.117 559.543 231.034C559.73 230.951 559.928 230.909 560.136 230.909C560.301 230.909 560.436 230.922 560.54 230.949C560.644 230.975 560.722 231 560.773 231.023L560.58 231.602C560.545 231.591 560.498 231.577 560.438 231.56C560.379 231.543 560.301 231.534 560.205 231.534C559.983 231.534 559.823 231.59 559.724 231.702C559.628 231.813 559.58 231.977 559.58 232.193V237H558.909ZM561.496 237V232.636H562.144V233.295H562.19C562.269 233.08 562.413 232.904 562.621 232.77C562.83 232.635 563.065 232.568 563.326 232.568C563.375 232.568 563.437 232.569 563.511 232.571C563.585 232.573 563.64 232.576 563.678 232.58V233.261C563.656 233.256 563.603 233.247 563.522 233.236C563.442 233.223 563.358 233.216 563.269 233.216C563.057 233.216 562.868 233.26 562.701 233.349C562.536 233.437 562.406 233.558 562.309 233.713C562.214 233.866 562.167 234.042 562.167 234.239V237H561.496ZM566.113 237.091C565.719 237.091 565.373 236.997 565.076 236.81C564.781 236.622 564.549 236.36 564.383 236.023C564.218 235.686 564.136 235.292 564.136 234.841C564.136 234.386 564.218 233.99 564.383 233.651C564.549 233.312 564.781 233.048 565.076 232.861C565.373 232.673 565.719 232.58 566.113 232.58C566.507 232.58 566.852 232.673 567.147 232.861C567.444 233.048 567.675 233.312 567.84 233.651C568.007 233.99 568.09 234.386 568.09 234.841C568.09 235.292 568.007 235.686 567.84 236.023C567.675 236.36 567.444 236.622 567.147 236.81C566.852 236.997 566.507 237.091 566.113 237.091ZM566.113 236.489C566.412 236.489 566.658 236.412 566.852 236.259C567.045 236.105 567.188 235.903 567.281 235.653C567.373 235.403 567.42 235.133 567.42 234.841C567.42 234.549 567.373 234.277 567.281 234.026C567.188 233.774 567.045 233.57 566.852 233.415C566.658 233.259 566.412 233.182 566.113 233.182C565.814 233.182 565.567 233.259 565.374 233.415C565.181 233.57 565.038 233.774 564.945 234.026C564.853 234.277 564.806 234.549 564.806 234.841C564.806 235.133 564.853 235.403 564.945 235.653C565.038 235.903 565.181 236.105 565.374 236.259C565.567 236.412 565.814 236.489 566.113 236.489ZM569.114 237V232.636H569.761V233.318H569.818C569.909 233.085 570.056 232.904 570.259 232.776C570.461 232.645 570.705 232.58 570.989 232.58C571.277 232.58 571.516 232.645 571.707 232.776C571.901 232.904 572.051 233.085 572.159 233.318H572.205C572.316 233.093 572.484 232.914 572.707 232.781C572.931 232.647 573.199 232.58 573.511 232.58C573.902 232.58 574.221 232.702 574.469 232.946C574.717 233.188 574.841 233.566 574.841 234.08V237H574.17V234.08C574.17 233.758 574.082 233.527 573.906 233.389C573.73 233.251 573.523 233.182 573.284 233.182C572.977 233.182 572.74 233.275 572.571 233.46C572.402 233.644 572.318 233.877 572.318 234.159V237H571.636V234.011C571.636 233.763 571.556 233.563 571.395 233.412C571.234 233.259 571.027 233.182 570.773 233.182C570.598 233.182 570.436 233.228 570.284 233.321C570.134 233.414 570.013 233.543 569.92 233.707C569.83 233.87 569.784 234.059 569.784 234.273V237H569.114ZM576.158 237V231.182H576.862V236.375H579.567V237H576.158ZM582.396 237.091C581.976 237.091 581.613 236.998 581.308 236.812C581.005 236.625 580.771 236.364 580.607 236.028C580.444 235.691 580.362 235.299 580.362 234.852C580.362 234.405 580.444 234.011 580.607 233.67C580.771 233.328 581 233.061 581.294 232.869C581.589 232.676 581.934 232.58 582.328 232.58C582.555 232.58 582.78 232.617 583.001 232.693C583.223 232.769 583.425 232.892 583.607 233.062C583.788 233.231 583.933 233.455 584.041 233.733C584.149 234.011 584.203 234.354 584.203 234.761V235.045H580.839V234.466H583.521C583.521 234.22 583.472 234 583.374 233.807C583.277 233.614 583.139 233.461 582.959 233.349C582.781 233.238 582.571 233.182 582.328 233.182C582.061 233.182 581.83 233.248 581.635 233.381C581.442 233.511 581.293 233.682 581.189 233.892C581.085 234.102 581.033 234.328 581.033 234.568V234.955C581.033 235.284 581.089 235.563 581.203 235.793C581.319 236.02 581.479 236.193 581.683 236.312C581.888 236.43 582.125 236.489 582.396 236.489C582.572 236.489 582.732 236.464 582.874 236.415C583.018 236.364 583.142 236.288 583.246 236.188C583.35 236.085 583.43 235.958 583.487 235.807L584.135 235.989C584.067 236.208 583.952 236.402 583.791 236.568C583.63 236.733 583.431 236.862 583.195 236.955C582.958 237.045 582.692 237.091 582.396 237.091ZM586.507 237.102C586.231 237.102 585.98 237.05 585.754 236.946C585.529 236.84 585.35 236.688 585.217 236.489C585.085 236.288 585.018 236.045 585.018 235.761C585.018 235.511 585.068 235.309 585.166 235.153C585.265 234.996 585.396 234.873 585.561 234.784C585.726 234.695 585.908 234.629 586.107 234.585C586.307 234.54 586.509 234.504 586.712 234.477C586.977 234.443 587.192 234.418 587.357 234.401C587.523 234.382 587.644 234.35 587.72 234.307C587.798 234.263 587.837 234.187 587.837 234.08V234.057C587.837 233.777 587.76 233.559 587.607 233.403C587.455 233.248 587.225 233.17 586.916 233.17C586.596 233.17 586.345 233.241 586.163 233.381C585.982 233.521 585.854 233.67 585.78 233.83L585.143 233.602C585.257 233.337 585.409 233.131 585.598 232.983C585.789 232.833 585.998 232.729 586.223 232.67C586.45 232.61 586.674 232.58 586.893 232.58C587.034 232.58 587.195 232.597 587.376 232.631C587.56 232.663 587.737 232.73 587.908 232.832C588.08 232.935 588.223 233.089 588.337 233.295C588.45 233.502 588.507 233.778 588.507 234.125V237H587.837V236.409H587.803C587.757 236.504 587.681 236.605 587.575 236.713C587.469 236.821 587.328 236.913 587.152 236.989C586.976 237.064 586.761 237.102 586.507 237.102ZM586.609 236.5C586.875 236.5 587.098 236.448 587.28 236.344C587.464 236.24 587.602 236.105 587.695 235.94C587.789 235.776 587.837 235.602 587.837 235.42V234.807C587.808 234.841 587.746 234.872 587.649 234.901C587.554 234.927 587.445 234.951 587.32 234.972C587.196 234.991 587.076 235.008 586.959 235.023C586.843 235.036 586.75 235.047 586.678 235.057C586.503 235.08 586.34 235.116 586.189 235.168C586.039 235.217 585.918 235.292 585.825 235.392C585.734 235.491 585.689 235.625 585.689 235.795C585.689 236.028 585.775 236.205 585.947 236.324C586.122 236.441 586.342 236.5 586.609 236.5ZM591.674 232.636V233.205H589.322V232.636H591.674ZM590.026 237V232.034C590.026 231.784 590.085 231.576 590.202 231.409C590.32 231.242 590.472 231.117 590.66 231.034C590.847 230.951 591.045 230.909 591.254 230.909C591.418 230.909 591.553 230.922 591.657 230.949C591.761 230.975 591.839 231 591.89 231.023L591.697 231.602C591.663 231.591 591.615 231.577 591.555 231.56C591.496 231.543 591.418 231.534 591.322 231.534C591.1 231.534 590.94 231.59 590.842 231.702C590.745 231.813 590.697 231.977 590.697 232.193V237H590.026Z" fill="#999999"/>
<mask id="path-55-inside-3_96_6" fill="white">
<path d="M496 280C496 288.837 488.837 296 480 296C471.163 296 464 288.837 464 280C464 271.163 471.163 264 480 264C488.837 264 496 271.163 496 280ZM471 280C471 284.971 475.029 289 480 289C484.971 289 489 284.971 489 280C489 275.029 484.971 271 480 271C475.029 271 471 275.029 471 280Z"/>
</mask>
<path d="M496 280C496 288.837 488.837 296 480 296C471.163 296 464 288.837 464 280C464 271.163 471.163 264 480 264C488.837 264 496 271.163 496 280ZM471 280C471 284.971 475.029 289 480 289C484.971 289 489 284.971 489 280C489 275.029 484.971 271 480 271C475.029 271 471 275.029 471 280Z" fill="#D4D4D4" stroke="#C0C0C0" stroke-width="2" mask="url(#path-55-inside-3_96_6)"/>
<path d="M480 303C467.3 303 457 292.7 457 280C457 267.3 467.3 257 480 257V264C471.16 264 464 271.16 464 280C464 288.84 471.16 296 480 296V303Z" fill="#FDEBD8" stroke="#F8BF87"/>
<path d="M480 257C492.7 257 503 267.3 503 280C503 292.7 492.7 303 480 303V296C488.84 296 496 288.84 496 280C496 271.16 488.84 264 480 264V257Z" fill="#D9E5F2" stroke="#99B2CC"/>
<path d="M480 310C463.43 310 450 296.57 450 280H457C457 292.7 467.3 303 480 303V310Z" fill="#FDEBD8" stroke="#F8BF87"/>
<path d="M450 280C450 263.43 463.43 250 480 250V257C467.3 257 457 267.3 457 280H450Z" fill="#FDEBD8" stroke="#F8BF87"/>
<path d="M480 250C496.57 250 510 263.43 510 280H503C503 267.3 492.7 257 480 257V250Z" fill="#D9E5F2" stroke="#99B2CC"/>
<path d="M510 280C510 296.57 496.57 310 480 310V303C492.7 303 503 292.7 503 280H510Z" fill="#D9E5F2" stroke="#99B2CC"/>
<mask id="path-62-inside-4_96_6" fill="white">
<path d="M605 280C605 296.569 591.569 310 575 310C558.431 310 545 296.569 545 280C545 263.431 558.431 250 575 250C591.569 250 605 263.431 605 280ZM552 280C552 292.703 562.297 303 575 303C587.703 303 598 292.703 598 280C598 267.297 587.703 257 575 257C562.297 257 552 267.297 552 280Z"/>
</mask>
<path d="M605 280C605 296.569 591.569 310 575 310C558.431 310 545 296.569 545 280C545 263.431 558.431 250 575 250C591.569 250 605 263.431 605 280ZM552 280C552 292.703 562.297 303 575 303C587.703 303 598 292.703 598 280C598 267.297 587.703 257 575 257C562.297 257 552 267.297 552 280Z" fill="#D4D4D4" stroke="#C0C0C0" stroke-width="2" mask="url(#path-62-inside-4_96_6)"/>
<path d="M575 303C562.3 303 552 292.7 552 280C552 267.3 562.3 257 575 257V264C566.16 264 559 271.16 559 280C559 288.84 566.16 296 575 296V303Z" fill="#FDEBD8" stroke="#F8BF87"/>
<path d="M575 257C587.7 257 598 267.3 598 280C598 292.7 587.7 303 575 303V296C583.84 296 591 288.84 591 280C591 271.16 583.84 264 575 264V257Z" fill="#D9E5F2" stroke="#99B2CC"/>
<path d="M575 296C566.16 296 559 288.84 559 280H566C566 284.97 570.03 289 575 289V296Z" fill="#FDEBD8" stroke="#F8BF87"/>
<path d="M559 280C559 271.16 566.16 264 575 264V271C570.03 271 566 275.03 566 280H559Z" fill="#FDEBD8" stroke="#F8BF87"/>
<path d="M575 264C583.84 264 591 271.16 591 280H584C584 275.03 579.97 271 575 271V264Z" fill="#D9E5F2" stroke="#99B2CC"/>
<path d="M591 280C591 288.84 583.84 296 575 296V289C579.97 289 584 284.97 584 280H591Z" fill="#D9E5F2" stroke="#99B2CC"/>
<path d="M465.069 326.636V327.205H462.716V326.636H465.069ZM463.421 331V326.034C463.421 325.784 463.48 325.576 463.597 325.409C463.714 325.242 463.867 325.117 464.054 325.034C464.242 324.951 464.44 324.909 464.648 324.909C464.813 324.909 464.947 324.922 465.051 324.949C465.156 324.975 465.233 325 465.284 325.023L465.091 325.602C465.057 325.591 465.01 325.577 464.949 325.56C464.891 325.543 464.813 325.534 464.716 325.534C464.495 325.534 464.335 325.59 464.236 325.702C464.14 325.813 464.091 325.977 464.091 326.193V331H463.421ZM466.008 331V326.636H466.656V327.295H466.701C466.781 327.08 466.925 326.904 467.133 326.77C467.342 326.635 467.576 326.568 467.838 326.568C467.887 326.568 467.949 326.569 468.022 326.571C468.096 326.573 468.152 326.576 468.19 326.58V327.261C468.167 327.256 468.115 327.247 468.034 327.236C467.954 327.223 467.87 327.216 467.781 327.216C467.569 327.216 467.379 327.26 467.213 327.349C467.048 327.437 466.917 327.558 466.821 327.713C466.726 327.866 466.679 328.042 466.679 328.239V331H466.008ZM470.625 331.091C470.231 331.091 469.885 330.997 469.588 330.81C469.292 330.622 469.061 330.36 468.895 330.023C468.73 329.686 468.647 329.292 468.647 328.841C468.647 328.386 468.73 327.99 468.895 327.651C469.061 327.312 469.292 327.048 469.588 326.861C469.885 326.673 470.231 326.58 470.625 326.58C471.019 326.58 471.363 326.673 471.659 326.861C471.956 327.048 472.187 327.312 472.352 327.651C472.519 327.99 472.602 328.386 472.602 328.841C472.602 329.292 472.519 329.686 472.352 330.023C472.187 330.36 471.956 330.622 471.659 330.81C471.363 330.997 471.019 331.091 470.625 331.091ZM470.625 330.489C470.924 330.489 471.17 330.412 471.363 330.259C471.556 330.105 471.699 329.903 471.792 329.653C471.885 329.403 471.931 329.133 471.931 328.841C471.931 328.549 471.885 328.277 471.792 328.026C471.699 327.774 471.556 327.57 471.363 327.415C471.17 327.259 470.924 327.182 470.625 327.182C470.325 327.182 470.079 327.259 469.886 327.415C469.693 327.57 469.55 327.774 469.457 328.026C469.364 328.277 469.318 328.549 469.318 328.841C469.318 329.133 469.364 329.403 469.457 329.653C469.55 329.903 469.693 330.105 469.886 330.259C470.079 330.412 470.325 330.489 470.625 330.489ZM473.625 331V326.636H474.273V327.318H474.33C474.421 327.085 474.568 326.904 474.77 326.776C474.973 326.645 475.216 326.58 475.5 326.58C475.788 326.58 476.028 326.645 476.219 326.776C476.412 326.904 476.563 327.085 476.671 327.318H476.716C476.828 327.093 476.996 326.914 477.219 326.781C477.443 326.647 477.711 326.58 478.023 326.58C478.413 326.58 478.732 326.702 478.98 326.946C479.229 327.188 479.353 327.566 479.353 328.08V331H478.682V328.08C478.682 327.758 478.594 327.527 478.418 327.389C478.242 327.251 478.034 327.182 477.796 327.182C477.489 327.182 477.251 327.275 477.083 327.46C476.914 327.644 476.83 327.877 476.83 328.159V331H476.148V328.011C476.148 327.763 476.068 327.563 475.907 327.412C475.746 327.259 475.538 327.182 475.284 327.182C475.11 327.182 474.947 327.228 474.796 327.321C474.646 327.414 474.525 327.543 474.432 327.707C474.341 327.87 474.296 328.059 474.296 328.273V331H473.625ZM480.669 331V325.182H482.635C483.09 325.182 483.463 325.259 483.755 325.415C484.046 325.568 484.262 325.779 484.402 326.048C484.542 326.317 484.613 326.623 484.613 326.966C484.613 327.309 484.542 327.613 484.402 327.878C484.262 328.143 484.047 328.351 483.757 328.503C483.468 328.652 483.097 328.727 482.647 328.727H481.056V328.091H482.624C482.935 328.091 483.185 328.045 483.374 327.955C483.565 327.864 483.703 327.735 483.789 327.568C483.876 327.4 483.919 327.199 483.919 326.966C483.919 326.733 483.876 326.529 483.789 326.355C483.702 326.181 483.562 326.046 483.371 325.952C483.18 325.855 482.927 325.807 482.613 325.807H481.374V331H480.669ZM483.408 328.386L484.84 331H484.022L482.613 328.386H483.408ZM487.422 331.091C487.028 331.091 486.682 330.997 486.385 330.81C486.089 330.622 485.858 330.36 485.691 330.023C485.527 329.686 485.444 329.292 485.444 328.841C485.444 328.386 485.527 327.99 485.691 327.651C485.858 327.312 486.089 327.048 486.385 326.861C486.682 326.673 487.028 326.58 487.422 326.58C487.815 326.58 488.16 326.673 488.456 326.861C488.753 327.048 488.984 327.312 489.149 327.651C489.315 327.99 489.399 328.386 489.399 328.841C489.399 329.292 489.315 329.686 489.149 330.023C488.984 330.36 488.753 330.622 488.456 330.81C488.16 330.997 487.815 331.091 487.422 331.091ZM487.422 330.489C487.721 330.489 487.967 330.412 488.16 330.259C488.353 330.105 488.496 329.903 488.589 329.653C488.682 329.403 488.728 329.133 488.728 328.841C488.728 328.549 488.682 328.277 488.589 328.026C488.496 327.774 488.353 327.57 488.16 327.415C487.967 327.259 487.721 327.182 487.422 327.182C487.122 327.182 486.876 327.259 486.683 327.415C486.49 327.57 486.347 327.774 486.254 328.026C486.161 328.277 486.115 328.549 486.115 328.841C486.115 329.133 486.161 329.403 486.254 329.653C486.347 329.903 486.49 330.105 486.683 330.259C486.876 330.412 487.122 330.489 487.422 330.489ZM492.195 331.091C491.801 331.091 491.455 330.997 491.158 330.81C490.863 330.622 490.632 330.36 490.465 330.023C490.3 329.686 490.218 329.292 490.218 328.841C490.218 328.386 490.3 327.99 490.465 327.651C490.632 327.312 490.863 327.048 491.158 326.861C491.455 326.673 491.801 326.58 492.195 326.58C492.589 326.58 492.934 326.673 493.229 326.861C493.526 327.048 493.757 327.312 493.922 327.651C494.089 327.99 494.172 328.386 494.172 328.841C494.172 329.292 494.089 329.686 493.922 330.023C493.757 330.36 493.526 330.622 493.229 330.81C492.934 330.997 492.589 331.091 492.195 331.091ZM492.195 330.489C492.494 330.489 492.74 330.412 492.934 330.259C493.127 330.105 493.27 329.903 493.363 329.653C493.455 329.403 493.502 329.133 493.502 328.841C493.502 328.549 493.455 328.277 493.363 328.026C493.27 327.774 493.127 327.57 492.934 327.415C492.74 327.259 492.494 327.182 492.195 327.182C491.896 327.182 491.65 327.259 491.456 327.415C491.263 327.57 491.12 327.774 491.027 328.026C490.935 328.277 490.888 328.549 490.888 328.841C490.888 329.133 490.935 329.403 491.027 329.653C491.12 329.903 491.263 330.105 491.456 330.259C491.65 330.412 491.896 330.489 492.195 330.489ZM497.093 326.636V327.205H494.832V326.636H497.093ZM495.491 325.591H496.162V329.75C496.162 329.939 496.189 330.081 496.244 330.176C496.301 330.269 496.373 330.331 496.46 330.364C496.549 330.394 496.643 330.409 496.741 330.409C496.815 330.409 496.876 330.405 496.923 330.398C496.97 330.388 497.008 330.381 497.037 330.375L497.173 330.977C497.127 330.994 497.064 331.011 496.983 331.028C496.901 331.047 496.798 331.057 496.673 331.057C496.484 331.057 496.298 331.016 496.116 330.935C495.936 330.853 495.787 330.729 495.667 330.562C495.55 330.396 495.491 330.186 495.491 329.932V325.591Z" fill="#999999"/>
<path d="M560.557 326.636V327.205H558.205V326.636H560.557ZM558.909 331V326.034C558.909 325.784 558.968 325.576 559.085 325.409C559.203 325.242 559.355 325.117 559.543 325.034C559.73 324.951 559.928 324.909 560.136 324.909C560.301 324.909 560.436 324.922 560.54 324.949C560.644 324.975 560.722 325 560.773 325.023L560.58 325.602C560.545 325.591 560.498 325.577 560.438 325.56C560.379 325.543 560.301 325.534 560.205 325.534C559.983 325.534 559.823 325.59 559.724 325.702C559.628 325.813 559.58 325.977 559.58 326.193V331H558.909ZM561.496 331V326.636H562.144V327.295H562.19C562.269 327.08 562.413 326.904 562.621 326.77C562.83 326.635 563.065 326.568 563.326 326.568C563.375 326.568 563.437 326.569 563.511 326.571C563.585 326.573 563.64 326.576 563.678 326.58V327.261C563.656 327.256 563.603 327.247 563.522 327.236C563.442 327.223 563.358 327.216 563.269 327.216C563.057 327.216 562.868 327.26 562.701 327.349C562.536 327.437 562.406 327.558 562.309 327.713C562.214 327.866 562.167 328.042 562.167 328.239V331H561.496ZM566.113 331.091C565.719 331.091 565.373 330.997 565.076 330.81C564.781 330.622 564.549 330.36 564.383 330.023C564.218 329.686 564.136 329.292 564.136 328.841C564.136 328.386 564.218 327.99 564.383 327.651C564.549 327.312 564.781 327.048 565.076 326.861C565.373 326.673 565.719 326.58 566.113 326.58C566.507 326.58 566.852 326.673 567.147 326.861C567.444 327.048 567.675 327.312 567.84 327.651C568.007 327.99 568.09 328.386 568.09 328.841C568.09 329.292 568.007 329.686 567.84 330.023C567.675 330.36 567.444 330.622 567.147 330.81C566.852 330.997 566.507 331.091 566.113 331.091ZM566.113 330.489C566.412 330.489 566.658 330.412 566.852 330.259C567.045 330.105 567.188 329.903 567.281 329.653C567.373 329.403 567.42 329.133 567.42 328.841C567.42 328.549 567.373 328.277 567.281 328.026C567.188 327.774 567.045 327.57 566.852 327.415C566.658 327.259 566.412 327.182 566.113 327.182C565.814 327.182 565.567 327.259 565.374 327.415C565.181 327.57 565.038 327.774 564.945 328.026C564.853 328.277 564.806 328.549 564.806 328.841C564.806 329.133 564.853 329.403 564.945 329.653C565.038 329.903 565.181 330.105 565.374 330.259C565.567 330.412 565.814 330.489 566.113 330.489ZM569.114 331V326.636H569.761V327.318H569.818C569.909 327.085 570.056 326.904 570.259 326.776C570.461 326.645 570.705 326.58 570.989 326.58C571.277 326.58 571.516 326.645 571.707 326.776C571.901 326.904 572.051 327.085 572.159 327.318H572.205C572.316 327.093 572.484 326.914 572.707 326.781C572.931 326.647 573.199 326.58 573.511 326.58C573.902 326.58 574.221 326.702 574.469 326.946C574.717 327.188 574.841 327.566 574.841 328.08V331H574.17V328.08C574.17 327.758 574.082 327.527 573.906 327.389C573.73 327.251 573.523 327.182 573.284 327.182C572.977 327.182 572.74 327.275 572.571 327.46C572.402 327.644 572.318 327.877 572.318 328.159V331H571.636V328.011C571.636 327.763 571.556 327.563 571.395 327.412C571.234 327.259 571.027 327.182 570.773 327.182C570.598 327.182 570.436 327.228 570.284 327.321C570.134 327.414 570.013 327.543 569.92 327.707C569.83 327.87 569.784 328.059 569.784 328.273V331H569.114ZM576.158 331V325.182H576.862V330.375H579.567V331H576.158ZM582.396 331.091C581.976 331.091 581.613 330.998 581.308 330.812C581.005 330.625 580.771 330.364 580.607 330.028C580.444 329.691 580.362 329.299 580.362 328.852C580.362 328.405 580.444 328.011 580.607 327.67C580.771 327.328 581 327.061 581.294 326.869C581.589 326.676 581.934 326.58 582.328 326.58C582.555 326.58 582.78 326.617 583.001 326.693C583.223 326.769 583.425 326.892 583.607 327.062C583.788 327.231 583.933 327.455 584.041 327.733C584.149 328.011 584.203 328.354 584.203 328.761V329.045H580.839V328.466H583.521C583.521 328.22 583.472 328 583.374 327.807C583.277 327.614 583.139 327.461 582.959 327.349C582.781 327.238 582.571 327.182 582.328 327.182C582.061 327.182 581.83 327.248 581.635 327.381C581.442 327.511 581.293 327.682 581.189 327.892C581.085 328.102 581.033 328.328 581.033 328.568V328.955C581.033 329.284 581.089 329.563 581.203 329.793C581.319 330.02 581.479 330.193 581.683 330.312C581.888 330.43 582.125 330.489 582.396 330.489C582.572 330.489 582.732 330.464 582.874 330.415C583.018 330.364 583.142 330.288 583.246 330.188C583.35 330.085 583.43 329.958 583.487 329.807L584.135 329.989C584.067 330.208 583.952 330.402 583.791 330.568C583.63 330.733 583.431 330.862 583.195 330.955C582.958 331.045 582.692 331.091 582.396 331.091ZM586.507 331.102C586.231 331.102 585.98 331.05 585.754 330.946C585.529 330.84 585.35 330.688 585.217 330.489C585.085 330.288 585.018 330.045 585.018 329.761C585.018 329.511 585.068 329.309 585.166 329.153C585.265 328.996 585.396 328.873 585.561 328.784C585.726 328.695 585.908 328.629 586.107 328.585C586.307 328.54 586.509 328.504 586.712 328.477C586.977 328.443 587.192 328.418 587.357 328.401C587.523 328.382 587.644 328.35 587.72 328.307C587.798 328.263 587.837 328.187 587.837 328.08V328.057C587.837 327.777 587.76 327.559 587.607 327.403C587.455 327.248 587.225 327.17 586.916 327.17C586.596 327.17 586.345 327.241 586.163 327.381C585.982 327.521 585.854 327.67 585.78 327.83L585.143 327.602C585.257 327.337 585.409 327.131 585.598 326.983C585.789 326.833 585.998 326.729 586.223 326.67C586.45 326.61 586.674 326.58 586.893 326.58C587.034 326.58 587.195 326.597 587.376 326.631C587.56 326.663 587.737 326.73 587.908 326.832C588.08 326.935 588.223 327.089 588.337 327.295C588.45 327.502 588.507 327.778 588.507 328.125V331H587.837V330.409H587.803C587.757 330.504 587.681 330.605 587.575 330.713C587.469 330.821 587.328 330.913 587.152 330.989C586.976 331.064 586.761 331.102 586.507 331.102ZM586.609 330.5C586.875 330.5 587.098 330.448 587.28 330.344C587.464 330.24 587.602 330.105 587.695 329.94C587.789 329.776 587.837 329.602 587.837 329.42V328.807C587.808 328.841 587.746 328.872 587.649 328.901C587.554 328.927 587.445 328.951 587.32 328.972C587.196 328.991 587.076 329.008 586.959 329.023C586.843 329.036 586.75 329.047 586.678 329.057C586.503 329.08 586.34 329.116 586.189 329.168C586.039 329.217 585.918 329.292 585.825 329.392C585.734 329.491 585.689 329.625 585.689 329.795C585.689 330.028 585.775 330.205 585.947 330.324C586.122 330.441 586.342 330.5 586.609 330.5ZM591.674 326.636V327.205H589.322V326.636H591.674ZM590.026 331V326.034C590.026 325.784 590.085 325.576 590.202 325.409C590.32 325.242 590.472 325.117 590.66 325.034C590.847 324.951 591.045 324.909 591.254 324.909C591.418 324.909 591.553 324.922 591.657 324.949C591.761 324.975 591.839 325 591.89 325.023L591.697 325.602C591.663 325.591 591.615 325.577 591.555 325.56C591.496 325.543 591.418 325.534 591.322 325.534C591.1 325.534 590.94 325.59 590.842 325.702C590.745 325.813 590.697 325.977 590.697 326.193V331H590.026Z" fill="#999999"/>
</svg>
